<svg width="104" height="112" viewBox="0 0 104 112" fill="none" xmlns="http://www.w3.org/2000/svg">
<g clip-path="url(#clip0_10906_112233)">
<path d="M5.59291 89.4333C-1.87471 85.1219 -1.87472 78.1317 5.5929 73.8202L52.6682 46.6413C60.1358 42.3299 72.2432 42.3299 79.7109 46.6413L92.3769 53.954C99.8445 58.2655 99.8446 65.2557 92.3769 69.5671L45.3016 96.7461C37.834 101.058 25.7266 101.058 18.259 96.7461L5.59291 89.4333Z" fill="#C4C4C4"/>
<path d="M5.59291 89.4333C-1.87471 85.1219 -1.87472 78.1317 5.5929 73.8202L52.6682 46.6413C60.1358 42.3299 72.2432 42.3299 79.7109 46.6413L92.3769 53.954C99.8445 58.2655 99.8446 65.2557 92.3769 69.5671L45.3016 96.7461C37.834 101.058 25.7266 101.058 18.259 96.7461L5.59291 89.4333Z" fill="white"/>
<path d="M5.59291 89.4333C-1.87471 85.1219 -1.87472 78.1317 5.5929 73.8202L52.6682 46.6413C60.1358 42.3299 72.2432 42.3299 79.7109 46.6413L92.3769 53.954C99.8445 58.2655 99.8446 65.2557 92.3769 69.5671L45.3016 96.7461C37.834 101.058 25.7266 101.058 18.259 96.7461L5.59291 89.4333Z" fill="url(#paint0_linear_10906_112233)" fill-opacity="0.8"/>
<path d="M92.3993 66.4033L45.3016 93.6347C37.834 97.9461 25.7266 97.9461 18.259 93.6347L5.59291 86.3219C1.4886 83.9523 -0.359922 80.7734 0.0473309 77.6749C0.0473309 77.6749 0.797209 72.2025 3.52452 64.3136C6.25183 56.4246 9.97988 51.2341 9.97988 51.2341L76.4212 23.0483C76.4212 23.0483 85.2435 30.9913 89.8162 38.1988C94.3889 45.4063 97.9415 57.7314 97.9415 57.7314C98.362 60.8378 96.5146 64.0273 92.3993 66.4033Z" fill="#C4C4C4"/>
<path d="M92.3993 66.4033L45.3016 93.6347C37.834 97.9461 25.7266 97.9461 18.259 93.6347L5.59291 86.3219C1.4886 83.9523 -0.359922 80.7734 0.0473309 77.6749C0.0473309 77.6749 0.797209 72.2025 3.52452 64.3136C6.25183 56.4246 9.97988 51.2341 9.97988 51.2341L76.4212 23.0483C76.4212 23.0483 85.2435 30.9913 89.8162 38.1988C94.3889 45.4063 97.9415 57.7314 97.9415 57.7314C98.362 60.8378 96.5146 64.0273 92.3993 66.4033Z" fill="white"/>
<path d="M92.3993 66.4033L45.3016 93.6347C37.834 97.9461 25.7266 97.9461 18.259 93.6347L5.59291 86.3219C1.4886 83.9523 -0.359922 80.7734 0.0473309 77.6749C0.0473309 77.6749 0.797209 72.2025 3.52452 64.3136C6.25183 56.4246 9.97988 51.2341 9.97988 51.2341L76.4212 23.0483C76.4212 23.0483 85.2435 30.9913 89.8162 38.1988C94.3889 45.4063 97.9415 57.7314 97.9415 57.7314C98.362 60.8378 96.5146 64.0273 92.3993 66.4033Z" fill="url(#paint1_linear_10906_112233)" fill-opacity="0.75"/>
<rect width="72.9132" height="19.119" rx="9.55951" transform="matrix(0.866025 -0.5 0.866025 0.5 3.98438 54.1421)" fill="#696969"/>
<rect width="72.9132" height="19.119" rx="9.55951" transform="matrix(0.866025 -0.5 0.866025 0.5 3.98438 54.1421)" fill="white"/>
<rect width="72.9132" height="19.119" rx="9.55951" transform="matrix(0.866025 -0.5 0.866025 0.5 3.98438 54.1421)" fill="url(#paint2_linear_10906_112233)" fill-opacity="0.8"/>
<path d="M39.1641 66.0171L46.8918 61.5555L48.9773 69.809L41.2496 74.2706L39.1641 66.0171Z" fill="black"/>
<path d="M39.1641 66.0171L46.8918 61.5555L48.9773 69.809L41.2496 74.2706L39.1641 66.0171Z" fill="url(#paint3_linear_10906_112233)" fill-opacity="0.6"/>
<path d="M48.9773 69.809L56.705 65.3473L58.7905 73.6008L51.0627 78.0624L48.9773 69.809Z" fill="black"/>
<path d="M48.9773 69.809L56.705 65.3473L58.7905 73.6008L51.0627 78.0624L48.9773 69.809Z" fill="url(#paint4_linear_10906_112233)" fill-opacity="0.6"/>
<path d="M64.4326 60.8858L72.1603 56.4242L74.2458 64.6776L66.5181 69.1392L64.4326 60.8858Z" fill="black"/>
<path d="M64.4326 60.8858L72.1603 56.4242L74.2458 64.6776L66.5181 69.1392L64.4326 60.8858Z" fill="url(#paint5_linear_10906_112233)" fill-opacity="0.6"/>
<path d="M54.6194 57.0939L62.3472 52.6323L64.4326 60.8858L56.705 65.3473L54.6194 57.0939Z" fill="black"/>
<path d="M54.6194 57.0939L62.3472 52.6323L64.4326 60.8858L56.705 65.3473L54.6194 57.0939Z" fill="url(#paint6_linear_10906_112233)" fill-opacity="0.6"/>
<path d="M70.0748 48.1708L77.8025 43.7092L79.888 51.9626L72.1603 56.4242L70.0748 48.1708Z" fill="black"/>
<path d="M70.0748 48.1708L77.8025 43.7092L79.888 51.9626L72.1603 56.4242L70.0748 48.1708Z" fill="url(#paint7_linear_10906_112233)" fill-opacity="0.6"/>
</g>
<rect x="39.2031" y="0.259277" width="64.2031" height="26.1354" rx="13.0677" fill="#9BD050"/>
<path d="M52.7021 8.81107V6.10605H61.9344V8.36023L57.0537 19.8271H54.0546L58.8178 8.81107H52.7021ZM66.0813 11.9669C65.5324 11.9669 65.0228 11.8362 64.5523 11.5749C64.095 11.3005 63.7225 10.928 63.435 10.4576C63.1606 9.98716 63.0234 9.47099 63.0234 8.90907C63.0234 8.34716 63.1606 7.83099 63.435 7.36055C63.7225 6.89011 64.095 6.52422 64.5523 6.26286C65.0228 5.98844 65.5324 5.85123 66.0813 5.85123C66.6301 5.85123 67.1332 5.98844 67.5906 6.26286C68.061 6.52422 68.4334 6.89011 68.7079 7.36055C68.9954 7.83099 69.1391 8.34716 69.1391 8.90907C69.1391 9.47099 68.9954 9.98716 68.7079 10.4576C68.4334 10.928 68.061 11.3005 67.5906 11.5749C67.1332 11.8362 66.6301 11.9669 66.0813 11.9669ZM66.2773 19.8271H64.2387L72.7458 6.10605H74.7843L66.2773 19.8271ZM66.0813 10.3008C66.4341 10.3008 66.7346 10.1766 66.9829 9.92836C67.2443 9.667 67.375 9.32724 67.375 8.90907C67.375 8.49091 67.2443 8.15768 66.9829 7.90939C66.7346 7.64804 66.4341 7.51736 66.0813 7.51736C65.7284 7.51736 65.4213 7.64804 65.16 7.90939C64.9117 8.15768 64.7875 8.49091 64.7875 8.90907C64.7875 9.32724 64.9117 9.667 65.16 9.92836C65.4213 10.1766 65.7284 10.3008 66.0813 10.3008ZM72.9418 20.082C72.393 20.082 71.8833 19.9513 71.4129 19.6899C70.9555 19.4155 70.5831 19.0431 70.2956 18.5726C70.0212 18.1022 69.884 17.586 69.884 17.0241C69.884 16.4622 70.0212 15.946 70.2956 15.4756C70.5831 15.0052 70.9555 14.6393 71.4129 14.3779C71.8833 14.1035 72.393 13.9663 72.9418 13.9663C73.4906 13.9663 73.9938 14.1035 74.4511 14.3779C74.9216 14.6393 75.294 15.0052 75.5684 15.4756C75.8559 15.946 75.9996 16.4622 75.9996 17.0241C75.9996 17.586 75.8559 18.1022 75.5684 18.5726C75.294 19.0431 74.9216 19.4155 74.4511 19.6899C73.9938 19.9513 73.4906 20.082 72.9418 20.082ZM72.9418 18.4158C73.2946 18.4158 73.5952 18.2917 73.8435 18.0434C74.1048 17.7821 74.2355 17.4423 74.2355 17.0241C74.2355 16.606 74.1048 16.2727 73.8435 16.0244C73.5952 15.7631 73.2946 15.6324 72.9418 15.6324C72.589 15.6324 72.2819 15.7631 72.0205 16.0244C71.7722 16.2727 71.6481 16.606 71.6481 17.0241C71.6481 17.4423 71.7722 17.7821 72.0205 18.0434C72.2819 18.2917 72.589 18.4158 72.9418 18.4158Z" fill="white"/>
<path fill-rule="evenodd" clip-rule="evenodd" d="M91.0195 7.61003H82.3076V5.97656H91.0195V7.61003ZM82.4228 10.0836H91.0195V11.717H84.0563V13.8172H88.4059C90.3004 13.8172 91.8362 15.353 91.8362 17.2475C91.8362 19.142 90.3004 20.6777 88.4059 20.6777H82.4228V10.0836ZM84.0563 15.4507V19.0443H88.4059C89.3983 19.0443 90.2028 18.2398 90.2028 17.2475C90.2028 16.2551 89.3983 15.4507 88.4059 15.4507H84.0563Z" fill="white"/>
<defs>
<linearGradient id="paint0_linear_10906_112233" x1="104.796" y1="44.681" x2="16.2212" y2="107.987" gradientUnits="userSpaceOnUse">
<stop stop-color="#FFD977"/>
<stop offset="1" stop-color="#FF8D07"/>
</linearGradient>
<linearGradient id="paint1_linear_10906_112233" x1="85.2436" y1="49.8067" x2="3.86918" y2="84.7634" gradientUnits="userSpaceOnUse">
<stop stop-color="#FFD977"/>
<stop offset="1" stop-color="#FF8D07"/>
</linearGradient>
<linearGradient id="paint2_linear_10906_112233" x1="64.9869" y1="5.28839" x2="-1.096" y2="39.8145" gradientUnits="userSpaceOnUse">
<stop stop-color="#FFD977"/>
<stop offset="1" stop-color="#FF8D07"/>
</linearGradient>
<linearGradient id="paint3_linear_10906_112233" x1="39.1641" y1="84.9321" x2="82.1136" y2="44.1002" gradientUnits="userSpaceOnUse">
<stop stop-color="#D8D8D8"/>
<stop offset="1" stop-color="#F0F0F0"/>
</linearGradient>
<linearGradient id="paint4_linear_10906_112233" x1="39.1641" y1="84.9321" x2="82.1136" y2="44.1002" gradientUnits="userSpaceOnUse">
<stop stop-color="#D8D8D8"/>
<stop offset="1" stop-color="#F0F0F0"/>
</linearGradient>
<linearGradient id="paint5_linear_10906_112233" x1="39.1641" y1="84.9321" x2="82.1136" y2="44.1002" gradientUnits="userSpaceOnUse">
<stop stop-color="#D8D8D8"/>
<stop offset="1" stop-color="#F0F0F0"/>
</linearGradient>
<linearGradient id="paint6_linear_10906_112233" x1="39.1641" y1="84.9321" x2="82.1136" y2="44.1002" gradientUnits="userSpaceOnUse">
<stop stop-color="#D8D8D8"/>
<stop offset="1" stop-color="#F0F0F0"/>
</linearGradient>
<linearGradient id="paint7_linear_10906_112233" x1="39.1641" y1="84.9321" x2="82.1136" y2="44.1002" gradientUnits="userSpaceOnUse">
<stop stop-color="#D8D8D8"/>
<stop offset="1" stop-color="#F0F0F0"/>
</linearGradient>
<clipPath id="clip0_10906_112233">
<rect width="98.0078" height="79.9045" fill="white" transform="translate(0 20.3296)"/>
</clipPath>
</defs>
</svg>
