<svg width="105" height="113" viewBox="0 0 105 113" fill="none" xmlns="http://www.w3.org/2000/svg">
<path d="M66.9322 91.0553C56.8575 96.8719 40.5233 96.8719 30.4487 91.0553C25.3442 88.1083 22.826 84.2334 22.8941 80.371C22.9603 76.6102 25.4785 72.8611 30.4487 69.9916C40.5233 64.175 56.8575 64.175 66.9322 69.9916C71.9023 72.8611 74.4205 76.6102 74.4868 80.371C74.5548 84.2334 72.0366 88.1083 66.9322 91.0553Z" fill="#C4C4C4"/>
<path d="M66.9322 91.0553C56.8575 96.8719 40.5233 96.8719 30.4487 91.0553C25.3442 88.1083 22.826 84.2334 22.8941 80.371C22.9603 76.6102 25.4785 72.8611 30.4487 69.9916C40.5233 64.175 56.8575 64.175 66.9322 69.9916C71.9023 72.8611 74.4205 76.6102 74.4868 80.371C74.5548 84.2334 72.0366 88.1083 66.9322 91.0553Z" fill="#1F1F22"/>
<path d="M66.9322 91.0553C56.8575 96.8719 40.5233 96.8719 30.4487 91.0553C25.3442 88.1083 22.826 84.2334 22.8941 80.371C22.9603 76.6102 25.4785 72.8611 30.4487 69.9916C40.5233 64.175 56.8575 64.175 66.9322 69.9916C71.9023 72.8611 74.4205 76.6102 74.4868 80.371C74.5548 84.2334 72.0366 88.1083 66.9322 91.0553Z" fill="url(#paint0_linear_16450_114553)" fill-opacity="0.75"/>
<path d="M30.4487 69.9916C40.5233 64.175 56.8575 64.175 66.9322 69.9916C71.9023 72.8611 74.4205 76.6102 74.4868 80.371L74.4868 57.3642L73.4014 57.3642L22.8941 57.3642L22.8941 80.371C22.9603 76.6102 25.4785 72.8611 30.4487 69.9916Z" fill="#C4C4C4"/>
<path d="M30.4487 69.9916C40.5233 64.175 56.8575 64.175 66.9322 69.9916C71.9023 72.8611 74.4205 76.6102 74.4868 80.371L74.4868 57.3642L73.4014 57.3642L22.8941 57.3642L22.8941 80.371C22.9603 76.6102 25.4785 72.8611 30.4487 69.9916Z" fill="#1F1F22"/>
<path d="M30.4487 69.9916C40.5233 64.175 56.8575 64.175 66.9322 69.9916C71.9023 72.8611 74.4205 76.6102 74.4868 80.371L74.4868 57.3642L73.4014 57.3642L22.8941 57.3642L22.8941 80.371C22.9603 76.6102 25.4785 72.8611 30.4487 69.9916Z" fill="url(#paint1_linear_16450_114553)" fill-opacity="0.75"/>
<path d="M4.16832 56.6904C2.32675 55.6272 1.40678 54.2333 1.40841 52.8398C1.41003 51.4487 2.33 50.0579 4.16832 48.9966L41.5595 27.4088C45.2393 25.2842 51.2056 25.2842 54.8855 27.4088L92.2766 48.9966C94.1146 50.0578 95.0346 51.4482 95.0366 52.8391C95.0385 54.2328 94.1185 55.627 92.2766 56.6904L54.8855 78.2782C51.2056 80.4028 45.2393 80.4028 41.5595 78.2782L4.16832 56.6904Z" fill="#C4C4C4"/>
<path d="M4.16832 56.6904C2.32675 55.6272 1.40678 54.2333 1.40841 52.8398C1.41003 51.4487 2.33 50.0579 4.16832 48.9966L41.5595 27.4088C45.2393 25.2842 51.2056 25.2842 54.8855 27.4088L92.2766 48.9966C94.1146 50.0578 95.0346 51.4482 95.0366 52.8391C95.0385 54.2328 94.1185 55.627 92.2766 56.6904L54.8855 78.2782C51.2056 80.4028 45.2393 80.4028 41.5595 78.2782L4.16832 56.6904Z" fill="#1F1F22"/>
<path d="M4.16832 56.6904C2.32675 55.6272 1.40678 54.2333 1.40841 52.8398C1.41003 51.4487 2.33 50.0579 4.16832 48.9966L41.5595 27.4088C45.2393 25.2842 51.2056 25.2842 54.8855 27.4088L92.2766 48.9966C94.1146 50.0578 95.0346 51.4482 95.0366 52.8391C95.0385 54.2328 94.1185 55.627 92.2766 56.6904L54.8855 78.2782C51.2056 80.4028 45.2393 80.4028 41.5595 78.2782L4.16832 56.6904Z" fill="url(#paint2_linear_16450_114553)" fill-opacity="0.5"/>
<path d="M92.2766 48.9966C94.1146 50.0578 95.0346 51.4482 95.0366 52.8391L95.0366 49.9258L92.2766 48.9966Z" fill="#C4C4C4"/>
<path d="M92.2766 48.9966C94.1146 50.0578 95.0346 51.4482 95.0366 52.8391L95.0366 49.9258L92.2766 48.9966Z" fill="#1F1F22"/>
<path d="M92.2766 48.9966C94.1146 50.0578 95.0346 51.4482 95.0366 52.8391L95.0366 49.9258L92.2766 48.9966Z" fill="url(#paint3_linear_16450_114553)" fill-opacity="0.5"/>
<path d="M1.40841 52.8398C1.41003 51.4487 2.33 50.0579 4.16832 48.9966L1.40841 50.0066L1.40841 52.8398Z" fill="#C4C4C4"/>
<path d="M1.40841 52.8398C1.41003 51.4487 2.33 50.0579 4.16832 48.9966L1.40841 50.0066L1.40841 52.8398Z" fill="#1F1F22"/>
<path d="M1.40841 52.8398C1.41003 51.4487 2.33 50.0579 4.16832 48.9966L1.40841 50.0066L1.40841 52.8398Z" fill="url(#paint4_linear_16450_114553)" fill-opacity="0.5"/>
<rect width="58.5632" height="58.5632" rx="7.70313" transform="matrix(0.866025 -0.5 0.866025 0.5 -2.4939 50.2812)" fill="#C4C4C4"/>
<rect width="58.5632" height="58.5632" rx="7.70313" transform="matrix(0.866025 -0.5 0.866025 0.5 -2.4939 50.2812)" fill="#1F1F22"/>
<rect width="58.5632" height="58.5632" rx="7.70313" transform="matrix(0.866025 -0.5 0.866025 0.5 -2.4939 50.2812)" fill="url(#paint5_linear_16450_114553)" fill-opacity="0.3"/>
<path d="M53.2784 53.1813C50.5047 54.7827 46.0076 54.7827 43.2338 53.1813C41.8285 52.3699 41.1352 51.3031 41.1539 50.2397C41.1722 49.2043 41.8655 48.1721 43.2338 47.382C46.0076 45.7806 50.5047 45.7806 53.2784 47.382C54.6467 48.1721 55.3401 49.2043 55.3583 50.2397C55.377 51.3031 54.6837 52.3699 53.2784 53.1813Z" fill="#1F1F22"/>
<path d="M47.6105 50.2812L26.7457 62.303C23.464 64.1938 21.4417 67.693 21.4417 71.4805V89.4028" stroke="#1F1F22" stroke-width="5.77735"/>
<path d="M22.1269 83.5965L29.3805 101.104L14.8734 92.7283L22.1269 83.5965Z" fill="#1F1F22"/>
<rect x="39.1328" y="0.974121" width="65.1264" height="26.0843" rx="13.0421" fill="#9BD050"/>
<path d="M58.2396 11.8801C59.1004 11.8801 59.8764 12.0822 60.5677 12.4866C61.2589 12.8909 61.8002 13.4451 62.1914 14.1494C62.5957 14.8407 62.7979 15.6232 62.7979 16.497C62.7979 17.3708 62.5827 18.1729 62.1523 18.9033C61.7349 19.6336 61.1415 20.214 60.372 20.6444C59.6025 21.0618 58.7352 21.2704 57.7701 21.2704C56.8702 21.2704 56.0616 21.0813 55.3443 20.7031C54.627 20.3249 54.0596 19.8228 53.6423 19.1967C53.2249 18.5707 52.9771 17.8925 52.8989 17.1622H55.6964C55.7486 17.5273 55.9638 17.873 56.342 18.199C56.7333 18.5251 57.2028 18.6881 57.7506 18.6881C58.4157 18.6881 58.957 18.4794 59.3743 18.0621C59.7917 17.6317 60.0003 17.11 60.0003 16.497C60.0003 15.871 59.7917 15.3428 59.3743 14.9124C58.957 14.482 58.4157 14.2668 57.7506 14.2668C56.7854 14.2668 56.0877 14.6972 55.6573 15.558H53.1923L54.0727 7.32186H61.8197V9.90421H56.342L56.0877 12.4866C56.6876 12.0822 57.4049 11.8801 58.2396 11.8801ZM67.0665 13.1713C66.5187 13.1713 66.0101 13.0408 65.5405 12.78C65.0841 12.5061 64.7124 12.1344 64.4254 11.6649C64.1516 11.1954 64.0146 10.6802 64.0146 10.1194C64.0146 9.55859 64.1516 9.04343 64.4254 8.57391C64.7124 8.10439 65.0841 7.73921 65.5405 7.47837C66.0101 7.20448 66.5187 7.06754 67.0665 7.06754C67.6142 7.06754 68.1164 7.20448 68.5728 7.47837C69.0424 7.73921 69.4141 8.10439 69.6879 8.57391C69.9749 9.04343 70.1183 9.55859 70.1183 10.1194C70.1183 10.6802 69.9749 11.1954 69.6879 11.6649C69.4141 12.1344 69.0424 12.5061 68.5728 12.78C68.1164 13.0408 67.6142 13.1713 67.0665 13.1713ZM67.2621 21.0161H65.2275L73.718 7.32186H75.7525L67.2621 21.0161ZM67.0665 11.5084C67.4186 11.5084 67.7186 11.3845 67.9664 11.1367C68.2272 10.8758 68.3576 10.5368 68.3576 10.1194C68.3576 9.70205 68.2272 9.36948 67.9664 9.12168C67.7186 8.86084 67.4186 8.73041 67.0665 8.73041C66.7143 8.73041 66.4078 8.86084 66.147 9.12168C65.8992 9.36948 65.7753 9.70205 65.7753 10.1194C65.7753 10.5368 65.8992 10.8758 66.147 11.1367C66.4078 11.3845 66.7143 11.5084 67.0665 11.5084ZM73.9136 21.2704C73.3658 21.2704 72.8572 21.14 72.3877 20.8792C71.9312 20.6053 71.5595 20.2336 71.2726 19.7641C70.9987 19.2946 70.8617 18.7794 70.8617 18.2186C70.8617 17.6578 70.9987 17.1426 71.2726 16.6731C71.5595 16.2036 71.9312 15.8384 72.3877 15.5775C72.8572 15.3037 73.3658 15.1667 73.9136 15.1667C74.4614 15.1667 74.9635 15.3037 75.42 15.5775C75.8895 15.8384 76.2612 16.2036 76.5351 16.6731C76.822 17.1426 76.9655 17.6578 76.9655 18.2186C76.9655 18.7794 76.822 19.2946 76.5351 19.7641C76.2612 20.2336 75.8895 20.6053 75.42 20.8792C74.9635 21.14 74.4614 21.2704 73.9136 21.2704ZM73.9136 19.6076C74.2657 19.6076 74.5657 19.4837 74.8135 19.2359C75.0744 18.975 75.2048 18.6359 75.2048 18.2186C75.2048 17.8012 75.0744 17.4687 74.8135 17.2208C74.5657 16.96 74.2657 16.8296 73.9136 16.8296C73.5615 16.8296 73.255 16.96 72.9941 17.2208C72.7463 17.4687 72.6224 17.8012 72.6224 18.2186C72.6224 18.6359 72.7463 18.975 72.9941 19.2359C73.255 19.4837 73.5615 19.6076 73.9136 19.6076Z" fill="white"/>
<path fill-rule="evenodd" clip-rule="evenodd" d="M91.8965 8.31044H83.2017V6.68018H91.8965V8.31044ZM83.3167 10.7791H91.8965V12.4094H84.9469V14.5055H89.2881C91.1788 14.5055 92.7116 16.0382 92.7116 17.929C92.7116 19.8198 91.1788 21.3526 89.2881 21.3526H83.3167V10.7791ZM84.9469 16.1357V19.7223H89.2881C90.2785 19.7223 91.0814 18.9194 91.0814 17.929C91.0814 16.9386 90.2785 16.1357 89.2881 16.1357H84.9469Z" fill="white"/>
<defs>
<linearGradient id="paint0_linear_16450_114553" x1="81.0575" y1="94.9578" x2="59.7174" y2="103.607" gradientUnits="userSpaceOnUse">
<stop stop-color="#CCD1D3" stop-opacity="0.36"/>
<stop offset="1" stop-color="#C3C6CA"/>
</linearGradient>
<linearGradient id="paint1_linear_16450_114553" x1="81.0575" y1="94.9578" x2="59.7174" y2="103.607" gradientUnits="userSpaceOnUse">
<stop stop-color="#CCD1D3" stop-opacity="0.36"/>
<stop offset="1" stop-color="#C3C6CA"/>
</linearGradient>
<linearGradient id="paint2_linear_16450_114553" x1="237.062" y1="-7.60278" x2="240.803" y2="39.732" gradientUnits="userSpaceOnUse">
<stop stop-color="#BDC6CB" stop-opacity="0.36"/>
<stop offset="1" stop-color="#B7BEC8"/>
</linearGradient>
<linearGradient id="paint3_linear_16450_114553" x1="237.062" y1="-7.60278" x2="240.803" y2="39.732" gradientUnits="userSpaceOnUse">
<stop stop-color="#BDC6CB" stop-opacity="0.36"/>
<stop offset="1" stop-color="#B7BEC8"/>
</linearGradient>
<linearGradient id="paint4_linear_16450_114553" x1="237.062" y1="-7.60278" x2="240.803" y2="39.732" gradientUnits="userSpaceOnUse">
<stop stop-color="#BDC6CB" stop-opacity="0.36"/>
<stop offset="1" stop-color="#B7BEC8"/>
</linearGradient>
<linearGradient id="paint5_linear_16450_114553" x1="48.8286" y1="65.071" x2="-15.5931" y2="43.1653" gradientUnits="userSpaceOnUse">
<stop stop-color="#C9CFD2" stop-opacity="0.36"/>
<stop offset="1" stop-color="#B5BDC8"/>
</linearGradient>
</defs>
</svg>
