<svg width="105" height="112" viewBox="0 0 105 112" fill="none" xmlns="http://www.w3.org/2000/svg">
<g clip-path="url(#clip0_10906_112298)">
<path d="M31.1165 30.4837V51.6104L12.8203 62.1737V91.1694L23.8973 98.2464L31.1165 80.6061V101.733L42.2932 108.744L56.2276 87.2349V66.1082L74.5238 55.5449L85.6694 33.6091L74.5238 26.5492L56.2276 37.1125L67.3037 23.0505L56.2276 15.9858L31.1165 30.4837Z" fill="#5B6F40"/>
<path d="M31.1165 30.4837V51.6104L12.8203 62.1737V91.1694L23.8973 98.2464L31.1165 80.6061V101.733L42.2932 108.744L56.2276 87.2349V66.1082L74.5238 55.5449L85.6694 33.6091L74.5238 26.5492L56.2276 37.1125L67.3037 23.0505L56.2276 15.9858L31.1165 30.4837Z" fill="url(#paint0_linear_10906_112298)" fill-opacity="0.75"/>
<path d="M31.1398 30.5093L42.2734 37.5836V58.6905L31.1398 51.6162V30.5093Z" fill="black" fill-opacity="0.1"/>
<path d="M12.8203 62.1622L23.961 69.2694V98.2376L12.8203 91.1305L12.8203 62.1622Z" fill="black" fill-opacity="0.1"/>
<path d="M42.265 37.5228V58.6494L23.9688 69.2127L23.9688 98.2085L42.265 87.6451L42.265 108.772L67.376 94.2739V73.1473L85.6722 62.584V33.5882L67.376 44.1516V23.0249L42.265 37.5228Z" fill="#9BD050"/>
<path d="M42.265 37.5228V58.6494L23.9688 69.2127L23.9688 98.2085L42.265 87.6451L42.265 108.772L67.376 94.2739V73.1473L85.6722 62.584V33.5882L67.376 44.1516V23.0249L42.265 37.5228Z" fill="url(#paint1_linear_10906_112298)" fill-opacity="0.75"/>
<path d="M54.8063 45.8119L54.8063 85.9941M36.7109 77.154L72.9017 56.2593" stroke="white" stroke-width="7.23292" stroke-linecap="square" stroke-linejoin="round"/>
</g>
<rect x="39.2031" y="0.790527" width="65.2031" height="26.1354" rx="13.0677" fill="#9BD050"/>
<path d="M58.3472 11.2045C59.2097 11.2045 59.9872 11.407 60.6798 11.8121C61.3724 12.2172 61.9147 12.7726 62.3068 13.4782C62.7119 14.1708 62.9144 14.9549 62.9144 15.8304C62.9144 16.706 62.6988 17.5096 62.2676 18.2414C61.8494 18.9732 61.2548 19.5547 60.4838 19.986C59.7128 20.4041 58.8438 20.6132 57.8768 20.6132C56.9751 20.6132 56.1649 20.4237 55.4462 20.0448C54.7275 19.6658 54.159 19.1627 53.7409 18.5355C53.3227 17.9082 53.0744 17.2287 52.996 16.4969H55.799C55.8513 16.8628 56.0669 17.2091 56.4459 17.5358C56.8379 17.8625 57.3084 18.0258 57.8572 18.0258C58.5237 18.0258 59.066 17.8167 59.4841 17.3986C59.9023 16.9673 60.1114 16.4446 60.1114 15.8304C60.1114 15.2032 59.9023 14.6739 59.4841 14.2427C59.066 13.8115 58.5237 13.5959 57.8572 13.5959C56.8902 13.5959 56.1911 14.0271 55.7598 14.8896H53.29L54.1721 6.6373H61.9343V9.22471H56.4459L56.1911 11.8121C56.7922 11.407 57.5109 11.2045 58.3472 11.2045ZM67.1914 12.4982C66.6425 12.4982 66.1329 12.3675 65.6625 12.1061C65.2051 11.8317 64.8327 11.4593 64.5452 10.9888C64.2707 10.5184 64.1335 10.0022 64.1335 9.44032C64.1335 8.87841 64.2707 8.36224 64.5452 7.8918C64.8327 7.42136 65.2051 7.05547 65.6625 6.79411C66.1329 6.51969 66.6425 6.38248 67.1914 6.38248C67.7402 6.38248 68.2433 6.51969 68.7007 6.79411C69.1711 7.05547 69.5436 7.42136 69.818 7.8918C70.1055 8.36224 70.2492 8.87841 70.2492 9.44032C70.2492 10.0022 70.1055 10.5184 69.818 10.9888C69.5436 11.4593 69.1711 11.8317 68.7007 12.1061C68.2433 12.3675 67.7402 12.4982 67.1914 12.4982ZM67.3874 20.3584H65.3488L73.8559 6.6373H75.8945L67.3874 20.3584ZM67.1914 10.832C67.5442 10.832 67.8448 10.7079 68.093 10.4596C68.3544 10.1983 68.4851 9.85849 68.4851 9.44032C68.4851 9.02216 68.3544 8.68893 68.093 8.44064C67.8448 8.17929 67.5442 8.04861 67.1914 8.04861C66.8385 8.04861 66.5315 8.17929 66.2701 8.44064C66.0218 8.68893 65.8977 9.02216 65.8977 9.44032C65.8977 9.85849 66.0218 10.1983 66.2701 10.4596C66.5315 10.7079 66.8385 10.832 67.1914 10.832ZM74.0519 20.6132C73.5031 20.6132 72.9934 20.4825 72.523 20.2212C72.0656 19.9468 71.6932 19.5743 71.4057 19.1039C71.1313 18.6335 70.9941 18.1173 70.9941 17.5554C70.9941 16.9935 71.1313 16.4773 71.4057 16.0068C71.6932 15.5364 72.0656 15.1705 72.523 14.9092C72.9934 14.6347 73.5031 14.4975 74.0519 14.4975C74.6008 14.4975 75.1039 14.6347 75.5612 14.9092C76.0317 15.1705 76.4041 15.5364 76.6785 16.0068C76.966 16.4773 77.1098 16.9935 77.1098 17.5554C77.1098 18.1173 76.966 18.6335 76.6785 19.1039C76.4041 19.5743 76.0317 19.9468 75.5612 20.2212C75.1039 20.4825 74.6008 20.6132 74.0519 20.6132ZM74.0519 18.9471C74.4048 18.9471 74.7053 18.8229 74.9536 18.5747C75.2149 18.3133 75.3456 17.9735 75.3456 17.5554C75.3456 17.1372 75.2149 16.804 74.9536 16.5557C74.7053 16.2943 74.4048 16.1637 74.0519 16.1637C73.6991 16.1637 73.392 16.2943 73.1306 16.5557C72.8824 16.804 72.7582 17.1372 72.7582 17.5554C72.7582 17.9735 72.8824 18.3133 73.1306 18.5747C73.392 18.8229 73.6991 18.9471 74.0519 18.9471Z" fill="white"/>
<path fill-rule="evenodd" clip-rule="evenodd" d="M92.0195 8.14128H83.3076V6.50781H92.0195V8.14128ZM83.4228 10.6148H92.0195V12.2483H85.0563V14.3484H89.4059C91.3004 14.3484 92.8362 15.8842 92.8362 17.7787C92.8362 19.6732 91.3004 21.209 89.4059 21.209H83.4228V10.6148ZM85.0563 15.9819V19.5755H89.4059C90.3983 19.5755 91.2028 18.7711 91.2028 17.7787C91.2028 16.7864 90.3983 15.9819 89.4059 15.9819H85.0563Z" fill="white"/>
<defs>
<linearGradient id="paint0_linear_10906_112298" x1="59.9092" y1="10.6061" x2="-1.62373" y2="64.2432" gradientUnits="userSpaceOnUse">
<stop stop-color="#B4E76C"/>
<stop offset="1" stop-color="#89C138"/>
</linearGradient>
<linearGradient id="paint1_linear_10906_112298" x1="70.6606" y1="19.1133" x2="10.9505" y2="71.4842" gradientUnits="userSpaceOnUse">
<stop stop-color="#B4E76C"/>
<stop offset="1" stop-color="#89C138"/>
</linearGradient>
<clipPath id="clip0_10906_112298">
<rect width="72.8491" height="92.8687" fill="white" transform="translate(12.8281 15.8218)"/>
</clipPath>
</defs>
</svg>
