<svg width="100" height="109" viewBox="0 0 100 109" fill="none" xmlns="http://www.w3.org/2000/svg">
<g clip-path="url(#clip0_10906_112400)">
<rect x="30.7656" y="14.0234" width="3.79161" height="28.2612" fill="#D7D7D7"/>
<rect x="46.0938" y="5.39844" width="3.79161" height="28.2612" fill="#D7D7D7"/>
<path d="M27.4844 12.5312L48.6184 0.329539L51.9119 2.78865L48.6184 6.05866L30.8464 20.5405L27.4844 18.2604L27.4844 12.5312Z" fill="#878787"/>
<path d="M27.4844 12.5312L48.6184 0.329539L51.9119 2.78865L48.6184 6.05866L30.8464 20.5405L27.4844 18.2604L27.4844 12.5312Z" fill="url(#paint0_linear_10906_112400)" fill-opacity="0.8"/>
<rect width="24.4034" height="5.72912" transform="matrix(0.866025 -0.5 2.20305e-08 1 30.7656 14.9141)" fill="url(#paint1_linear_10906_112400)"/>
<path d="M38.7656 75.3622L38.7656 50.8594L57.3332 52.3908L38.7656 75.3622Z" fill="#F3F4F6"/>
<path d="M18.8984 95.44L18.8984 49.9151C18.8984 46.0874 21.3257 41.583 24.3198 39.8543L54.1375 22.6391C55.7574 21.7038 57.2114 21.7727 58.2049 22.6391L72.7999 32.9923L59.5588 48.2105L59.5588 71.9647C59.5588 75.7924 57.1316 80.2967 54.1375 82.0254L40.6062 89.8377L35.581 108.129L20.8062 99.6168C20.7272 99.5764 20.6502 99.532 20.5752 99.4837C19.542 98.8183 18.8984 97.411 18.8984 95.44Z" fill="#C4C4C4"/>
<path d="M18.8984 95.44L18.8984 49.9151C18.8984 46.0874 21.3257 41.583 24.3198 39.8543L54.1375 22.6391C55.7574 21.7038 57.2114 21.7727 58.2049 22.6391L72.7999 32.9923L59.5588 48.2105L59.5588 71.9647C59.5588 75.7924 57.1316 80.2967 54.1375 82.0254L40.6062 89.8377L35.581 108.129L20.8062 99.6168C20.7272 99.5764 20.6502 99.532 20.5752 99.4837C19.542 98.8183 18.8984 97.411 18.8984 95.44Z" fill="#E7C6C6"/>
<path d="M18.8984 95.44L18.8984 49.9151C18.8984 46.0874 21.3257 41.583 24.3198 39.8543L54.1375 22.6391C55.7574 21.7038 57.2114 21.7727 58.2049 22.6391L72.7999 32.9923L59.5588 48.2105L59.5588 71.9647C59.5588 75.7924 57.1316 80.2967 54.1375 82.0254L40.6062 89.8377L35.581 108.129L20.8062 99.6168C20.7272 99.5764 20.6502 99.532 20.5752 99.4837C19.542 98.8183 18.8984 97.411 18.8984 95.44Z" fill="url(#paint2_linear_10906_112400)" fill-opacity="0.75"/>
<path d="M18.8984 95.44L18.8984 49.9151C18.8984 46.0874 21.3257 41.583 24.3198 39.8543L54.1375 22.6391C55.7574 21.7038 57.2114 21.7727 58.2049 22.6391L72.7999 32.9923L59.5588 48.2105L59.5588 71.9647C59.5588 75.7924 57.1316 80.2967 54.1375 82.0254L40.6062 89.8377L35.581 108.129L20.8062 99.6168C20.7272 99.5764 20.6502 99.532 20.5752 99.4837C19.542 98.8183 18.8984 97.411 18.8984 95.44Z" fill="#B54242"/>
<path d="M18.8984 95.44L18.8984 49.9151C18.8984 46.0874 21.3257 41.583 24.3198 39.8543L54.1375 22.6391C55.7574 21.7038 57.2114 21.7727 58.2049 22.6391L72.7999 32.9923L59.5588 48.2105L59.5588 71.9647C59.5588 75.7924 57.1316 80.2967 54.1375 82.0254L40.6062 89.8377L35.581 108.129L20.8062 99.6168C20.7272 99.5764 20.6502 99.532 20.5752 99.4837C19.542 98.8183 18.8984 97.411 18.8984 95.44Z" fill="url(#paint3_linear_10906_112400)" fill-opacity="0.75"/>
<path d="M74.3792 80.5125L74.3792 36.971C74.3792 33.1433 71.9519 31.4417 68.9578 33.1703L39.1401 50.3856C36.146 52.1143 33.7188 56.6186 33.7188 60.4463L33.7188 103.988C33.7188 107.816 36.146 109.517 39.1401 107.788L68.9578 90.5733C71.9519 88.8446 74.3792 84.3402 74.3792 80.5125Z" fill="#C4C4C4"/>
<path d="M74.3792 80.5125L74.3792 36.971C74.3792 33.1433 71.9519 31.4417 68.9578 33.1703L39.1401 50.3856C36.146 52.1143 33.7188 56.6186 33.7188 60.4463L33.7188 103.988C33.7188 107.816 36.146 109.517 39.1401 107.788L68.9578 90.5733C71.9519 88.8446 74.3792 84.3402 74.3792 80.5125Z" fill="#E7C6C6"/>
<path d="M74.3792 80.5125L74.3792 36.971C74.3792 33.1433 71.9519 31.4417 68.9578 33.1703L39.1401 50.3856C36.146 52.1143 33.7188 56.6186 33.7188 60.4463L33.7188 103.988C33.7188 107.816 36.146 109.517 39.1401 107.788L68.9578 90.5733C71.9519 88.8446 74.3792 84.3402 74.3792 80.5125Z" fill="url(#paint4_linear_10906_112400)" fill-opacity="0.75"/>
<path fill-rule="evenodd" clip-rule="evenodd" d="M25.5156 99.446L25.5156 54.3659C25.5156 50.5382 27.9429 46.0338 30.937 44.3052L60.7546 27.09C61.7923 26.4908 62.762 26.3037 63.586 26.4744L64.9705 27.4513C64.2589 27.4233 63.4608 27.638 62.6178 28.1248L32.8001 45.34C29.806 47.0686 27.3788 51.573 27.3788 55.4007L27.3788 100.481C27.3788 101.969 27.7455 103.135 28.3697 103.904C26.6705 103.715 25.5156 102.086 25.5156 99.446Z" fill="#D7D7D7"/>
<path d="M70.0041 45.4175C70.0041 48.1965 68.0531 51.5759 65.6463 52.9654C63.2396 54.355 61.2885 53.2285 61.2885 50.4494C61.2885 47.6704 63.2396 44.291 65.6463 42.9015C68.0531 41.5119 70.0041 42.6384 70.0041 45.4175Z" fill="#F3F4F6" fill-opacity="0.3"/>
<path d="M38.0469 64.438L51.2917 51.1891L56.1432 63.6818L42.8984 76.9308L38.0469 64.438Z" fill="#F3F4F6" fill-opacity="0.3"/>
<path d="M57.9691 70.8165L69.5331 69.8804L66.9276 79.0931C65.6342 83.6666 61.852 87.6777 58.5838 87.9423C55.4685 88.1944 53.9756 84.9369 55.2085 80.5775L57.9691 70.8165Z" fill="#F3F4F6" fill-opacity="0.3"/>
<path d="M27.4844 12.5078L30.7749 14.8812V20.5551L27.4844 18.1818V12.5078Z" fill="black" fill-opacity="0.05"/>
</g>
<rect x="37.3125" y="3.10156" width="62.3116" height="24.8744" rx="12.4372" fill="#9BD050"/>
<path d="M55.5331 13.3268C56.3539 13.3268 57.0939 13.5196 57.7531 13.9051C58.4123 14.2907 58.9284 14.8193 59.3015 15.4909C59.6871 16.15 59.8799 16.8963 59.8799 17.7296C59.8799 18.5629 59.6747 19.3278 59.2642 20.0242C58.8662 20.7207 58.3003 21.2742 57.5665 21.6846C56.8327 22.0826 56.0057 22.2816 55.0853 22.2816C54.2272 22.2816 53.456 22.1012 52.772 21.7406C52.088 21.3799 51.5469 20.9011 51.1489 20.3041C50.751 19.7071 50.5146 19.0604 50.44 18.3639H53.1078C53.1576 18.7121 53.3628 19.0417 53.7234 19.3526C54.0966 19.6636 54.5443 19.819 55.0667 19.819C55.701 19.819 56.2171 19.62 56.6151 19.222C57.0131 18.8116 57.2121 18.3141 57.2121 17.7296C57.2121 17.1326 57.0131 16.6289 56.6151 16.2184C56.2171 15.808 55.701 15.6028 55.0667 15.6028C54.1463 15.6028 53.4809 16.0132 53.0705 16.8341H50.7199L51.5594 8.97999H58.9471V11.4426H53.7234L53.4809 13.9051C54.053 13.5196 54.7371 13.3268 55.5331 13.3268ZM63.9505 14.5581C63.4281 14.5581 62.9431 14.4337 62.4953 14.185C62.06 13.9238 61.7056 13.5693 61.4319 13.1216C61.1708 12.6738 61.0402 12.1826 61.0402 11.6478C61.0402 11.113 61.1708 10.6217 61.4319 10.174C61.7056 9.72622 62.06 9.37798 62.4953 9.12924C62.9431 8.86806 63.4281 8.73747 63.9505 8.73747C64.4728 8.73747 64.9517 8.86806 65.387 9.12924C65.8347 9.37798 66.1892 9.72622 66.4504 10.174C66.724 10.6217 66.8608 11.113 66.8608 11.6478C66.8608 12.1826 66.724 12.6738 66.4504 13.1216C66.1892 13.5693 65.8347 13.9238 65.387 14.185C64.9517 14.4337 64.4728 14.5581 63.9505 14.5581ZM64.137 22.0391H62.1968L70.2935 8.97999H72.2337L64.137 22.0391ZM63.9505 12.9723C64.2863 12.9723 64.5723 12.8542 64.8086 12.6179C65.0574 12.3691 65.1818 12.0458 65.1818 11.6478C65.1818 11.2498 65.0574 10.9326 64.8086 10.6963C64.5723 10.4476 64.2863 10.3232 63.9505 10.3232C63.6147 10.3232 63.3224 10.4476 63.0737 10.6963C62.8373 10.9326 62.7192 11.2498 62.7192 11.6478C62.7192 12.0458 62.8373 12.3691 63.0737 12.6179C63.3224 12.8542 63.6147 12.9723 63.9505 12.9723ZM70.48 22.2816C69.9576 22.2816 69.4726 22.1572 69.0249 21.9085C68.5896 21.6473 68.2351 21.2928 67.9615 20.8451C67.7003 20.3974 67.5697 19.9061 67.5697 19.3713C67.5697 18.8365 67.7003 18.3452 67.9615 17.8975C68.2351 17.4497 68.5896 17.1015 69.0249 16.8527C69.4726 16.5916 69.9576 16.461 70.48 16.461C71.0024 16.461 71.4812 16.5916 71.9165 16.8527C72.3642 17.1015 72.7187 17.4497 72.9799 17.8975C73.2535 18.3452 73.3903 18.8365 73.3903 19.3713C73.3903 19.9061 73.2535 20.3974 72.9799 20.8451C72.7187 21.2928 72.3642 21.6473 71.9165 21.9085C71.4812 22.1572 71.0024 22.2816 70.48 22.2816ZM70.48 20.6958C70.8158 20.6958 71.1019 20.5777 71.3382 20.3414C71.5869 20.0926 71.7113 19.7693 71.7113 19.3713C71.7113 18.9733 71.5869 18.6561 71.3382 18.4198C71.1019 18.1711 70.8158 18.0467 70.48 18.0467C70.1442 18.0467 69.8519 18.1711 69.6032 18.4198C69.3669 18.6561 69.2487 18.9733 69.2487 19.3713C69.2487 19.7693 69.3669 20.0926 69.6032 20.3414C69.8519 20.5777 70.1442 20.6958 70.48 20.6958Z" fill="white"/>
<path fill-rule="evenodd" clip-rule="evenodd" d="M87.835 10.0976H79.5435V8.54297H87.835V10.0976ZM79.6531 12.4518H87.835V14.0065H81.2078V16.0053H85.3476C87.1506 16.0053 88.6123 17.467 88.6123 19.2701C88.6123 21.0731 87.1506 22.5348 85.3476 22.5348H79.6531V12.4518ZM81.2078 17.5599V20.9802H85.3476C86.292 20.9802 87.0577 20.2145 87.0577 19.2701C87.0577 18.3256 86.292 17.5599 85.3476 17.5599H81.2078Z" fill="white"/>
<defs>
<linearGradient id="paint0_linear_10906_112400" x1="27.4844" y1="22.4815" x2="49.8177" y2="-3.74756" gradientUnits="userSpaceOnUse">
<stop stop-color="#D8D8D8"/>
<stop offset="1" stop-color="#F0F0F0"/>
</linearGradient>
<linearGradient id="paint1_linear_10906_112400" x1="-2.04438e-06" y1="5.72912" x2="12.7837" y2="-9.79466" gradientUnits="userSpaceOnUse">
<stop stop-color="#D8D8D8"/>
<stop offset="1" stop-color="#F0F0F0"/>
</linearGradient>
<linearGradient id="paint2_linear_10906_112400" x1="48.2672" y1="7.06314" x2="-31.6119" y2="64.5911" gradientUnits="userSpaceOnUse">
<stop stop-color="#FFA877"/>
<stop offset="1" stop-color="#FF0707"/>
</linearGradient>
<linearGradient id="paint3_linear_10906_112400" x1="59.2124" y1="22.8356" x2="-23.3137" y2="109.856" gradientUnits="userSpaceOnUse">
<stop stop-color="#FFA877"/>
<stop offset="1" stop-color="#FF0707"/>
</linearGradient>
<linearGradient id="paint4_linear_10906_112400" x1="63.0906" y1="17.5944" x2="-16.7886" y2="75.1223" gradientUnits="userSpaceOnUse">
<stop stop-color="#FFA877"/>
<stop offset="1" stop-color="#FF0707"/>
</linearGradient>
<clipPath id="clip0_10906_112400">
<rect width="57.7442" height="108.695" fill="white" transform="translate(17.7734 0.125)"/>
</clipPath>
</defs>
</svg>
