<svg width="105" height="112" viewBox="0 0 105 112" fill="none" xmlns="http://www.w3.org/2000/svg">
<g clip-path="url(#clip0_10906_112346)">
<path d="M79.355 65.723C81.562 67.5901 82.795 79.3984 83.0539 81.5658L83.0538 65.723L79.355 65.723Z" fill="#9B9B9B"/>
<path d="M79.355 65.723C81.562 67.5901 82.795 79.3984 83.0539 81.5658L83.0538 65.723L79.355 65.723Z" fill="#DFDFDF"/>
<path d="M79.355 65.723C81.562 67.5901 82.795 79.3984 83.0539 81.5658L83.0538 65.723L79.355 65.723Z" fill="url(#paint0_linear_10906_112346)" fill-opacity="0.9"/>
<path d="M39.8055 82.3883C39.8199 79.9424 41.07 67.826 43.5558 65.723L39.8055 65.723L39.8055 82.3883Z" fill="#9B9B9B"/>
<path d="M39.8055 82.3883C39.8199 79.9424 41.07 67.826 43.5558 65.723L39.8055 65.723L39.8055 82.3883Z" fill="#DFDFDF"/>
<path d="M39.8055 82.3883C39.8199 79.9424 41.07 67.826 43.5558 65.723L39.8055 65.723L39.8055 82.3883Z" fill="url(#paint1_linear_10906_112346)" fill-opacity="0.9"/>
<path d="M46.1466 91.2695C54.6014 96.1509 68.3095 96.1509 76.7643 91.2695C81.3731 88.6086 83.4696 85.0466 83.0539 81.5658C82.795 79.3984 81.562 67.5901 79.355 65.723L43.5558 65.723C41.07 67.826 39.8199 79.9424 39.8055 82.3883L39.8055 82.4735C39.8242 85.6582 41.9379 88.8396 46.1466 91.2695Z" fill="#9B9B9B"/>
<path d="M46.1466 91.2695C54.6014 96.1509 68.3095 96.1509 76.7643 91.2695C81.3731 88.6086 83.4696 85.0466 83.0539 81.5658C82.795 79.3984 81.562 67.5901 79.355 65.723L43.5558 65.723C41.07 67.826 39.8199 79.9424 39.8055 82.3883L39.8055 82.4735C39.8242 85.6582 41.9379 88.8396 46.1466 91.2695Z" fill="#DFDFDF"/>
<path d="M46.1466 91.2695C54.6014 96.1509 68.3095 96.1509 76.7643 91.2695C81.3731 88.6086 83.4696 85.0466 83.0539 81.5658C82.795 79.3984 81.562 67.5901 79.355 65.723L43.5558 65.723C41.07 67.826 39.8199 79.9424 39.8055 82.3883L39.8055 82.4735C39.8242 85.6582 41.9379 88.8396 46.1466 91.2695Z" fill="url(#paint2_linear_10906_112346)" fill-opacity="0.9"/>
<path d="M77.8155 75.0972C68.8715 80.261 54.3704 80.261 45.4264 75.0972C40.9743 72.5267 38.7383 69.1613 38.7186 65.7923C38.7184 65.7623 38.7184 65.7322 38.7186 65.7022C38.7337 63.1147 40.0562 60.5294 42.6858 58.3047C43.4801 57.6327 44.3936 56.9936 45.4264 56.3973C54.3704 51.2335 68.8715 51.2335 77.8155 56.3973C78.8483 56.9936 79.7619 57.6327 80.5561 58.3047C82.8908 60.2798 84.1951 62.5393 84.4689 64.8321C84.9087 68.5142 82.6909 72.2824 77.8155 75.0972Z" fill="#C4C4C4"/>
<path d="M77.8155 75.0972C68.8715 80.261 54.3704 80.261 45.4264 75.0972C40.9743 72.5267 38.7383 69.1613 38.7186 65.7923C38.7184 65.7623 38.7184 65.7322 38.7186 65.7022C38.7337 63.1147 40.0562 60.5294 42.6858 58.3047C43.4801 57.6327 44.3936 56.9936 45.4264 56.3973C54.3704 51.2335 68.8715 51.2335 77.8155 56.3973C78.8483 56.9936 79.7619 57.6327 80.5561 58.3047C82.8908 60.2798 84.1951 62.5393 84.4689 64.8321C84.9087 68.5142 82.6909 72.2824 77.8155 75.0972Z" fill="#F4F4F2"/>
<path d="M77.8155 75.0972C68.8715 80.261 54.3704 80.261 45.4264 75.0972C40.9743 72.5267 38.7383 69.1613 38.7186 65.7923C38.7184 65.7623 38.7184 65.7322 38.7186 65.7022C38.7337 63.1147 40.0562 60.5294 42.6858 58.3047C43.4801 57.6327 44.3936 56.9936 45.4264 56.3973C54.3704 51.2335 68.8715 51.2335 77.8155 56.3973C78.8483 56.9936 79.7619 57.6327 80.5561 58.3047C82.8908 60.2798 84.1951 62.5393 84.4689 64.8321C84.9087 68.5142 82.6909 72.2824 77.8155 75.0972Z" fill="url(#paint3_linear_10906_112346)" fill-opacity="0.75"/>
<path d="M80.5561 58.3047C82.8908 60.2798 84.1951 62.5393 84.4689 64.8321L84.4689 58.3047L80.5561 58.3047Z" fill="#C4C4C4"/>
<path d="M80.5561 58.3047C82.8908 60.2798 84.1951 62.5393 84.4689 64.8321L84.4689 58.3047L80.5561 58.3047Z" fill="#F4F4F2"/>
<path d="M80.5561 58.3047C82.8908 60.2798 84.1951 62.5393 84.4689 64.8321L84.4689 58.3047L80.5561 58.3047Z" fill="url(#paint4_linear_10906_112346)" fill-opacity="0.75"/>
<path d="M38.7186 65.7022C38.7337 63.1147 40.0562 60.5294 42.6858 58.3047L38.7186 58.3047L38.7186 65.7022Z" fill="#C4C4C4"/>
<path d="M38.7186 65.7022C38.7337 63.1147 40.0562 60.5294 42.6858 58.3047L38.7186 58.3047L38.7186 65.7022Z" fill="#F4F4F2"/>
<path d="M38.7186 65.7022C38.7337 63.1147 40.0562 60.5294 42.6858 58.3047L38.7186 58.3047L38.7186 65.7022Z" fill="url(#paint5_linear_10906_112346)" fill-opacity="0.75"/>
<path d="M41.4919 105.482C35.9957 108.656 27.0846 108.656 21.5885 105.482C18.8526 103.903 17.4786 101.835 17.4664 99.7644C17.4663 99.746 17.4663 99.7275 17.4664 99.709C17.4757 98.119 18.2884 90.9712 19.9043 89.6041C20.3924 89.1912 20.9538 88.7985 21.5885 88.432C27.0846 85.2588 35.9957 85.2588 41.4919 88.432C42.1265 88.7985 42.6879 89.1912 43.176 89.6041C44.6107 90.8179 45.4122 97.7654 45.5805 99.1744C45.8507 101.437 44.4878 103.753 41.4919 105.482Z" fill="#C4C4C4"/>
<path d="M41.4919 105.482C35.9957 108.656 27.0846 108.656 21.5885 105.482C18.8526 103.903 17.4786 101.835 17.4664 99.7644C17.4663 99.746 17.4663 99.7275 17.4664 99.709C17.4757 98.119 18.2884 90.9712 19.9043 89.6041C20.3924 89.1912 20.9538 88.7985 21.5885 88.432C27.0846 85.2588 35.9957 85.2588 41.4919 88.432C42.1265 88.7985 42.6879 89.1912 43.176 89.6041C44.6107 90.8179 45.4122 97.7654 45.5805 99.1744C45.8507 101.437 44.4878 103.753 41.4919 105.482Z" fill="#F4F4F2"/>
<path d="M41.4919 105.482C35.9957 108.656 27.0846 108.656 21.5885 105.482C18.8526 103.903 17.4786 101.835 17.4664 99.7644C17.4663 99.746 17.4663 99.7275 17.4664 99.709C17.4757 98.119 18.2884 90.9712 19.9043 89.6041C20.3924 89.1912 20.9538 88.7985 21.5885 88.432C27.0846 85.2588 35.9957 85.2588 41.4919 88.432C42.1265 88.7985 42.6879 89.1912 43.176 89.6041C44.6107 90.8179 45.4122 97.7654 45.5805 99.1744C45.8507 101.437 44.4878 103.753 41.4919 105.482Z" fill="url(#paint6_linear_10906_112346)" fill-opacity="0.75"/>
<path d="M43.176 89.6041C44.6107 90.8179 45.4122 97.7654 45.5805 99.1744L45.5805 89.6041L43.176 89.6041Z" fill="#C4C4C4"/>
<path d="M43.176 89.6041C44.6107 90.8179 45.4122 97.7654 45.5805 99.1744L45.5805 89.6041L43.176 89.6041Z" fill="#F4F4F2"/>
<path d="M43.176 89.6041C44.6107 90.8179 45.4122 97.7654 45.5805 99.1744L45.5805 89.6041L43.176 89.6041Z" fill="url(#paint7_linear_10906_112346)" fill-opacity="0.75"/>
<path d="M17.4664 99.709C17.4757 98.119 18.2884 90.9712 19.9043 89.6041L17.4664 89.6041L17.4664 99.709Z" fill="#C4C4C4"/>
<path d="M17.4664 99.709C17.4757 98.119 18.2884 90.9712 19.9043 89.6041L17.4664 89.6041L17.4664 99.709Z" fill="#F4F4F2"/>
<path d="M17.4664 99.709C17.4757 98.119 18.2884 90.9712 19.9043 89.6041L17.4664 89.6041L17.4664 99.709Z" fill="url(#paint8_linear_10906_112346)" fill-opacity="0.75"/>
<circle cx="18.6999" cy="18.6999" r="18.6999" transform="matrix(0.866025 0.5 -0.866025 0.5 61.6328 39.2617)" fill="#B4B4B4"/>
<circle cx="18.6999" cy="18.6999" r="18.6999" transform="matrix(0.866025 0.5 -0.866025 0.5 61.6328 39.2617)" fill="white"/>
<circle cx="18.6999" cy="18.6999" r="18.6999" transform="matrix(0.866025 0.5 -0.866025 0.5 61.6328 39.2617)" fill="url(#paint9_linear_10906_112346)" fill-opacity="0.65"/>
<rect width="42.1304" height="6.88987" transform="matrix(0.866025 -0.5 2.20305e-08 1 13.125 34.5898)" fill="#F9987A"/>
<path d="M21.5801 95.2602C27.0762 98.4335 35.9873 98.4335 41.4835 95.2602C44.2629 93.6555 45.6368 91.5466 45.6051 89.4434L49.611 20.4102L13.125 41.4753L17.441 89.3367L17.4515 89.4446C17.4548 89.4664 17.4576 89.4882 17.4579 89.5103L17.4579 89.5146C17.4579 91.5941 18.832 93.6736 21.5801 95.2602Z" fill="#C4C4C4"/>
<path d="M21.5801 95.2602C27.0762 98.4335 35.9873 98.4335 41.4835 95.2602C44.2629 93.6555 45.6368 91.5466 45.6051 89.4434L49.611 20.4102L13.125 41.4753L17.441 89.3367L17.4515 89.4446C17.4548 89.4664 17.4576 89.4882 17.4579 89.5103L17.4579 89.5146C17.4579 91.5941 18.832 93.6736 21.5801 95.2602Z" fill="#E7C6C6"/>
<path d="M21.5801 95.2602C27.0762 98.4335 35.9873 98.4335 41.4835 95.2602C44.2629 93.6555 45.6368 91.5466 45.6051 89.4434L49.611 20.4102L13.125 41.4753L17.441 89.3367L17.4515 89.4446C17.4548 89.4664 17.4576 89.4882 17.4579 89.5103L17.4579 89.5146C17.4579 91.5941 18.832 93.6736 21.5801 95.2602Z" fill="url(#paint10_linear_10906_112346)" fill-opacity="0.75"/>
<path d="M28.8516 43.9336L43.8109 35.2968L43.8117 63.8123C43.8117 63.8123 41.8857 65.6984 37.5047 68.1223C33.1236 70.5462 29.9045 71.7555 29.9045 71.7555L28.8516 43.9336Z" fill="#F4F4F2" fill-opacity="0.45"/>
<path d="M83.0547 78.5204C83.4704 82.0012 81.3739 85.5632 76.7652 88.2241C71.3614 91.3439 63.8119 92.4698 56.8594 91.6017V81.3391C63.8119 82.2073 71.3614 81.0814 76.7652 77.9615C79.4648 76.4029 81.3024 74.5351 82.2781 72.5555C82.6924 71.7149 82.9513 70.8541 83.0547 69.9883L83.0547 78.5204Z" fill="#F4F4F2" fill-opacity="0.45"/>
</g>
<rect x="39.1328" y="0.488281" width="65.1264" height="26.0843" rx="13.0421" fill="#9BD050"/>
<path d="M58.2396 11.3943C59.1004 11.3943 59.8764 11.5964 60.5677 12.0007C61.2589 12.405 61.8002 12.9593 62.1914 13.6636C62.5957 14.3548 62.7979 15.1373 62.7979 16.0112C62.7979 16.885 62.5827 17.6871 62.1523 18.4174C61.7349 19.1478 61.1415 19.7282 60.372 20.1586C59.6025 20.5759 58.7352 20.7846 57.7701 20.7846C56.8702 20.7846 56.0616 20.5955 55.3443 20.2173C54.627 19.839 54.0596 19.3369 53.6423 18.7109C53.2249 18.0849 52.9771 17.4067 52.8989 16.6763H55.6964C55.7486 17.0415 55.9638 17.3871 56.342 17.7132C56.7333 18.0392 57.2028 18.2023 57.7506 18.2023C58.4157 18.2023 58.957 17.9936 59.3743 17.5762C59.7917 17.1458 60.0003 16.6242 60.0003 16.0112C60.0003 15.3851 59.7917 14.8569 59.3743 14.4266C58.957 13.9962 58.4157 13.781 57.7506 13.781C56.7854 13.781 56.0877 14.2114 55.6573 15.0721H53.1923L54.0727 6.83602H61.8197V9.41837H56.342L56.0877 12.0007C56.6876 11.5964 57.4049 11.3943 58.2396 11.3943ZM67.0665 12.6854C66.5187 12.6854 66.0101 12.555 65.5405 12.2942C65.0841 12.0203 64.7124 11.6486 64.4254 11.1791C64.1516 10.7095 64.0146 10.1944 64.0146 9.63356C64.0146 9.07275 64.1516 8.55759 64.4254 8.08807C64.7124 7.61855 65.0841 7.25337 65.5405 6.99253C66.0101 6.71864 66.5187 6.5817 67.0665 6.5817C67.6142 6.5817 68.1164 6.71864 68.5728 6.99253C69.0424 7.25337 69.4141 7.61855 69.6879 8.08807C69.9749 8.55759 70.1183 9.07275 70.1183 9.63356C70.1183 10.1944 69.9749 10.7095 69.6879 11.1791C69.4141 11.6486 69.0424 12.0203 68.5728 12.2942C68.1164 12.555 67.6142 12.6854 67.0665 12.6854ZM67.2621 20.5303H65.2275L73.718 6.83602H75.7525L67.2621 20.5303ZM67.0665 11.0226C67.4186 11.0226 67.7186 10.8987 67.9664 10.6509C68.2272 10.39 68.3576 10.0509 68.3576 9.63356C68.3576 9.21621 68.2272 8.88364 67.9664 8.63584C67.7186 8.375 67.4186 8.24458 67.0665 8.24458C66.7143 8.24458 66.4078 8.375 66.147 8.63584C65.8992 8.88364 65.7753 9.21621 65.7753 9.63356C65.7753 10.0509 65.8992 10.39 66.147 10.6509C66.4078 10.8987 66.7143 11.0226 67.0665 11.0226ZM73.9136 20.7846C73.3658 20.7846 72.8572 20.6542 72.3877 20.3933C71.9312 20.1194 71.5595 19.7477 71.2726 19.2782C70.9987 18.8087 70.8617 18.2935 70.8617 17.7327C70.8617 17.1719 70.9987 16.6568 71.2726 16.1872C71.5595 15.7177 71.9312 15.3525 72.3877 15.0917C72.8572 14.8178 73.3658 14.6809 73.9136 14.6809C74.4614 14.6809 74.9635 14.8178 75.42 15.0917C75.8895 15.3525 76.2612 15.7177 76.5351 16.1872C76.822 16.6568 76.9655 17.1719 76.9655 17.7327C76.9655 18.2935 76.822 18.8087 76.5351 19.2782C76.2612 19.7477 75.8895 20.1194 75.42 20.3933C74.9635 20.6542 74.4614 20.7846 73.9136 20.7846ZM73.9136 19.1217C74.2657 19.1217 74.5657 18.9978 74.8135 18.75C75.0744 18.4892 75.2048 18.1501 75.2048 17.7327C75.2048 17.3154 75.0744 16.9828 74.8135 16.735C74.5657 16.4742 74.2657 16.3437 73.9136 16.3437C73.5615 16.3437 73.255 16.4742 72.9941 16.735C72.7463 16.9828 72.6224 17.3154 72.6224 17.7327C72.6224 18.1501 72.7463 18.4892 72.9941 18.75C73.255 18.9978 73.5615 19.1217 73.9136 19.1217Z" fill="white"/>
<path fill-rule="evenodd" clip-rule="evenodd" d="M91.897 7.8246H83.2021V6.19434H91.897V7.8246ZM83.3171 10.2933H91.897V11.9236H84.9474V14.0196H89.2885C91.1793 14.0196 92.7121 15.5524 92.7121 17.4432C92.7121 19.334 91.1793 20.8667 89.2885 20.8667H83.3171V10.2933ZM84.9474 15.6499V19.2365H89.2885C90.279 19.2365 91.0818 18.4336 91.0818 17.4432C91.0818 16.4528 90.279 15.6499 89.2885 15.6499H84.9474Z" fill="white"/>
<defs>
<linearGradient id="paint0_linear_10906_112346" x1="75.2044" y1="80.4908" x2="38.9394" y2="82.3224" gradientUnits="userSpaceOnUse">
<stop stop-color="#9EC1D5" stop-opacity="0.36"/>
<stop offset="1" stop-color="#9FB1CB"/>
</linearGradient>
<linearGradient id="paint1_linear_10906_112346" x1="75.2044" y1="80.4908" x2="38.9394" y2="82.3224" gradientUnits="userSpaceOnUse">
<stop stop-color="#9EC1D5" stop-opacity="0.36"/>
<stop offset="1" stop-color="#9FB1CB"/>
</linearGradient>
<linearGradient id="paint2_linear_10906_112346" x1="75.2044" y1="80.4908" x2="38.9394" y2="82.3224" gradientUnits="userSpaceOnUse">
<stop stop-color="#9EC1D5" stop-opacity="0.36"/>
<stop offset="1" stop-color="#9FB1CB"/>
</linearGradient>
<linearGradient id="paint3_linear_10906_112346" x1="79.0937" y1="70.3722" x2="40.5449" y2="85.6333" gradientUnits="userSpaceOnUse">
<stop stop-color="#9EC1D5" stop-opacity="0.36"/>
<stop offset="1" stop-color="#9FB1CB"/>
</linearGradient>
<linearGradient id="paint4_linear_10906_112346" x1="79.0937" y1="70.3722" x2="40.5449" y2="85.6333" gradientUnits="userSpaceOnUse">
<stop stop-color="#9EC1D5" stop-opacity="0.36"/>
<stop offset="1" stop-color="#9FB1CB"/>
</linearGradient>
<linearGradient id="paint5_linear_10906_112346" x1="79.0937" y1="70.3722" x2="40.5449" y2="85.6333" gradientUnits="userSpaceOnUse">
<stop stop-color="#9EC1D5" stop-opacity="0.36"/>
<stop offset="1" stop-color="#9FB1CB"/>
</linearGradient>
<linearGradient id="paint6_linear_10906_112346" x1="44.7471" y1="100.59" x2="15.6097" y2="112.121" gradientUnits="userSpaceOnUse">
<stop stop-color="#9EC1D5" stop-opacity="0.36"/>
<stop offset="1" stop-color="#9FB1CB"/>
</linearGradient>
<linearGradient id="paint7_linear_10906_112346" x1="44.7471" y1="100.59" x2="15.6097" y2="112.121" gradientUnits="userSpaceOnUse">
<stop stop-color="#9EC1D5" stop-opacity="0.36"/>
<stop offset="1" stop-color="#9FB1CB"/>
</linearGradient>
<linearGradient id="paint8_linear_10906_112346" x1="44.7471" y1="100.59" x2="15.6097" y2="112.121" gradientUnits="userSpaceOnUse">
<stop stop-color="#9EC1D5" stop-opacity="0.36"/>
<stop offset="1" stop-color="#9FB1CB"/>
</linearGradient>
<linearGradient id="paint9_linear_10906_112346" x1="17.6379" y1="-0.359245" x2="5.85402" y2="76.0176" gradientUnits="userSpaceOnUse">
<stop stop-color="#9EC1D5" stop-opacity="0.36"/>
<stop offset="1" stop-color="#9FB1CB"/>
</linearGradient>
<linearGradient id="paint10_linear_10906_112346" x1="39.4813" y1="-5.1033" x2="-29.4685" y2="18.2893" gradientUnits="userSpaceOnUse">
<stop stop-color="#FFA877"/>
<stop offset="1" stop-color="#FF0707"/>
</linearGradient>
<clipPath id="clip0_10906_112346">
<rect width="72.1976" height="94.5025" fill="white" transform="translate(12.8203 13.543)"/>
</clipPath>
</defs>
</svg>
