<svg width="100" height="107" viewBox="0 0 100 107" fill="none" xmlns="http://www.w3.org/2000/svg">
<path d="M40.3359 69.4141C39.0548 68.6746 38.4065 67.7081 38.3909 66.7388C38.3905 66.7149 38.3905 66.691 38.3909 66.6671C38.4065 65.6979 39.0548 64.7314 40.3359 63.9918L58.8221 53.3196C61.4158 51.8222 65.6209 51.8222 68.2145 53.3196L86.7008 63.9918C87.9833 64.7322 88.6316 65.7001 88.6458 66.6705C88.6603 67.6625 88.0119 68.6572 86.7008 69.4141L68.2145 80.0864C65.6209 81.5837 61.4157 81.5837 58.8221 80.0864L40.3359 69.4141Z" fill="white"/>
<path d="M40.3359 69.4141C39.0548 68.6746 38.4065 67.7081 38.3909 66.7388C38.3905 66.7149 38.3905 66.691 38.3909 66.6671C38.4065 65.6979 39.0548 64.7314 40.3359 63.9918L58.8221 53.3196C61.4158 51.8222 65.6209 51.8222 68.2145 53.3196L86.7008 63.9918C87.9833 64.7322 88.6316 65.7001 88.6458 66.6705C88.6603 67.6625 88.0119 68.6572 86.7008 69.4141L68.2145 80.0864C65.6209 81.5837 61.4157 81.5837 58.8221 80.0864L40.3359 69.4141Z" fill="url(#paint0_linear_10906_112449)" fill-opacity="0.6"/>
<path d="M40.3359 63.9918L58.8221 53.3196C61.4158 51.8222 65.6209 51.8222 68.2145 53.3196L86.7008 63.9918C87.9833 64.7322 88.6316 65.7001 88.6458 66.6705L88.6495 43.9932L38.3909 43.9932L38.3909 66.6671C38.4065 65.6979 39.0548 64.7314 40.3359 63.9918Z" fill="white"/>
<path d="M40.3359 63.9918L58.8221 53.3196C61.4158 51.8222 65.6209 51.8222 68.2145 53.3196L86.7008 63.9918C87.9833 64.7322 88.6316 65.7001 88.6458 66.6705L88.6495 43.9932L38.3909 43.9932L38.3909 66.6671C38.4065 65.6979 39.0548 64.7314 40.3359 63.9918Z" fill="url(#paint1_linear_10906_112449)" fill-opacity="0.6"/>
<path d="M40.334 46.7027C37.7419 45.2063 37.7419 42.7801 40.334 41.2836L58.8259 30.6081C61.418 29.1117 65.6206 29.1117 68.2127 30.6081L86.7046 41.2836C89.2967 42.7801 89.2967 45.2063 86.7046 46.7027L68.2127 57.3782C65.6206 58.8746 61.418 58.8746 58.8259 57.3782L40.334 46.7027Z" fill="white"/>
<path d="M40.334 46.7027C37.7419 45.2063 37.7419 42.7801 40.334 41.2836L58.8259 30.6081C61.418 29.1117 65.6206 29.1117 68.2127 30.6081L86.7046 41.2836C89.2967 42.7801 89.2967 45.2063 86.7046 46.7027L68.2127 57.3782C65.6206 58.8746 61.418 58.8746 58.8259 57.3782L40.334 46.7027Z" fill="url(#paint2_linear_10906_112449)" fill-opacity="0.3"/>
<path d="M55.2656 41.3773C56.5535 42.1208 57.202 43.0938 57.2109 44.0683C57.22 45.0564 56.5715 46.0461 55.2656 46.8001C52.6718 48.2975 48.4663 48.2975 45.8724 46.8001C44.5665 46.0461 43.9181 45.0564 43.9271 44.0683C43.9361 43.0938 44.5845 42.1208 45.8724 41.3773C48.4663 39.8799 52.6718 39.8799 55.2656 41.3773Z" fill="#C4C4C4"/>
<path d="M55.2656 41.3773C56.5535 42.1208 57.202 43.0938 57.2109 44.0683C57.22 45.0564 56.5715 46.0461 55.2656 46.8001C52.6718 48.2975 48.4663 48.2975 45.8724 46.8001C44.5665 46.0461 43.9181 45.0564 43.9271 44.0683C43.9361 43.0938 44.5845 42.1208 45.8724 41.3773C48.4663 39.8799 52.6718 39.8799 55.2656 41.3773Z" fill="#B54242"/>
<path d="M55.2656 41.3773C56.5535 42.1208 57.202 43.0938 57.2109 44.0683C57.22 45.0564 56.5715 46.0461 55.2656 46.8001C52.6718 48.2975 48.4663 48.2975 45.8724 46.8001C44.5665 46.0461 43.9181 45.0564 43.9271 44.0683C43.9361 43.0938 44.5845 42.1208 45.8724 41.3773C48.4663 39.8799 52.6718 39.8799 55.2656 41.3773Z" fill="url(#paint3_linear_10906_112449)" fill-opacity="0.75"/>
<path d="M45.8724 41.3773C48.4663 39.8799 52.6718 39.8799 55.2656 41.3773C56.5535 42.1208 57.202 43.0938 57.2109 44.0683L57.1951 39.528L43.9271 39.528L43.9271 44.0683C43.9361 43.0938 44.5845 42.1208 45.8724 41.3773Z" fill="#C4C4C4"/>
<path d="M45.8724 41.3773C48.4663 39.8799 52.6718 39.8799 55.2656 41.3773C56.5535 42.1208 57.202 43.0938 57.2109 44.0683L57.1951 39.528L43.9271 39.528L43.9271 44.0683C43.9361 43.0938 44.5845 42.1208 45.8724 41.3773Z" fill="#B54242"/>
<path d="M45.8724 41.3773C48.4663 39.8799 52.6718 39.8799 55.2656 41.3773C56.5535 42.1208 57.202 43.0938 57.2109 44.0683L57.1951 39.528L43.9271 39.528L43.9271 44.0683C43.9361 43.0938 44.5845 42.1208 45.8724 41.3773Z" fill="url(#paint4_linear_10906_112449)" fill-opacity="0.75"/>
<circle cx="5.42306" cy="5.42306" r="5.42306" transform="matrix(0.866041 -0.499972 0.866041 0.499972 41.1797 39.5791)" fill="#C4C4C4"/>
<circle cx="5.42306" cy="5.42306" r="5.42306" transform="matrix(0.866041 -0.499972 0.866041 0.499972 41.1797 39.5791)" fill="#E7C6C6"/>
<circle cx="5.42306" cy="5.42306" r="5.42306" transform="matrix(0.866041 -0.499972 0.866041 0.499972 41.1797 39.5791)" fill="url(#paint5_linear_10906_112449)" fill-opacity="0.75"/>
<path d="M68.2031 35.182C69.491 35.9255 70.1395 36.8984 70.1484 37.873C70.1575 38.8611 69.509 39.8508 68.2031 40.6048C65.6093 42.1022 61.4038 42.1022 58.8099 40.6048C57.504 39.8508 56.8556 38.8611 56.8646 37.873C56.8736 36.8984 57.522 35.9255 58.8099 35.182C61.4038 33.6845 65.6093 33.6845 68.2031 35.182Z" fill="#C4C4C4"/>
<path d="M68.2031 35.182C69.491 35.9255 70.1395 36.8984 70.1484 37.873C70.1575 38.8611 69.509 39.8508 68.2031 40.6048C65.6093 42.1022 61.4038 42.1022 58.8099 40.6048C57.504 39.8508 56.8556 38.8611 56.8646 37.873C56.8736 36.8984 57.522 35.9255 58.8099 35.182C61.4038 33.6845 65.6093 33.6845 68.2031 35.182Z" fill="#B54242"/>
<path d="M68.2031 35.182C69.491 35.9255 70.1395 36.8984 70.1484 37.873C70.1575 38.8611 69.509 39.8508 68.2031 40.6048C65.6093 42.1022 61.4038 42.1022 58.8099 40.6048C57.504 39.8508 56.8556 38.8611 56.8646 37.873C56.8736 36.8984 57.522 35.9255 58.8099 35.182C61.4038 33.6845 65.6093 33.6845 68.2031 35.182Z" fill="url(#paint6_linear_10906_112449)" fill-opacity="0.75"/>
<path d="M58.8099 35.182C61.4038 33.6845 65.6093 33.6845 68.2031 35.182C69.491 35.9255 70.1395 36.8984 70.1484 37.873L70.1326 33.3327L56.8646 33.3327L56.8646 37.873C56.8736 36.8984 57.522 35.9255 58.8099 35.182Z" fill="#C4C4C4"/>
<path d="M58.8099 35.182C61.4038 33.6845 65.6093 33.6845 68.2031 35.182C69.491 35.9255 70.1395 36.8984 70.1484 37.873L70.1326 33.3327L56.8646 33.3327L56.8646 37.873C56.8736 36.8984 57.522 35.9255 58.8099 35.182Z" fill="#B54242"/>
<path d="M58.8099 35.182C61.4038 33.6845 65.6093 33.6845 68.2031 35.182C69.491 35.9255 70.1395 36.8984 70.1484 37.873L70.1326 33.3327L56.8646 33.3327L56.8646 37.873C56.8736 36.8984 57.522 35.9255 58.8099 35.182Z" fill="url(#paint7_linear_10906_112449)" fill-opacity="0.75"/>
<circle cx="5.42306" cy="5.42306" r="5.42306" transform="matrix(0.866041 -0.499972 0.866041 0.499972 54.1172 33.3838)" fill="#C4C4C4"/>
<circle cx="5.42306" cy="5.42306" r="5.42306" transform="matrix(0.866041 -0.499972 0.866041 0.499972 54.1172 33.3838)" fill="#E7C6C6"/>
<circle cx="5.42306" cy="5.42306" r="5.42306" transform="matrix(0.866041 -0.499972 0.866041 0.499972 54.1172 33.3838)" fill="url(#paint8_linear_10906_112449)" fill-opacity="0.75"/>
<path d="M81.1562 41.3773C82.4442 42.1208 83.0926 43.0938 83.1015 44.0683C83.1106 45.0564 82.4622 46.0461 81.1562 46.8001C78.5624 48.2975 74.3569 48.2975 71.7631 46.8001C70.4571 46.0461 69.8087 45.0564 69.8178 44.0683C69.8267 43.0938 70.4751 42.1208 71.7631 41.3773C74.3569 39.8799 78.5624 39.8799 81.1562 41.3773Z" fill="white"/>
<path d="M81.1562 41.3773C82.4442 42.1208 83.0926 43.0938 83.1015 44.0683C83.1106 45.0564 82.4622 46.0461 81.1562 46.8001C78.5624 48.2975 74.3569 48.2975 71.7631 46.8001C70.4571 46.0461 69.8087 45.0564 69.8178 44.0683C69.8267 43.0938 70.4751 42.1208 71.7631 41.3773C74.3569 39.8799 78.5624 39.8799 81.1562 41.3773Z" fill="url(#paint9_linear_10906_112449)" fill-opacity="0.6"/>
<path d="M71.7631 41.3773C74.3569 39.8799 78.5624 39.8799 81.1562 41.3773C82.4442 42.1208 83.0926 43.0938 83.1015 44.0683L83.0857 39.528L69.8178 39.528L69.8178 44.0683C69.8267 43.0938 70.4751 42.1208 71.7631 41.3773Z" fill="white"/>
<path d="M71.7631 41.3773C74.3569 39.8799 78.5624 39.8799 81.1562 41.3773C82.4442 42.1208 83.0926 43.0938 83.1015 44.0683L83.0857 39.528L69.8178 39.528L69.8178 44.0683C69.8267 43.0938 70.4751 42.1208 71.7631 41.3773Z" fill="url(#paint10_linear_10906_112449)" fill-opacity="0.6"/>
<circle cx="5.42306" cy="5.42306" r="5.42306" transform="matrix(0.866041 -0.499972 0.866041 0.499972 67.0703 39.5791)" fill="white"/>
<circle cx="5.42306" cy="5.42306" r="5.42306" transform="matrix(0.866041 -0.499972 0.866041 0.499972 67.0703 39.5791)" fill="url(#paint11_linear_10906_112449)" fill-opacity="0.3"/>
<path d="M68.2031 48.4789C69.491 49.2224 70.1395 50.1953 70.1484 51.1698C70.1575 52.158 69.509 53.1477 68.2031 53.9016C65.6093 55.3991 61.4038 55.3991 58.8099 53.9016C57.504 53.1477 56.8556 52.158 56.8646 51.1698C56.8736 50.1953 57.522 49.2224 58.8099 48.4789C61.4038 46.9814 65.6093 46.9814 68.2031 48.4789Z" fill="#C4C4C4"/>
<path d="M68.2031 48.4789C69.491 49.2224 70.1395 50.1953 70.1484 51.1698C70.1575 52.158 69.509 53.1477 68.2031 53.9016C65.6093 55.3991 61.4038 55.3991 58.8099 53.9016C57.504 53.1477 56.8556 52.158 56.8646 51.1698C56.8736 50.1953 57.522 49.2224 58.8099 48.4789C61.4038 46.9814 65.6093 46.9814 68.2031 48.4789Z" fill="#B54242"/>
<path d="M68.2031 48.4789C69.491 49.2224 70.1395 50.1953 70.1484 51.1698C70.1575 52.158 69.509 53.1477 68.2031 53.9016C65.6093 55.3991 61.4038 55.3991 58.8099 53.9016C57.504 53.1477 56.8556 52.158 56.8646 51.1698C56.8736 50.1953 57.522 49.2224 58.8099 48.4789C61.4038 46.9814 65.6093 46.9814 68.2031 48.4789Z" fill="url(#paint12_linear_10906_112449)" fill-opacity="0.75"/>
<path d="M58.8099 48.4789C61.4038 46.9814 65.6093 46.9814 68.2031 48.4789C69.491 49.2224 70.1395 50.1953 70.1484 51.1698L70.1326 46.6296L56.8646 46.6296L56.8646 51.1698C56.8736 50.1953 57.522 49.2224 58.8099 48.4789Z" fill="#C4C4C4"/>
<path d="M58.8099 48.4789C61.4038 46.9814 65.6093 46.9814 68.2031 48.4789C69.491 49.2224 70.1395 50.1953 70.1484 51.1698L70.1326 46.6296L56.8646 46.6296L56.8646 51.1698C56.8736 50.1953 57.522 49.2224 58.8099 48.4789Z" fill="#B54242"/>
<path d="M58.8099 48.4789C61.4038 46.9814 65.6093 46.9814 68.2031 48.4789C69.491 49.2224 70.1395 50.1953 70.1484 51.1698L70.1326 46.6296L56.8646 46.6296L56.8646 51.1698C56.8736 50.1953 57.522 49.2224 58.8099 48.4789Z" fill="url(#paint13_linear_10906_112449)" fill-opacity="0.75"/>
<circle cx="5.42306" cy="5.42306" r="5.42306" transform="matrix(0.866041 -0.499972 0.866041 0.499972 54.1172 46.6807)" fill="#C4C4C4"/>
<circle cx="5.42306" cy="5.42306" r="5.42306" transform="matrix(0.866041 -0.499972 0.866041 0.499972 54.1172 46.6807)" fill="#E7C6C6"/>
<circle cx="5.42306" cy="5.42306" r="5.42306" transform="matrix(0.866041 -0.499972 0.866041 0.499972 54.1172 46.6807)" fill="url(#paint14_linear_10906_112449)" fill-opacity="0.75"/>
<path d="M6.9843 88.8048C5.70326 88.0652 5.05494 87.0987 5.03935 86.1294C5.03897 86.1055 5.03897 86.0817 5.03935 86.0578C5.05494 85.0885 5.70326 84.122 6.9843 83.3824L25.4706 72.7102C28.0642 71.2128 32.2693 71.2128 34.863 72.7102L53.3492 83.3824C54.6317 84.1228 55.2801 85.0907 55.2942 86.0611C55.3087 87.0531 54.6604 88.0478 53.3492 88.8048L34.863 99.477C32.2693 100.974 28.0642 100.974 25.4705 99.477L6.9843 88.8048Z" fill="#C4C4C4"/>
<path d="M6.9843 88.8048C5.70326 88.0652 5.05494 87.0987 5.03935 86.1294C5.03897 86.1055 5.03897 86.0817 5.03935 86.0578C5.05494 85.0885 5.70326 84.122 6.9843 83.3824L25.4706 72.7102C28.0642 71.2128 32.2693 71.2128 34.863 72.7102L53.3492 83.3824C54.6317 84.1228 55.2801 85.0907 55.2942 86.0611C55.3087 87.0531 54.6604 88.0478 53.3492 88.8048L34.863 99.477C32.2693 100.974 28.0642 100.974 25.4705 99.477L6.9843 88.8048Z" fill="white"/>
<path d="M6.9843 88.8048C5.70326 88.0652 5.05494 87.0987 5.03935 86.1294C5.03897 86.1055 5.03897 86.0817 5.03935 86.0578C5.05494 85.0885 5.70326 84.122 6.9843 83.3824L25.4706 72.7102C28.0642 71.2128 32.2693 71.2128 34.863 72.7102L53.3492 83.3824C54.6317 84.1228 55.2801 85.0907 55.2942 86.0611C55.3087 87.0531 54.6604 88.0478 53.3492 88.8048L34.863 99.477C32.2693 100.974 28.0642 100.974 25.4705 99.477L6.9843 88.8048Z" fill="url(#paint15_linear_10906_112449)" fill-opacity="0.75"/>
<path d="M6.9843 83.3824L25.4706 72.7102C28.0642 71.2128 32.2693 71.2128 34.863 72.7102L53.3492 83.3824C54.6317 84.1228 55.2801 85.0907 55.2942 86.0611L55.298 63.3838L5.03935 63.3838L5.03935 86.0578C5.05494 85.0885 5.70326 84.122 6.9843 83.3824Z" fill="#C4C4C4"/>
<path d="M6.9843 83.3824L25.4706 72.7102C28.0642 71.2128 32.2693 71.2128 34.863 72.7102L53.3492 83.3824C54.6317 84.1228 55.2801 85.0907 55.2942 86.0611L55.298 63.3838L5.03935 63.3838L5.03935 86.0578C5.05494 85.0885 5.70326 84.122 6.9843 83.3824Z" fill="white"/>
<path d="M6.9843 83.3824L25.4706 72.7102C28.0642 71.2128 32.2693 71.2128 34.863 72.7102L53.3492 83.3824C54.6317 84.1228 55.2801 85.0907 55.2942 86.0611L55.298 63.3838L5.03935 63.3838L5.03935 86.0578C5.05494 85.0885 5.70326 84.122 6.9843 83.3824Z" fill="url(#paint16_linear_10906_112449)" fill-opacity="0.75"/>
<path d="M6.98248 66.0933C4.39038 64.5969 4.39038 62.1707 6.98248 60.6742L25.4743 49.9988C28.0664 48.5023 32.269 48.5023 34.8611 49.9988L53.353 60.6742C55.9451 62.1707 55.9451 64.5969 53.353 66.0933L34.8611 76.7688C32.269 78.2653 28.0664 78.2653 25.4743 76.7688L6.98248 66.0933Z" fill="#C4C4C4"/>
<path d="M6.98248 66.0933C4.39038 64.5969 4.39038 62.1707 6.98248 60.6742L25.4743 49.9988C28.0664 48.5023 32.269 48.5023 34.8611 49.9988L53.353 60.6742C55.9451 62.1707 55.9451 64.5969 53.353 66.0933L34.8611 76.7688C32.269 78.2653 28.0664 78.2653 25.4743 76.7688L6.98248 66.0933Z" fill="white"/>
<path d="M6.98248 66.0933C4.39038 64.5969 4.39038 62.1707 6.98248 60.6742L25.4743 49.9988C28.0664 48.5023 32.269 48.5023 34.8611 49.9988L53.353 60.6742C55.9451 62.1707 55.9451 64.5969 53.353 66.0933L34.8611 76.7688C32.269 78.2653 28.0664 78.2653 25.4743 76.7688L6.98248 66.0933Z" fill="url(#paint17_linear_10906_112449)" fill-opacity="0.75"/>
<path d="M23.3515 56.086C22.0704 55.3465 21.4221 54.3799 21.4065 53.4107C21.4062 53.3868 21.4062 53.3629 21.4065 53.339C21.4221 52.3697 22.0704 51.4032 23.3515 50.6637L41.8377 39.9914C44.4314 38.4941 48.6365 38.4941 51.2302 39.9914L69.7164 50.6637C70.9989 51.4041 71.6472 52.372 71.6614 53.3423C71.6759 54.3344 71.0275 55.3291 69.7164 56.086L51.2302 66.7583C48.6365 68.2556 44.4314 68.2556 41.8377 66.7583L23.3515 56.086Z" fill="#C4C4C4"/>
<path d="M23.3515 56.086C22.0704 55.3465 21.4221 54.3799 21.4065 53.4107C21.4062 53.3868 21.4062 53.3629 21.4065 53.339C21.4221 52.3697 22.0704 51.4032 23.3515 50.6637L41.8377 39.9914C44.4314 38.4941 48.6365 38.4941 51.2302 39.9914L69.7164 50.6637C70.9989 51.4041 71.6472 52.372 71.6614 53.3423C71.6759 54.3344 71.0275 55.3291 69.7164 56.086L51.2302 66.7583C48.6365 68.2556 44.4314 68.2556 41.8377 66.7583L23.3515 56.086Z" fill="#B54242"/>
<path d="M23.3515 56.086C22.0704 55.3465 21.4221 54.3799 21.4065 53.4107C21.4062 53.3868 21.4062 53.3629 21.4065 53.339C21.4221 52.3697 22.0704 51.4032 23.3515 50.6637L41.8377 39.9914C44.4314 38.4941 48.6365 38.4941 51.2302 39.9914L69.7164 50.6637C70.9989 51.4041 71.6472 52.372 71.6614 53.3423C71.6759 54.3344 71.0275 55.3291 69.7164 56.086L51.2302 66.7583C48.6365 68.2556 44.4314 68.2556 41.8377 66.7583L23.3515 56.086Z" fill="url(#paint18_linear_10906_112449)" fill-opacity="0.75"/>
<path d="M23.3515 50.6637L41.8377 39.9914C44.4314 38.4941 48.6365 38.4941 51.2302 39.9914L69.7164 50.6637C70.9989 51.4041 71.6472 52.372 71.6614 53.3423L71.6651 30.665L21.4065 30.665L21.4065 53.339C21.4221 52.3697 22.0704 51.4032 23.3515 50.6637Z" fill="#C4C4C4"/>
<path d="M23.3515 50.6637L41.8377 39.9914C44.4314 38.4941 48.6365 38.4941 51.2302 39.9914L69.7164 50.6637C70.9989 51.4041 71.6472 52.372 71.6614 53.3423L71.6651 30.665L21.4065 30.665L21.4065 53.339C21.4221 52.3697 22.0704 51.4032 23.3515 50.6637Z" fill="#B54242"/>
<path d="M23.3515 50.6637L41.8377 39.9914C44.4314 38.4941 48.6365 38.4941 51.2302 39.9914L69.7164 50.6637C70.9989 51.4041 71.6472 52.372 71.6614 53.3423L71.6651 30.665L21.4065 30.665L21.4065 53.339C21.4221 52.3697 22.0704 51.4032 23.3515 50.6637Z" fill="url(#paint19_linear_10906_112449)" fill-opacity="0.75"/>
<path d="M23.3514 33.3756C20.7583 31.8786 20.7583 29.4515 23.3514 27.9545L41.8398 17.281C44.4328 15.784 48.637 15.784 51.23 17.281L69.7185 27.9545C72.3115 29.4515 72.3115 31.8786 69.7185 33.3756L51.23 44.0491C48.637 45.5461 44.4328 45.5461 41.8398 44.0491L23.3514 33.3756Z" fill="#C4C4C4"/>
<path d="M23.3514 33.3756C20.7583 31.8786 20.7583 29.4515 23.3514 27.9545L41.8398 17.281C44.4328 15.784 48.637 15.784 51.23 17.281L69.7185 27.9545C72.3115 29.4515 72.3115 31.8786 69.7185 33.3756L51.23 44.0491C48.637 45.5461 44.4328 45.5461 41.8398 44.0491L23.3514 33.3756Z" fill="#E7C6C6"/>
<path d="M23.3514 33.3756C20.7583 31.8786 20.7583 29.4515 23.3514 27.9545L41.8398 17.281C44.4328 15.784 48.637 15.784 51.23 17.281L69.7185 27.9545C72.3115 29.4515 72.3115 31.8786 69.7185 33.3756L51.23 44.0491C48.637 45.5461 44.4328 45.5461 41.8398 44.0491L23.3514 33.3756Z" fill="url(#paint20_linear_10906_112449)" fill-opacity="0.75"/>
<path d="M38.2891 28.0023C39.577 28.7458 40.2254 29.7188 40.2344 30.6933C40.2434 31.6814 39.595 32.6711 38.2891 33.4251C35.6952 34.9225 31.4897 34.9225 28.8959 33.4251C27.5899 32.6711 26.9415 31.6814 26.9506 30.6933C26.9595 29.7188 27.6079 28.7458 28.8959 28.0023C31.4897 26.5049 35.6952 26.5049 38.2891 28.0023Z" fill="#C4C4C4"/>
<path d="M38.2891 28.0023C39.577 28.7458 40.2254 29.7188 40.2344 30.6933C40.2434 31.6814 39.595 32.6711 38.2891 33.4251C35.6952 34.9225 31.4897 34.9225 28.8959 33.4251C27.5899 32.6711 26.9415 31.6814 26.9506 30.6933C26.9595 29.7188 27.6079 28.7458 28.8959 28.0023C31.4897 26.5049 35.6952 26.5049 38.2891 28.0023Z" fill="#B54242"/>
<path d="M38.2891 28.0023C39.577 28.7458 40.2254 29.7188 40.2344 30.6933C40.2434 31.6814 39.595 32.6711 38.2891 33.4251C35.6952 34.9225 31.4897 34.9225 28.8959 33.4251C27.5899 32.6711 26.9415 31.6814 26.9506 30.6933C26.9595 29.7188 27.6079 28.7458 28.8959 28.0023C31.4897 26.5049 35.6952 26.5049 38.2891 28.0023Z" fill="url(#paint21_linear_10906_112449)" fill-opacity="0.75"/>
<path d="M28.8959 28.0023C31.4897 26.5049 35.6952 26.5049 38.2891 28.0023C39.577 28.7458 40.2254 29.7188 40.2344 30.6933L40.2185 26.153L26.9506 26.153L26.9506 30.6933C26.9595 29.7188 27.6079 28.7458 28.8959 28.0023Z" fill="#C4C4C4"/>
<path d="M28.8959 28.0023C31.4897 26.5049 35.6952 26.5049 38.2891 28.0023C39.577 28.7458 40.2254 29.7188 40.2344 30.6933L40.2185 26.153L26.9506 26.153L26.9506 30.6933C26.9595 29.7188 27.6079 28.7458 28.8959 28.0023Z" fill="#B54242"/>
<path d="M28.8959 28.0023C31.4897 26.5049 35.6952 26.5049 38.2891 28.0023C39.577 28.7458 40.2254 29.7188 40.2344 30.6933L40.2185 26.153L26.9506 26.153L26.9506 30.6933C26.9595 29.7188 27.6079 28.7458 28.8959 28.0023Z" fill="url(#paint22_linear_10906_112449)" fill-opacity="0.75"/>
<circle cx="5.42306" cy="5.42306" r="5.42306" transform="matrix(0.866041 -0.499972 0.866041 0.499972 24.2031 26.2041)" fill="#C4C4C4"/>
<circle cx="5.42306" cy="5.42306" r="5.42306" transform="matrix(0.866041 -0.499972 0.866041 0.499972 24.2031 26.2041)" fill="#E7C6C6"/>
<circle cx="5.42306" cy="5.42306" r="5.42306" transform="matrix(0.866041 -0.499972 0.866041 0.499972 24.2031 26.2041)" fill="url(#paint23_linear_10906_112449)" fill-opacity="0.75"/>
<path d="M51.5197 20.6244C52.8846 21.4124 53.5718 22.4434 53.5813 23.4762C53.5909 24.5234 52.9037 25.5723 51.5197 26.3713C48.7708 27.9583 44.3139 27.9583 41.5649 26.3713C40.1809 25.5723 39.4937 24.5234 39.5033 23.4762C39.5128 22.4434 40.2 21.4124 41.5649 20.6244C44.3139 19.0374 48.7708 19.0374 51.5197 20.6244Z" fill="#C4C4C4"/>
<path d="M51.5197 20.6244C52.8846 21.4124 53.5718 22.4434 53.5813 23.4762C53.5909 24.5234 52.9037 25.5723 51.5197 26.3713C48.7708 27.9583 44.3139 27.9583 41.5649 26.3713C40.1809 25.5723 39.4937 24.5234 39.5033 23.4762C39.5128 22.4434 40.2 21.4124 41.5649 20.6244C44.3139 19.0374 48.7708 19.0374 51.5197 20.6244Z" fill="#B54242"/>
<path d="M51.5197 20.6244C52.8846 21.4124 53.5718 22.4434 53.5813 23.4762C53.5909 24.5234 52.9037 25.5723 51.5197 26.3713C48.7708 27.9583 44.3139 27.9583 41.5649 26.3713C40.1809 25.5723 39.4937 24.5234 39.5033 23.4762C39.5128 22.4434 40.2 21.4124 41.5649 20.6244C44.3139 19.0374 48.7708 19.0374 51.5197 20.6244Z" fill="url(#paint24_linear_10906_112449)" fill-opacity="0.75"/>
<path d="M41.5649 20.6244C44.3139 19.0374 48.7708 19.0374 51.5197 20.6244C52.8846 21.4124 53.5718 22.4434 53.5813 23.4762L53.5645 18.6646L39.5033 18.6646L39.5033 23.4762C39.5128 22.4434 40.2 21.4124 41.5649 20.6244Z" fill="#C4C4C4"/>
<path d="M41.5649 20.6244C44.3139 19.0374 48.7708 19.0374 51.5197 20.6244C52.8846 21.4124 53.5718 22.4434 53.5813 23.4762L53.5645 18.6646L39.5033 18.6646L39.5033 23.4762C39.5128 22.4434 40.2 21.4124 41.5649 20.6244Z" fill="#B54242"/>
<path d="M41.5649 20.6244C44.3139 19.0374 48.7708 19.0374 51.5197 20.6244C52.8846 21.4124 53.5718 22.4434 53.5813 23.4762L53.5645 18.6646L39.5033 18.6646L39.5033 23.4762C39.5128 22.4434 40.2 21.4124 41.5649 20.6244Z" fill="url(#paint25_linear_10906_112449)" fill-opacity="0.75"/>
<circle cx="5.74727" cy="5.74727" r="5.74727" transform="matrix(0.866041 -0.499972 0.866041 0.499972 36.5781 18.7041)" fill="#C4C4C4"/>
<circle cx="5.74727" cy="5.74727" r="5.74727" transform="matrix(0.866041 -0.499972 0.866041 0.499972 36.5781 18.7041)" fill="#E7C6C6"/>
<circle cx="5.74727" cy="5.74727" r="5.74727" transform="matrix(0.866041 -0.499972 0.866041 0.499972 36.5781 18.7041)" fill="url(#paint26_linear_10906_112449)" fill-opacity="0.75"/>
<path d="M64.1562 28.0023C65.4442 28.7458 66.0926 29.7188 66.1015 30.6933C66.1106 31.6814 65.4622 32.6711 64.1562 33.4251C61.5624 34.9225 57.3569 34.9225 54.7631 33.4251C53.4571 32.6711 52.8087 31.6814 52.8178 30.6933C52.8267 29.7188 53.4751 28.7458 54.7631 28.0023C57.3569 26.5049 61.5624 26.5049 64.1562 28.0023Z" fill="#C4C4C4"/>
<path d="M64.1562 28.0023C65.4442 28.7458 66.0926 29.7188 66.1015 30.6933C66.1106 31.6814 65.4622 32.6711 64.1562 33.4251C61.5624 34.9225 57.3569 34.9225 54.7631 33.4251C53.4571 32.6711 52.8087 31.6814 52.8178 30.6933C52.8267 29.7188 53.4751 28.7458 54.7631 28.0023C57.3569 26.5049 61.5624 26.5049 64.1562 28.0023Z" fill="#B54242"/>
<path d="M64.1562 28.0023C65.4442 28.7458 66.0926 29.7188 66.1015 30.6933C66.1106 31.6814 65.4622 32.6711 64.1562 33.4251C61.5624 34.9225 57.3569 34.9225 54.7631 33.4251C53.4571 32.6711 52.8087 31.6814 52.8178 30.6933C52.8267 29.7188 53.4751 28.7458 54.7631 28.0023C57.3569 26.5049 61.5624 26.5049 64.1562 28.0023Z" fill="url(#paint27_linear_10906_112449)" fill-opacity="0.75"/>
<path d="M54.7631 28.0023C57.3569 26.5049 61.5624 26.5049 64.1562 28.0023C65.4442 28.7458 66.0926 29.7188 66.1015 30.6933L66.0857 26.153L52.8178 26.153L52.8178 30.6933C52.8267 29.7188 53.4751 28.7458 54.7631 28.0023Z" fill="#C4C4C4"/>
<path d="M54.7631 28.0023C57.3569 26.5049 61.5624 26.5049 64.1562 28.0023C65.4442 28.7458 66.0926 29.7188 66.1015 30.6933L66.0857 26.153L52.8178 26.153L52.8178 30.6933C52.8267 29.7188 53.4751 28.7458 54.7631 28.0023Z" fill="#B54242"/>
<path d="M54.7631 28.0023C57.3569 26.5049 61.5624 26.5049 64.1562 28.0023C65.4442 28.7458 66.0926 29.7188 66.1015 30.6933L66.0857 26.153L52.8178 26.153L52.8178 30.6933C52.8267 29.7188 53.4751 28.7458 54.7631 28.0023Z" fill="url(#paint28_linear_10906_112449)" fill-opacity="0.75"/>
<circle cx="5.42306" cy="5.42306" r="5.42306" transform="matrix(0.866041 -0.499972 0.866041 0.499972 50.0703 26.2041)" fill="#C4C4C4"/>
<circle cx="5.42306" cy="5.42306" r="5.42306" transform="matrix(0.866041 -0.499972 0.866041 0.499972 50.0703 26.2041)" fill="#E7C6C6"/>
<circle cx="5.42306" cy="5.42306" r="5.42306" transform="matrix(0.866041 -0.499972 0.866041 0.499972 50.0703 26.2041)" fill="url(#paint29_linear_10906_112449)" fill-opacity="0.75"/>
<path d="M51.2344 35.1039C52.5223 35.8474 53.1707 36.8203 53.1797 37.7948C53.1887 38.783 52.5403 39.7727 51.2344 40.5266C48.6405 42.0241 44.435 42.0241 41.8412 40.5266C40.5353 39.7727 39.8868 38.783 39.8959 37.7948C39.9048 36.8203 40.5532 35.8474 41.8412 35.1039C44.435 33.6064 48.6405 33.6064 51.2344 35.1039Z" fill="#C4C4C4"/>
<path d="M51.2344 35.1039C52.5223 35.8474 53.1707 36.8203 53.1797 37.7948C53.1887 38.783 52.5403 39.7727 51.2344 40.5266C48.6405 42.0241 44.435 42.0241 41.8412 40.5266C40.5353 39.7727 39.8868 38.783 39.8959 37.7948C39.9048 36.8203 40.5532 35.8474 41.8412 35.1039C44.435 33.6064 48.6405 33.6064 51.2344 35.1039Z" fill="#B54242"/>
<path d="M51.2344 35.1039C52.5223 35.8474 53.1707 36.8203 53.1797 37.7948C53.1887 38.783 52.5403 39.7727 51.2344 40.5266C48.6405 42.0241 44.435 42.0241 41.8412 40.5266C40.5353 39.7727 39.8868 38.783 39.8959 37.7948C39.9048 36.8203 40.5532 35.8474 41.8412 35.1039C44.435 33.6064 48.6405 33.6064 51.2344 35.1039Z" fill="url(#paint30_linear_10906_112449)" fill-opacity="0.75"/>
<path d="M41.8412 35.1039C44.435 33.6064 48.6405 33.6064 51.2344 35.1039C52.5223 35.8474 53.1707 36.8203 53.1797 37.7948L53.1638 33.2546L39.8959 33.2546L39.8959 37.7948C39.9048 36.8203 40.5532 35.8474 41.8412 35.1039Z" fill="#C4C4C4"/>
<path d="M41.8412 35.1039C44.435 33.6064 48.6405 33.6064 51.2344 35.1039C52.5223 35.8474 53.1707 36.8203 53.1797 37.7948L53.1638 33.2546L39.8959 33.2546L39.8959 37.7948C39.9048 36.8203 40.5532 35.8474 41.8412 35.1039Z" fill="#B54242"/>
<path d="M41.8412 35.1039C44.435 33.6064 48.6405 33.6064 51.2344 35.1039C52.5223 35.8474 53.1707 36.8203 53.1797 37.7948L53.1638 33.2546L39.8959 33.2546L39.8959 37.7948C39.9048 36.8203 40.5532 35.8474 41.8412 35.1039Z" fill="url(#paint31_linear_10906_112449)" fill-opacity="0.75"/>
<circle cx="5.42306" cy="5.42306" r="5.42306" transform="matrix(0.866041 -0.499972 0.866041 0.499972 37.1484 33.3057)" fill="#C4C4C4"/>
<circle cx="5.42306" cy="5.42306" r="5.42306" transform="matrix(0.866041 -0.499972 0.866041 0.499972 37.1484 33.3057)" fill="#E7C6C6"/>
<circle cx="5.42306" cy="5.42306" r="5.42306" transform="matrix(0.866041 -0.499972 0.866041 0.499972 37.1484 33.3057)" fill="url(#paint32_linear_10906_112449)" fill-opacity="0.75"/>
<path d="M22.5547 60.7289C23.8426 61.4724 24.491 62.4453 24.5 63.4198C24.509 64.408 23.8606 65.3977 22.5547 66.1516C19.9608 67.6491 15.7553 67.6491 13.1615 66.1516C11.8556 65.3977 11.2071 64.408 11.2162 63.4198C11.2251 62.4453 11.8736 61.4724 13.1615 60.7289C15.7553 59.2314 19.9608 59.2314 22.5547 60.7289Z" fill="#201F1F"/>
<path d="M22.5547 60.7289C23.8426 61.4724 24.491 62.4453 24.5 63.4198C24.509 64.408 23.8606 65.3977 22.5547 66.1516C19.9608 67.6491 15.7553 67.6491 13.1615 66.1516C11.8556 65.3977 11.2071 64.408 11.2162 63.4198C11.2251 62.4453 11.8736 61.4724 13.1615 60.7289C15.7553 59.2314 19.9608 59.2314 22.5547 60.7289Z" fill="#CACACA"/>
<path d="M22.5547 60.7289C23.8426 61.4724 24.491 62.4453 24.5 63.4198C24.509 64.408 23.8606 65.3977 22.5547 66.1516C19.9608 67.6491 15.7553 67.6491 13.1615 66.1516C11.8556 65.3977 11.2071 64.408 11.2162 63.4198C11.2251 62.4453 11.8736 61.4724 13.1615 60.7289C15.7553 59.2314 19.9608 59.2314 22.5547 60.7289Z" fill="url(#paint33_linear_10906_112449)" fill-opacity="0.75"/>
<path d="M22.5547 60.7289C23.8426 61.4724 24.491 62.4453 24.5 63.4198C24.509 64.408 23.8606 65.3977 22.5547 66.1516C19.9608 67.6491 15.7553 67.6491 13.1615 66.1516C11.8556 65.3977 11.2071 64.408 11.2162 63.4198C11.2251 62.4453 11.8736 61.4724 13.1615 60.7289C15.7553 59.2314 19.9608 59.2314 22.5547 60.7289Z" fill="#F4AA53"/>
<path d="M13.1615 60.7289C15.7553 59.2314 19.9608 59.2314 22.5547 60.7289C23.8426 61.4724 24.491 62.4453 24.5 63.4198L24.4841 58.8796L11.2162 58.8796L11.2162 63.4198C11.2251 62.4453 11.8736 61.4724 13.1615 60.7289Z" fill="#201F1F"/>
<path d="M13.1615 60.7289C15.7553 59.2314 19.9608 59.2314 22.5547 60.7289C23.8426 61.4724 24.491 62.4453 24.5 63.4198L24.4841 58.8796L11.2162 58.8796L11.2162 63.4198C11.2251 62.4453 11.8736 61.4724 13.1615 60.7289Z" fill="#CACACA"/>
<path d="M13.1615 60.7289C15.7553 59.2314 19.9608 59.2314 22.5547 60.7289C23.8426 61.4724 24.491 62.4453 24.5 63.4198L24.4841 58.8796L11.2162 58.8796L11.2162 63.4198C11.2251 62.4453 11.8736 61.4724 13.1615 60.7289Z" fill="url(#paint34_linear_10906_112449)" fill-opacity="0.75"/>
<path d="M13.1615 60.7289C15.7553 59.2314 19.9608 59.2314 22.5547 60.7289C23.8426 61.4724 24.491 62.4453 24.5 63.4198L24.4841 58.8796L11.2162 58.8796L11.2162 63.4198C11.2251 62.4453 11.8736 61.4724 13.1615 60.7289Z" fill="#F4AA53"/>
<circle cx="5.42306" cy="5.42306" r="5.42306" transform="matrix(0.866041 -0.499972 0.866041 0.499972 8.46875 58.9307)" fill="#C4C4C4"/>
<circle cx="5.42306" cy="5.42306" r="5.42306" transform="matrix(0.866041 -0.499972 0.866041 0.499972 8.46875 58.9307)" fill="white"/>
<circle cx="5.42306" cy="5.42306" r="5.42306" transform="matrix(0.866041 -0.499972 0.866041 0.499972 8.46875 58.9307)" fill="url(#paint35_linear_10906_112449)" fill-opacity="0.75"/>
<path d="M35.4844 67.8304C36.7723 68.574 37.4207 69.5469 37.4297 70.5214C37.4387 71.5095 36.7903 72.4993 35.4844 73.2532C32.8905 74.7506 28.685 74.7506 26.0912 73.2532C24.7853 72.4993 24.1368 71.5095 24.1459 70.5214C24.1548 69.5469 24.8032 68.574 26.0912 67.8304C28.685 66.333 32.8905 66.333 35.4844 67.8304Z" fill="#201F1F"/>
<path d="M35.4844 67.8304C36.7723 68.574 37.4207 69.5469 37.4297 70.5214C37.4387 71.5095 36.7903 72.4993 35.4844 73.2532C32.8905 74.7506 28.685 74.7506 26.0912 73.2532C24.7853 72.4993 24.1368 71.5095 24.1459 70.5214C24.1548 69.5469 24.8032 68.574 26.0912 67.8304C28.685 66.333 32.8905 66.333 35.4844 67.8304Z" fill="#CACACA"/>
<path d="M35.4844 67.8304C36.7723 68.574 37.4207 69.5469 37.4297 70.5214C37.4387 71.5095 36.7903 72.4993 35.4844 73.2532C32.8905 74.7506 28.685 74.7506 26.0912 73.2532C24.7853 72.4993 24.1368 71.5095 24.1459 70.5214C24.1548 69.5469 24.8032 68.574 26.0912 67.8304C28.685 66.333 32.8905 66.333 35.4844 67.8304Z" fill="url(#paint36_linear_10906_112449)" fill-opacity="0.75"/>
<path d="M35.4844 67.8304C36.7723 68.574 37.4207 69.5469 37.4297 70.5214C37.4387 71.5095 36.7903 72.4993 35.4844 73.2532C32.8905 74.7506 28.685 74.7506 26.0912 73.2532C24.7853 72.4993 24.1368 71.5095 24.1459 70.5214C24.1548 69.5469 24.8032 68.574 26.0912 67.8304C28.685 66.333 32.8905 66.333 35.4844 67.8304Z" fill="#F4AA53"/>
<path d="M26.0912 67.8304C28.685 66.333 32.8905 66.333 35.4844 67.8304C36.7723 68.574 37.4207 69.5469 37.4297 70.5214L37.4138 65.9812L24.1459 65.9812L24.1459 70.5214C24.1548 69.5469 24.8032 68.574 26.0912 67.8304Z" fill="#201F1F"/>
<path d="M26.0912 67.8304C28.685 66.333 32.8905 66.333 35.4844 67.8304C36.7723 68.574 37.4207 69.5469 37.4297 70.5214L37.4138 65.9812L24.1459 65.9812L24.1459 70.5214C24.1548 69.5469 24.8032 68.574 26.0912 67.8304Z" fill="#CACACA"/>
<path d="M26.0912 67.8304C28.685 66.333 32.8905 66.333 35.4844 67.8304C36.7723 68.574 37.4207 69.5469 37.4297 70.5214L37.4138 65.9812L24.1459 65.9812L24.1459 70.5214C24.1548 69.5469 24.8032 68.574 26.0912 67.8304Z" fill="url(#paint37_linear_10906_112449)" fill-opacity="0.75"/>
<path d="M26.0912 67.8304C28.685 66.333 32.8905 66.333 35.4844 67.8304C36.7723 68.574 37.4207 69.5469 37.4297 70.5214L37.4138 65.9812L24.1459 65.9812L24.1459 70.5214C24.1548 69.5469 24.8032 68.574 26.0912 67.8304Z" fill="#F4AA53"/>
<circle cx="5.42306" cy="5.42306" r="5.42306" transform="matrix(0.866041 -0.499972 0.866041 0.499972 21.3984 66.0322)" fill="#C4C4C4"/>
<circle cx="5.42306" cy="5.42306" r="5.42306" transform="matrix(0.866041 -0.499972 0.866041 0.499972 21.3984 66.0322)" fill="white"/>
<circle cx="5.42306" cy="5.42306" r="5.42306" transform="matrix(0.866041 -0.499972 0.866041 0.499972 21.3984 66.0322)" fill="url(#paint38_linear_10906_112449)" fill-opacity="0.75"/>
<rect x="37.3125" y="0.0947266" width="62.3116" height="24.8744" rx="12.4372" fill="#9BD050"/>
<path d="M55.5331 10.32C56.3539 10.32 57.0939 10.5127 57.7531 10.8983C58.4123 11.2838 58.9284 11.8124 59.3015 12.484C59.6871 13.1432 59.8799 13.8894 59.8799 14.7227C59.8799 15.556 59.6747 16.3209 59.2642 17.0174C58.8662 17.7139 58.3003 18.2673 57.5665 18.6778C56.8327 19.0758 56.0057 19.2748 55.0853 19.2748C54.2272 19.2748 53.456 19.0944 52.772 18.7337C52.088 18.3731 51.5469 17.8942 51.1489 17.2972C50.751 16.7002 50.5146 16.0535 50.44 15.357H53.1078C53.1576 15.7053 53.3628 16.0349 53.7234 16.3458C54.0966 16.6567 54.5443 16.8122 55.0667 16.8122C55.701 16.8122 56.2171 16.6132 56.6151 16.2152C57.0131 15.8048 57.2121 15.3073 57.2121 14.7227C57.2121 14.1257 57.0131 13.622 56.6151 13.2116C56.2171 12.8012 55.701 12.596 55.0667 12.596C54.1463 12.596 53.4809 13.0064 53.0705 13.8273H50.7199L51.5594 5.97316H58.9471V8.43572H53.7234L53.4809 10.8983C54.053 10.5127 54.7371 10.32 55.5331 10.32ZM63.9505 11.5512C63.4281 11.5512 62.9431 11.4269 62.4953 11.1781C62.06 10.9169 61.7056 10.5625 61.4319 10.1147C61.1708 9.66701 61.0402 9.17574 61.0402 8.64094C61.0402 8.10614 61.1708 7.61487 61.4319 7.16713C61.7056 6.71939 62.06 6.37115 62.4953 6.1224C62.9431 5.86122 63.4281 5.73063 63.9505 5.73063C64.4728 5.73063 64.9517 5.86122 65.387 6.1224C65.8347 6.37115 66.1892 6.71939 66.4504 7.16713C66.724 7.61487 66.8608 8.10614 66.8608 8.64094C66.8608 9.17574 66.724 9.66701 66.4504 10.1147C66.1892 10.5625 65.8347 10.9169 65.387 11.1781C64.9517 11.4269 64.4728 11.5512 63.9505 11.5512ZM64.137 19.0322H62.1968L70.2935 5.97316H72.2337L64.137 19.0322ZM63.9505 9.9655C64.2863 9.9655 64.5723 9.84735 64.8086 9.61104C65.0574 9.3623 65.1818 9.03893 65.1818 8.64094C65.1818 8.24295 65.0574 7.9258 64.8086 7.68949C64.5723 7.44075 64.2863 7.31637 63.9505 7.31637C63.6147 7.31637 63.3224 7.44075 63.0737 7.68949C62.8373 7.9258 62.7192 8.24295 62.7192 8.64094C62.7192 9.03893 62.8373 9.3623 63.0737 9.61104C63.3224 9.84735 63.6147 9.9655 63.9505 9.9655ZM70.48 19.2748C69.9576 19.2748 69.4726 19.1504 69.0249 18.9016C68.5896 18.6405 68.2351 18.286 67.9615 17.8383C67.7003 17.3905 67.5697 16.8992 67.5697 16.3644C67.5697 15.8296 67.7003 15.3384 67.9615 14.8906C68.2351 14.4429 68.5896 14.0947 69.0249 13.8459C69.4726 13.5847 69.9576 13.4541 70.48 13.4541C71.0024 13.4541 71.4812 13.5847 71.9165 13.8459C72.3642 14.0947 72.7187 14.4429 72.9799 14.8906C73.2535 15.3384 73.3903 15.8296 73.3903 16.3644C73.3903 16.8992 73.2535 17.3905 72.9799 17.8383C72.7187 18.286 72.3642 18.6405 71.9165 18.9016C71.4812 19.1504 71.0024 19.2748 70.48 19.2748ZM70.48 17.689C70.8158 17.689 71.1019 17.5709 71.3382 17.3345C71.5869 17.0858 71.7113 16.7624 71.7113 16.3644C71.7113 15.9665 71.5869 15.6493 71.3382 15.413C71.1019 15.1643 70.8158 15.0399 70.48 15.0399C70.1442 15.0399 69.8519 15.1643 69.6032 15.413C69.3669 15.6493 69.2487 15.9665 69.2487 16.3644C69.2487 16.7624 69.3669 17.0858 69.6032 17.3345C69.8519 17.5709 70.1442 17.689 70.48 17.689Z" fill="white"/>
<path fill-rule="evenodd" clip-rule="evenodd" d="M87.835 7.09078H79.5435V5.53613H87.835V7.09078ZM79.6531 9.44497H87.835V10.9996H81.2078V12.9985H85.3476C87.1506 12.9985 88.6123 14.4601 88.6123 16.2632C88.6123 18.0663 87.1506 19.528 85.3476 19.528H79.6531V9.44497ZM81.2078 14.5531V17.9733H85.3476C86.292 17.9733 87.0577 17.2077 87.0577 16.2632C87.0577 15.3188 86.292 14.5531 85.3476 14.5531H81.2078Z" fill="white"/>
<defs>
<linearGradient id="paint0_linear_10906_112449" x1="91.9431" y1="18.7664" x2="26.5069" y2="71.0773" gradientUnits="userSpaceOnUse">
<stop stop-color="#CCD1D3" stop-opacity="0.36"/>
<stop offset="1" stop-color="#C3C6CA"/>
</linearGradient>
<linearGradient id="paint1_linear_10906_112449" x1="91.9431" y1="18.7664" x2="26.5069" y2="71.0773" gradientUnits="userSpaceOnUse">
<stop stop-color="#CCD1D3" stop-opacity="0.36"/>
<stop offset="1" stop-color="#C3C6CA"/>
</linearGradient>
<linearGradient id="paint2_linear_10906_112449" x1="94.0521" y1="6.10504" x2="17.0091" y2="38.0899" gradientUnits="userSpaceOnUse">
<stop stop-color="#CCD1D3" stop-opacity="0.36"/>
<stop offset="1" stop-color="#C3C6CA"/>
</linearGradient>
<linearGradient id="paint3_linear_10906_112449" x1="48.1462" y1="37.7842" x2="47.1929" y2="47.394" gradientUnits="userSpaceOnUse">
<stop stop-color="#FFA877"/>
<stop offset="1" stop-color="#FF0707"/>
</linearGradient>
<linearGradient id="paint4_linear_10906_112449" x1="48.1462" y1="37.7842" x2="47.1929" y2="47.394" gradientUnits="userSpaceOnUse">
<stop stop-color="#FFA877"/>
<stop offset="1" stop-color="#FF0707"/>
</linearGradient>
<linearGradient id="paint5_linear_10906_112449" x1="7.83489" y1="-3.58309" x2="-7.24434" y2="7.24582" gradientUnits="userSpaceOnUse">
<stop stop-color="#FFA877"/>
<stop offset="1" stop-color="#FF0707"/>
</linearGradient>
<linearGradient id="paint6_linear_10906_112449" x1="61.0837" y1="31.5889" x2="60.1304" y2="41.1987" gradientUnits="userSpaceOnUse">
<stop stop-color="#FFA877"/>
<stop offset="1" stop-color="#FF0707"/>
</linearGradient>
<linearGradient id="paint7_linear_10906_112449" x1="61.0837" y1="31.5889" x2="60.1304" y2="41.1987" gradientUnits="userSpaceOnUse">
<stop stop-color="#FFA877"/>
<stop offset="1" stop-color="#FF0707"/>
</linearGradient>
<linearGradient id="paint8_linear_10906_112449" x1="7.83489" y1="-3.58309" x2="-7.24434" y2="7.24582" gradientUnits="userSpaceOnUse">
<stop stop-color="#FFA877"/>
<stop offset="1" stop-color="#FF0707"/>
</linearGradient>
<linearGradient id="paint9_linear_10906_112449" x1="84.9735" y1="30.5296" x2="66.9498" y2="46.5185" gradientUnits="userSpaceOnUse">
<stop stop-color="#CCD1D3" stop-opacity="0.36"/>
<stop offset="1" stop-color="#C3C6CA"/>
</linearGradient>
<linearGradient id="paint10_linear_10906_112449" x1="84.9735" y1="30.5296" x2="66.9498" y2="46.5185" gradientUnits="userSpaceOnUse">
<stop stop-color="#CCD1D3" stop-opacity="0.36"/>
<stop offset="1" stop-color="#C3C6CA"/>
</linearGradient>
<linearGradient id="paint11_linear_10906_112449" x1="20.6262" y1="0.745995" x2="8.80657" y2="-8.29442" gradientUnits="userSpaceOnUse">
<stop stop-color="#CCD1D3" stop-opacity="0.36"/>
<stop offset="1" stop-color="#C3C6CA"/>
</linearGradient>
<linearGradient id="paint12_linear_10906_112449" x1="61.0837" y1="44.8858" x2="60.1304" y2="54.4955" gradientUnits="userSpaceOnUse">
<stop stop-color="#FFA877"/>
<stop offset="1" stop-color="#FF0707"/>
</linearGradient>
<linearGradient id="paint13_linear_10906_112449" x1="61.0837" y1="44.8858" x2="60.1304" y2="54.4955" gradientUnits="userSpaceOnUse">
<stop stop-color="#FFA877"/>
<stop offset="1" stop-color="#FF0707"/>
</linearGradient>
<linearGradient id="paint14_linear_10906_112449" x1="7.83489" y1="-3.58309" x2="-7.24434" y2="7.24582" gradientUnits="userSpaceOnUse">
<stop stop-color="#FFA877"/>
<stop offset="1" stop-color="#FF0707"/>
</linearGradient>
<linearGradient id="paint15_linear_10906_112449" x1="85.3194" y1="-44.2056" x2="-21.1373" y2="82.0624" gradientUnits="userSpaceOnUse">
<stop stop-color="#FFD977"/>
<stop offset="1" stop-color="#FF8D07"/>
</linearGradient>
<linearGradient id="paint16_linear_10906_112449" x1="85.3194" y1="-44.2056" x2="-21.1373" y2="82.0624" gradientUnits="userSpaceOnUse">
<stop stop-color="#FFD977"/>
<stop offset="1" stop-color="#FF8D07"/>
</linearGradient>
<linearGradient id="paint17_linear_10906_112449" x1="43.121" y1="34.7623" x2="8.84468" y2="75.48" gradientUnits="userSpaceOnUse">
<stop stop-color="#FFD977"/>
<stop offset="1" stop-color="#FF8D07"/>
</linearGradient>
<linearGradient id="paint18_linear_10906_112449" x1="64.4923" y1="13.708" x2="-1.02504" y2="73.0063" gradientUnits="userSpaceOnUse">
<stop stop-color="#FFA877"/>
<stop offset="1" stop-color="#FF0707"/>
</linearGradient>
<linearGradient id="paint19_linear_10906_112449" x1="64.4923" y1="13.708" x2="-1.02504" y2="73.0063" gradientUnits="userSpaceOnUse">
<stop stop-color="#FFA877"/>
<stop offset="1" stop-color="#FF0707"/>
</linearGradient>
<linearGradient id="paint20_linear_10906_112449" x1="67.1212" y1="1.21618" x2="-8.28113" y2="43.7361" gradientUnits="userSpaceOnUse">
<stop stop-color="#FFA877"/>
<stop offset="1" stop-color="#FF0707"/>
</linearGradient>
<linearGradient id="paint21_linear_10906_112449" x1="31.1697" y1="24.4092" x2="30.2163" y2="34.019" gradientUnits="userSpaceOnUse">
<stop stop-color="#FFA877"/>
<stop offset="1" stop-color="#FF0707"/>
</linearGradient>
<linearGradient id="paint22_linear_10906_112449" x1="31.1697" y1="24.4092" x2="30.2163" y2="34.019" gradientUnits="userSpaceOnUse">
<stop stop-color="#FFA877"/>
<stop offset="1" stop-color="#FF0707"/>
</linearGradient>
<linearGradient id="paint23_linear_10906_112449" x1="21.1204" y1="-1.77526" x2="-12.3336" y2="-19.9384" gradientUnits="userSpaceOnUse">
<stop stop-color="#FFA877"/>
<stop offset="1" stop-color="#FF0707"/>
</linearGradient>
<linearGradient id="paint24_linear_10906_112449" x1="43.9747" y1="16.8165" x2="42.9643" y2="27.0007" gradientUnits="userSpaceOnUse">
<stop stop-color="#FFA877"/>
<stop offset="1" stop-color="#FF0707"/>
</linearGradient>
<linearGradient id="paint25_linear_10906_112449" x1="43.9747" y1="16.8165" x2="42.9643" y2="27.0007" gradientUnits="userSpaceOnUse">
<stop stop-color="#FFA877"/>
<stop offset="1" stop-color="#FF0707"/>
</linearGradient>
<linearGradient id="paint26_linear_10906_112449" x1="22.383" y1="-1.88139" x2="-13.0709" y2="-21.1304" gradientUnits="userSpaceOnUse">
<stop stop-color="#FFA877"/>
<stop offset="1" stop-color="#FF0707"/>
</linearGradient>
<linearGradient id="paint27_linear_10906_112449" x1="57.0369" y1="24.4092" x2="56.0835" y2="34.019" gradientUnits="userSpaceOnUse">
<stop stop-color="#FFA877"/>
<stop offset="1" stop-color="#FF0707"/>
</linearGradient>
<linearGradient id="paint28_linear_10906_112449" x1="57.0369" y1="24.4092" x2="56.0835" y2="34.019" gradientUnits="userSpaceOnUse">
<stop stop-color="#FFA877"/>
<stop offset="1" stop-color="#FF0707"/>
</linearGradient>
<linearGradient id="paint29_linear_10906_112449" x1="21.1204" y1="-1.77526" x2="-12.3336" y2="-19.9384" gradientUnits="userSpaceOnUse">
<stop stop-color="#FFA877"/>
<stop offset="1" stop-color="#FF0707"/>
</linearGradient>
<linearGradient id="paint30_linear_10906_112449" x1="44.115" y1="31.5108" x2="43.1616" y2="41.1205" gradientUnits="userSpaceOnUse">
<stop stop-color="#FFA877"/>
<stop offset="1" stop-color="#FF0707"/>
</linearGradient>
<linearGradient id="paint31_linear_10906_112449" x1="44.115" y1="31.5108" x2="43.1616" y2="41.1205" gradientUnits="userSpaceOnUse">
<stop stop-color="#FFA877"/>
<stop offset="1" stop-color="#FF0707"/>
</linearGradient>
<linearGradient id="paint32_linear_10906_112449" x1="21.1204" y1="-1.77526" x2="-12.3336" y2="-19.9384" gradientUnits="userSpaceOnUse">
<stop stop-color="#FFA877"/>
<stop offset="1" stop-color="#FF0707"/>
</linearGradient>
<linearGradient id="paint33_linear_10906_112449" x1="22.9468" y1="53.2176" x2="21.7487" y2="66.388" gradientUnits="userSpaceOnUse">
<stop stop-color="#E7E1D2"/>
<stop offset="1" stop-color="#C4B3A0"/>
</linearGradient>
<linearGradient id="paint34_linear_10906_112449" x1="22.9468" y1="53.2176" x2="21.7487" y2="66.388" gradientUnits="userSpaceOnUse">
<stop stop-color="#E7E1D2"/>
<stop offset="1" stop-color="#C4B3A0"/>
</linearGradient>
<linearGradient id="paint35_linear_10906_112449" x1="9.49077" y1="-2.89879" x2="-2.28593" y2="5.23176" gradientUnits="userSpaceOnUse">
<stop stop-color="#FFD977"/>
<stop offset="1" stop-color="#FF8D07"/>
</linearGradient>
<linearGradient id="paint36_linear_10906_112449" x1="35.8764" y1="60.3192" x2="34.6784" y2="73.4896" gradientUnits="userSpaceOnUse">
<stop stop-color="#E7E1D2"/>
<stop offset="1" stop-color="#C4B3A0"/>
</linearGradient>
<linearGradient id="paint37_linear_10906_112449" x1="35.8764" y1="60.3192" x2="34.6784" y2="73.4896" gradientUnits="userSpaceOnUse">
<stop stop-color="#E7E1D2"/>
<stop offset="1" stop-color="#C4B3A0"/>
</linearGradient>
<linearGradient id="paint38_linear_10906_112449" x1="9.49077" y1="-2.89879" x2="-2.28593" y2="5.23176" gradientUnits="userSpaceOnUse">
<stop stop-color="#FFD977"/>
<stop offset="1" stop-color="#FF8D07"/>
</linearGradient>
</defs>
</svg>
