<svg width="113" height="112" viewBox="0 0 113 112" fill="none" xmlns="http://www.w3.org/2000/svg">
<g clip-path="url(#clip0_10906_112313)">
<path d="M32.2305 69.9418L26.2503 86.3874L19.9146 106.078L8.7965 99.1174C8.7721 99.1025 8.74784 99.0873 8.72371 99.0719C6.54662 97.6827 5.46146 94.6121 6.06278 90.4669L11.8452 57.8411C13.6007 47.8707 20.8903 37.2576 29.3296 32.3851L56.6537 16.6098C62.1969 13.4094 67.2441 13.2584 70.5528 15.7825L82.2468 23.7574L79.7819 47.4128C80.8053 53.2862 76.9434 61.6878 71.1273 66.2408L76.81 69.9418L72.9033 76.2529L61.2001 68.2733C60.577 67.8752 60.0348 67.3323 59.5943 66.6439L53.7528 57.5159L32.2305 69.9418Z" fill="#B54242"/>
<path d="M32.2305 69.9418L26.2503 86.3874L19.9146 106.078L8.7965 99.1174C8.7721 99.1025 8.74784 99.0873 8.72371 99.0719C6.54662 97.6827 5.46146 94.6121 6.06278 90.4669L11.8452 57.8411C13.6007 47.8707 20.8903 37.2576 29.3296 32.3851L56.6537 16.6098C62.1969 13.4094 67.2441 13.2584 70.5528 15.7825L82.2468 23.7574L79.7819 47.4128C80.8053 53.2862 76.9434 61.6878 71.1273 66.2408L76.81 69.9418L72.9033 76.2529L61.2001 68.2733C60.577 67.8752 60.0348 67.3323 59.5943 66.6439L53.7528 57.5159L32.2305 69.9418Z" fill="url(#paint0_linear_10906_112313)" fill-opacity="0.75"/>
<path d="M43.5528 77.7093L37.7113 93.5826C35.5269 99.5183 30.8444 104.761 26.1783 106.497C20.3622 108.659 16.5003 104.717 17.5237 97.6621L23.1675 65.6087C24.923 55.6382 32.2126 45.0251 40.6519 40.1526L67.976 24.3773C76.4153 19.5049 83.7049 21.7004 85.4605 29.6438L91.1042 55.1803C92.1277 61.0537 88.2657 69.4553 82.4497 74.0083C77.7835 77.6612 73.1011 77.8248 70.9167 74.4114L65.0751 65.2835L43.5528 77.7093Z" fill="#C4C4C4"/>
<path d="M43.5528 77.7093L37.7113 93.5826C35.5269 99.5183 30.8444 104.761 26.1783 106.497C20.3622 108.659 16.5003 104.717 17.5237 97.6621L23.1675 65.6087C24.923 55.6382 32.2126 45.0251 40.6519 40.1526L67.976 24.3773C76.4153 19.5049 83.7049 21.7004 85.4605 29.6438L91.1042 55.1803C92.1277 61.0537 88.2657 69.4553 82.4497 74.0083C77.7835 77.6612 73.1011 77.8248 70.9167 74.4114L65.0751 65.2835L43.5528 77.7093Z" fill="#E7C6C6"/>
<path d="M43.5528 77.7093L37.7113 93.5826C35.5269 99.5183 30.8444 104.761 26.1783 106.497C20.3622 108.659 16.5003 104.717 17.5237 97.6621L23.1675 65.6087C24.923 55.6382 32.2126 45.0251 40.6519 40.1526L67.976 24.3773C76.4153 19.5049 83.7049 21.7004 85.4605 29.6438L91.1042 55.1803C92.1277 61.0537 88.2657 69.4553 82.4497 74.0083C77.7835 77.6612 73.1011 77.8248 70.9167 74.4114L65.0751 65.2835L43.5528 77.7093Z" fill="url(#paint1_linear_10906_112313)" fill-opacity="0.75"/>
<path d="M39.6909 52.3864L39.6909 69.7171M32.1865 65.3844L47.1953 56.7191" stroke="white" stroke-width="7.10537" stroke-linecap="round" stroke-linejoin="round"/>
<path d="M60.7845 48.5904C60.7845 50.6075 62.2006 51.425 63.9475 50.4165C65.6943 49.4079 67.1104 46.9552 67.1104 44.9381C67.1104 42.921 65.6943 42.1034 63.9475 43.1119C62.2006 44.1205 60.7845 46.5733 60.7845 48.5904Z" fill="white"/>
<path d="M75.0178 40.3727C75.0178 42.3898 76.4339 43.2074 78.1808 42.1989C79.9276 41.1903 81.3438 38.7376 81.3438 36.7205C81.3438 34.7034 79.9276 33.8858 78.1808 34.8943C76.4339 35.9029 75.0178 38.3556 75.0178 40.3727Z" fill="white"/>
<path d="M71.0641 54.5253C72.811 53.5168 74.2271 51.064 74.2271 49.0469C74.2271 47.0298 72.811 46.2122 71.0641 47.2208C69.3173 48.2293 67.9012 50.6821 67.9012 52.6992C67.9012 54.7163 69.3173 55.5338 71.0641 54.5253Z" fill="white"/>
<path d="M71.0641 38.0901C72.811 37.0815 74.2271 34.6288 74.2271 32.6117C74.2271 30.5946 72.811 29.777 71.0641 30.7855C69.3173 31.7941 67.9012 34.2468 67.9012 36.2639C67.9012 38.281 69.3173 39.0986 71.0641 38.0901Z" fill="white"/>
</g>
<rect x="39.1328" y="0.155273" width="73.1264" height="26.0843" rx="13.0421" fill="#9BD050"/>
<path d="M52.4294 9.04623L56.0681 6.50302H58.2201V20.1973H55.4225V9.98527L53.7401 11.1786L52.4294 9.04623ZM65.6523 20.4516C64.648 20.4516 63.7351 20.1777 62.9134 19.6299C62.0918 19.0822 61.4397 18.2735 60.9571 17.2041C60.4745 16.1346 60.2333 14.85 60.2333 13.3501C60.2333 11.8503 60.4745 10.5656 60.9571 9.49619C61.4397 8.42673 62.0918 7.61812 62.9134 7.07035C63.7351 6.52258 64.648 6.24869 65.6523 6.24869C66.6565 6.24869 67.5695 6.52258 68.3911 7.07035C69.2128 7.61812 69.8649 8.42673 70.3474 9.49619C70.83 10.5656 71.0713 11.8503 71.0713 13.3501C71.0713 14.85 70.83 16.1346 70.3474 17.2041C69.8649 18.2735 69.2128 19.0822 68.3911 19.6299C67.5695 20.1777 66.6565 20.4516 65.6523 20.4516ZM65.6523 17.7519C66.3957 17.7519 67.0152 17.3867 67.5108 16.6563C68.0194 15.926 68.2737 14.8239 68.2737 13.3501C68.2737 11.8764 68.0194 10.7743 67.5108 10.044C67.0152 9.3136 66.3957 8.94842 65.6523 8.94842C64.9089 8.94842 64.2828 9.3136 63.7742 10.044C63.2786 10.7743 63.0308 11.8764 63.0308 13.3501C63.0308 14.8239 63.2786 15.926 63.7742 16.6563C64.2828 17.3867 64.9089 17.7519 65.6523 17.7519ZM75.3579 12.3524C74.8101 12.3524 74.3015 12.222 73.832 11.9612C73.3755 11.6873 73.0038 11.3156 72.7169 10.846C72.443 10.3765 72.3061 9.86137 72.3061 9.30055C72.3061 8.73974 72.443 8.22458 72.7169 7.75506C73.0038 7.28554 73.3755 6.92036 73.832 6.65952C74.3015 6.38564 74.8101 6.24869 75.3579 6.24869C75.9057 6.24869 76.4078 6.38564 76.8643 6.65952C77.3338 6.92036 77.7055 7.28554 77.9794 7.75506C78.2663 8.22458 78.4098 8.73974 78.4098 9.30055C78.4098 9.86137 78.2663 10.3765 77.9794 10.846C77.7055 11.3156 77.3338 11.6873 76.8643 11.9612C76.4078 12.222 75.9057 12.3524 75.3579 12.3524ZM75.5535 20.1973H73.519L82.0094 6.50302H84.044L75.5535 20.1973ZM75.3579 10.6895C75.7101 10.6895 76.01 10.5656 76.2578 10.3178C76.5187 10.057 76.6491 9.7179 76.6491 9.30055C76.6491 8.88321 76.5187 8.55063 76.2578 8.30283C76.01 8.04199 75.7101 7.91157 75.3579 7.91157C75.0058 7.91157 74.6993 8.04199 74.4384 8.30283C74.1906 8.55063 74.0667 8.88321 74.0667 9.30055C74.0667 9.7179 74.1906 10.057 74.4384 10.3178C74.6993 10.5656 75.0058 10.6895 75.3579 10.6895ZM82.205 20.4516C81.6573 20.4516 81.1486 20.3212 80.6791 20.0603C80.2226 19.7864 79.8509 19.4147 79.564 18.9452C79.2901 18.4757 79.1532 17.9605 79.1532 17.3997C79.1532 16.8389 79.2901 16.3237 79.564 15.8542C79.8509 15.3847 80.2226 15.0195 80.6791 14.7587C81.1486 14.4848 81.6573 14.3479 82.205 14.3479C82.7528 14.3479 83.2549 14.4848 83.7114 14.7587C84.1809 15.0195 84.5526 15.3847 84.8265 15.8542C85.1134 16.3237 85.2569 16.8389 85.2569 17.3997C85.2569 17.9605 85.1134 18.4757 84.8265 18.9452C84.5526 19.4147 84.1809 19.7864 83.7114 20.0603C83.2549 20.3212 82.7528 20.4516 82.205 20.4516ZM82.205 18.7887C82.5572 18.7887 82.8571 18.6648 83.1049 18.417C83.3658 18.1562 83.4962 17.8171 83.4962 17.3997C83.4962 16.9824 83.3658 16.6498 83.1049 16.402C82.8571 16.1412 82.5572 16.0107 82.205 16.0107C81.8529 16.0107 81.5464 16.1412 81.2856 16.402C81.0378 16.6498 80.9139 16.9824 80.9139 17.3997C80.9139 17.8171 81.0378 18.1562 81.2856 18.417C81.5464 18.6648 81.8529 18.7887 82.205 18.7887Z" fill="white"/>
<path fill-rule="evenodd" clip-rule="evenodd" d="M99.897 7.4916H91.2021V5.86133H99.897V7.4916ZM91.3171 9.96029H99.897V11.5906H92.9474V13.6866H97.2885C99.1793 13.6866 100.712 15.2194 100.712 17.1102C100.712 19.001 99.1793 20.5337 97.2885 20.5337H91.3171V9.96029ZM92.9474 15.3169V18.9035H97.2885C98.279 18.9035 99.0818 18.1006 99.0818 17.1102C99.0818 16.1198 98.279 15.3169 97.2885 15.3169H92.9474Z" fill="white"/>
<defs>
<linearGradient id="paint0_linear_10906_112313" x1="48.9745" y1="28.9931" x2="-42.5737" y2="138.044" gradientUnits="userSpaceOnUse">
<stop stop-color="#FFA877"/>
<stop offset="1" stop-color="#FF0707"/>
</linearGradient>
<linearGradient id="paint1_linear_10906_112313" x1="70.749" y1="3.55312" x2="0.939383" y2="138.072" gradientUnits="userSpaceOnUse">
<stop stop-color="#FFA877"/>
<stop offset="1" stop-color="#FF0707"/>
</linearGradient>
<clipPath id="clip0_10906_112313">
<rect width="85.5192" height="94.3226" fill="white" transform="translate(5.82812 13.2334)"/>
</clipPath>
</defs>
</svg>
