<svg width="100" height="106" viewBox="0 0 100 106" fill="none" xmlns="http://www.w3.org/2000/svg">
<g clip-path="url(#clip0_10906_112270)">
<path d="M88.6237 51.598C88.6237 40.7929 81.0379 27.6539 71.6804 22.2513C66.9748 19.5345 62.7173 19.2914 59.6471 21.0951L53.6016 24.6225L77.3292 66.1726L83.4544 62.6824L83.8208 62.4724C86.793 60.6637 88.6237 56.9062 88.6237 51.598Z" fill="#C4C4C4"/>
<path d="M88.6237 51.598C88.6237 40.7929 81.0379 27.6539 71.6804 22.2513C66.9748 19.5345 62.7173 19.2914 59.6471 21.0951L53.6016 24.6225L77.3292 66.1726L83.4544 62.6824L83.8208 62.4724C86.793 60.6637 88.6237 56.9062 88.6237 51.598Z" fill="#F4F4F2"/>
<path d="M88.6237 51.598C88.6237 40.7929 81.0379 27.6539 71.6804 22.2513C66.9748 19.5345 62.7173 19.2914 59.6471 21.0951L53.6016 24.6225L77.3292 66.1726L83.4544 62.6824L83.8208 62.4724C86.793 60.6637 88.6237 56.9062 88.6237 51.598Z" fill="url(#paint0_linear_10906_112270)" fill-opacity="0.75"/>
<path d="M88.6237 51.598C88.6237 40.7929 81.0379 27.6539 71.6804 22.2513C66.9748 19.5345 62.7173 19.2914 59.6471 21.0951L53.6016 24.6225L77.3292 66.1726L83.4544 62.6824L83.8208 62.4724C86.793 60.6637 88.6237 56.9062 88.6237 51.598Z" fill="#E7C6C6"/>
<path d="M88.6237 51.598C88.6237 40.7929 81.0379 27.6539 71.6804 22.2513C66.9748 19.5345 62.7173 19.2914 59.6471 21.0951L53.6016 24.6225L77.3292 66.1726L83.4544 62.6824L83.8208 62.4724C86.793 60.6637 88.6237 56.9062 88.6237 51.598Z" fill="url(#paint1_linear_10906_112270)" fill-opacity="0.75"/>
<circle cx="19.5645" cy="19.5645" r="19.5645" transform="matrix(0.866025 0.5 -2.20305e-08 1 48.8125 15.8291)" fill="#C4C4C4"/>
<circle cx="19.5645" cy="19.5645" r="19.5645" transform="matrix(0.866025 0.5 -2.20305e-08 1 48.8125 15.8291)" fill="#C4C4C4"/>
<circle cx="19.5645" cy="19.5645" r="19.5645" transform="matrix(0.866025 0.5 -2.20305e-08 1 48.8125 15.8291)" fill="url(#paint2_linear_10906_112270)" fill-opacity="0.75"/>
<circle cx="19.5645" cy="19.5645" r="19.5645" transform="matrix(0.866025 0.5 -2.20305e-08 1 48.8125 15.8291)" fill="#B54242"/>
<circle cx="19.5645" cy="19.5645" r="19.5645" transform="matrix(0.866025 0.5 -2.20305e-08 1 48.8125 15.8291)" fill="url(#paint3_linear_10906_112270)" fill-opacity="0.75"/>
<path d="M81.3581 55.7777C81.3581 44.9725 73.7723 31.8336 64.4147 26.431C59.7092 23.7142 55.4517 23.4711 52.3815 25.2748L46.3359 28.8022L70.0636 70.3522L76.1888 66.8621L76.5551 66.6521C79.5273 64.8434 81.3581 61.0859 81.3581 55.7777Z" fill="#C4C4C4"/>
<path d="M81.3581 55.7777C81.3581 44.9725 73.7723 31.8336 64.4147 26.431C59.7092 23.7142 55.4517 23.4711 52.3815 25.2748L46.3359 28.8022L70.0636 70.3522L76.1888 66.8621L76.5551 66.6521C79.5273 64.8434 81.3581 61.0859 81.3581 55.7777Z" fill="#F4F4F2"/>
<path d="M81.3581 55.7777C81.3581 44.9725 73.7723 31.8336 64.4147 26.431C59.7092 23.7142 55.4517 23.4711 52.3815 25.2748L46.3359 28.8022L70.0636 70.3522L76.1888 66.8621L76.5551 66.6521C79.5273 64.8434 81.3581 61.0859 81.3581 55.7777Z" fill="url(#paint4_linear_10906_112270)" fill-opacity="0.75"/>
<path d="M81.3581 55.7777C81.3581 44.9725 73.7723 31.8336 64.4147 26.431C59.7092 23.7142 55.4517 23.4711 52.3815 25.2748L46.3359 28.8022L70.0636 70.3522L76.1888 66.8621L76.5551 66.6521C79.5273 64.8434 81.3581 61.0859 81.3581 55.7777Z" fill="#E7C6C6"/>
<path d="M81.3581 55.7777C81.3581 44.9725 73.7723 31.8336 64.4147 26.431C59.7092 23.7142 55.4517 23.4711 52.3815 25.2748L46.3359 28.8022L70.0636 70.3522L76.1888 66.8621L76.5551 66.6521C79.5273 64.8434 81.3581 61.0859 81.3581 55.7777Z" fill="url(#paint5_linear_10906_112270)" fill-opacity="0.75"/>
<circle cx="19.5645" cy="19.5645" r="19.5645" transform="matrix(0.866025 0.5 -2.20305e-08 1 41.5547 19.9932)" fill="#C4C4C4"/>
<circle cx="19.5645" cy="19.5645" r="19.5645" transform="matrix(0.866025 0.5 -2.20305e-08 1 41.5547 19.9932)" fill="#C4C4C4"/>
<circle cx="19.5645" cy="19.5645" r="19.5645" transform="matrix(0.866025 0.5 -2.20305e-08 1 41.5547 19.9932)" fill="url(#paint6_linear_10906_112270)" fill-opacity="0.75"/>
<circle cx="19.5645" cy="19.5645" r="19.5645" transform="matrix(0.866025 0.5 -2.20305e-08 1 41.5547 19.9932)" fill="#B54242"/>
<circle cx="19.5645" cy="19.5645" r="19.5645" transform="matrix(0.866025 0.5 -2.20305e-08 1 41.5547 19.9932)" fill="url(#paint7_linear_10906_112270)" fill-opacity="0.75"/>
<circle cx="9.25103" cy="9.25103" r="9.25103" transform="matrix(0.866025 0.5 -2.20305e-08 1 50.4766 35.4619)" fill="white" fill-opacity="0.25"/>
<path d="M63.0431 52.7638C63.0431 49.322 60.6268 45.1369 57.6462 43.416C56.1473 42.5506 54.7911 42.4732 53.8132 43.0477L38.9844 52.1902L46.5423 65.4252L61.3966 56.2945L61.5132 56.2276C62.46 55.6515 63.0431 54.4546 63.0431 52.7638Z" fill="#C4C4C4"/>
<path d="M63.0431 52.7638C63.0431 49.322 60.6268 45.1369 57.6462 43.416C56.1473 42.5506 54.7911 42.4732 53.8132 43.0477L38.9844 52.1902L46.5423 65.4252L61.3966 56.2945L61.5132 56.2276C62.46 55.6515 63.0431 54.4546 63.0431 52.7638Z" fill="#F4F4F2"/>
<path d="M63.0431 52.7638C63.0431 49.322 60.6268 45.1369 57.6462 43.416C56.1473 42.5506 54.7911 42.4732 53.8132 43.0477L38.9844 52.1902L46.5423 65.4252L61.3966 56.2945L61.5132 56.2276C62.46 55.6515 63.0431 54.4546 63.0431 52.7638Z" fill="url(#paint8_linear_10906_112270)" fill-opacity="0.75"/>
<path d="M52.6003 73.0746C52.6003 62.2694 45.0145 49.1304 35.6569 43.7278C30.9514 41.0111 26.6939 40.768 23.6237 42.5716L17.5781 46.0991L41.3057 87.6491L47.431 84.1589L47.7973 83.949C50.7695 82.1403 52.6003 78.3828 52.6003 73.0746Z" fill="#C4C4C4"/>
<path d="M52.6003 73.0746C52.6003 62.2694 45.0145 49.1304 35.6569 43.7278C30.9514 41.0111 26.6939 40.768 23.6237 42.5716L17.5781 46.0991L41.3057 87.6491L47.431 84.1589L47.7973 83.949C50.7695 82.1403 52.6003 78.3828 52.6003 73.0746Z" fill="#F4F4F2"/>
<path d="M52.6003 73.0746C52.6003 62.2694 45.0145 49.1304 35.6569 43.7278C30.9514 41.0111 26.6939 40.768 23.6237 42.5716L17.5781 46.0991L41.3057 87.6491L47.431 84.1589L47.7973 83.949C50.7695 82.1403 52.6003 78.3828 52.6003 73.0746Z" fill="url(#paint9_linear_10906_112270)" fill-opacity="0.75"/>
<path d="M52.6003 73.0746C52.6003 62.2694 45.0145 49.1304 35.6569 43.7278C30.9514 41.0111 26.6939 40.768 23.6237 42.5716L17.5781 46.0991L41.3057 87.6491L47.431 84.1589L47.7973 83.949C50.7695 82.1403 52.6003 78.3828 52.6003 73.0746Z" fill="#E7C6C6"/>
<path d="M52.6003 73.0746C52.6003 62.2694 45.0145 49.1304 35.6569 43.7278C30.9514 41.0111 26.6939 40.768 23.6237 42.5716L17.5781 46.0991L41.3057 87.6491L47.431 84.1589L47.7973 83.949C50.7695 82.1403 52.6003 78.3828 52.6003 73.0746Z" fill="url(#paint10_linear_10906_112270)" fill-opacity="0.75"/>
<circle cx="19.5645" cy="19.5645" r="19.5645" transform="matrix(0.866025 0.5 -2.20305e-08 1 12.7969 37.3057)" fill="#C4C4C4"/>
<circle cx="19.5645" cy="19.5645" r="19.5645" transform="matrix(0.866025 0.5 -2.20305e-08 1 12.7969 37.3057)" fill="#C4C4C4"/>
<circle cx="19.5645" cy="19.5645" r="19.5645" transform="matrix(0.866025 0.5 -2.20305e-08 1 12.7969 37.3057)" fill="url(#paint11_linear_10906_112270)" fill-opacity="0.75"/>
<circle cx="19.5645" cy="19.5645" r="19.5645" transform="matrix(0.866025 0.5 -2.20305e-08 1 12.7969 37.3057)" fill="#B54242"/>
<circle cx="19.5645" cy="19.5645" r="19.5645" transform="matrix(0.866025 0.5 -2.20305e-08 1 12.7969 37.3057)" fill="url(#paint12_linear_10906_112270)" fill-opacity="0.75"/>
<path d="M45.3425 77.2543C45.3425 66.4491 37.7567 53.3101 28.3991 47.9075C23.6936 45.1908 19.436 44.9477 16.3658 46.7513L10.3203 50.2788L34.0479 91.8288L40.1732 88.3386L40.5395 88.1287C43.5117 86.3199 45.3425 82.5625 45.3425 77.2543Z" fill="#C4C4C4"/>
<path d="M45.3425 77.2543C45.3425 66.4491 37.7567 53.3101 28.3991 47.9075C23.6936 45.1908 19.436 44.9477 16.3658 46.7513L10.3203 50.2788L34.0479 91.8288L40.1732 88.3386L40.5395 88.1287C43.5117 86.3199 45.3425 82.5625 45.3425 77.2543Z" fill="#F4F4F2"/>
<path d="M45.3425 77.2543C45.3425 66.4491 37.7567 53.3101 28.3991 47.9075C23.6936 45.1908 19.436 44.9477 16.3658 46.7513L10.3203 50.2788L34.0479 91.8288L40.1732 88.3386L40.5395 88.1287C43.5117 86.3199 45.3425 82.5625 45.3425 77.2543Z" fill="url(#paint13_linear_10906_112270)" fill-opacity="0.75"/>
<path d="M45.3425 77.2543C45.3425 66.4491 37.7567 53.3101 28.3991 47.9075C23.6936 45.1908 19.436 44.9477 16.3658 46.7513L10.3203 50.2788L34.0479 91.8288L40.1732 88.3386L40.5395 88.1287C43.5117 86.3199 45.3425 82.5625 45.3425 77.2543Z" fill="#E7C6C6"/>
<path d="M45.3425 77.2543C45.3425 66.4491 37.7567 53.3101 28.3991 47.9075C23.6936 45.1908 19.436 44.9477 16.3658 46.7513L10.3203 50.2788L34.0479 91.8288L40.1732 88.3386L40.5395 88.1287C43.5117 86.3199 45.3425 82.5625 45.3425 77.2543Z" fill="url(#paint14_linear_10906_112270)" fill-opacity="0.75"/>
<circle cx="19.5645" cy="19.5645" r="19.5645" transform="matrix(0.866025 0.5 -2.20305e-08 1 5.54688 41.4541)" fill="#C4C4C4"/>
<circle cx="19.5645" cy="19.5645" r="19.5645" transform="matrix(0.866025 0.5 -2.20305e-08 1 5.54688 41.4541)" fill="#C4C4C4"/>
<circle cx="19.5645" cy="19.5645" r="19.5645" transform="matrix(0.866025 0.5 -2.20305e-08 1 5.54688 41.4541)" fill="url(#paint15_linear_10906_112270)" fill-opacity="0.75"/>
<circle cx="19.5645" cy="19.5645" r="19.5645" transform="matrix(0.866025 0.5 -2.20305e-08 1 5.54688 41.4541)" fill="#B54242"/>
<circle cx="19.5645" cy="19.5645" r="19.5645" transform="matrix(0.866025 0.5 -2.20305e-08 1 5.54688 41.4541)" fill="url(#paint16_linear_10906_112270)" fill-opacity="0.75"/>
<circle cx="9.02394" cy="9.02394" r="9.02394" transform="matrix(0.866025 0.5 -2.20305e-08 1 14.7969 57.2432)" fill="white" fill-opacity="0.25"/>
<path d="M27.1636 74.1858C27.1636 70.7441 24.7472 66.5589 21.7666 64.838C20.2677 63.9726 18.9116 63.8952 17.9336 64.4697L12.0625 68.1774L19.6205 81.4124L25.517 77.7165L25.6337 77.6497C26.5804 77.0735 27.1636 75.8767 27.1636 74.1858Z" fill="#C4C4C4"/>
<path d="M27.1636 74.1858C27.1636 70.7441 24.7472 66.5589 21.7666 64.838C20.2677 63.9726 18.9116 63.8952 17.9336 64.4697L12.0625 68.1774L19.6205 81.4124L25.517 77.7165L25.6337 77.6497C26.5804 77.0735 27.1636 75.8767 27.1636 74.1858Z" fill="#F4F4F2"/>
<path d="M27.1636 74.1858C27.1636 70.7441 24.7472 66.5589 21.7666 64.838C20.2677 63.9726 18.9116 63.8952 17.9336 64.4697L12.0625 68.1774L19.6205 81.4124L25.517 77.7165L25.6337 77.6497C26.5804 77.0735 27.1636 75.8767 27.1636 74.1858Z" fill="url(#paint17_linear_10906_112270)" fill-opacity="0.75"/>
<circle cx="6.23189" cy="6.23189" r="6.23189" transform="matrix(0.866025 0.5 -2.20305e-08 1 10.6875 65.2979)" fill="#C4C4C4"/>
<circle cx="6.23189" cy="6.23189" r="6.23189" transform="matrix(0.866025 0.5 -2.20305e-08 1 10.6875 65.2979)" fill="#D7D7D7"/>
</g>
<rect x="37.3125" y="0.602539" width="62.3116" height="24.8744" rx="12.4372" fill="#9BD050"/>
<path d="M55.5331 10.8273C56.3539 10.8273 57.0939 11.0201 57.7531 11.4056C58.4123 11.7912 58.9284 12.3197 59.3015 12.9914C59.6871 13.6505 59.8799 14.3968 59.8799 15.2301C59.8799 16.0634 59.6747 16.8282 59.2642 17.5247C58.8662 18.2212 58.3003 18.7747 57.5665 19.1851C56.8327 19.5831 56.0057 19.7821 55.0853 19.7821C54.2272 19.7821 53.456 19.6017 52.772 19.2411C52.088 18.8804 51.5469 18.4015 51.1489 17.8046C50.751 17.2076 50.5146 16.5608 50.44 15.8644H53.1078C53.1576 16.2126 53.3628 16.5422 53.7234 16.8531C54.0966 17.164 54.5443 17.3195 55.0667 17.3195C55.701 17.3195 56.2171 17.1205 56.6151 16.7225C57.0131 16.3121 57.2121 15.8146 57.2121 15.2301C57.2121 14.6331 57.0131 14.1294 56.6151 13.7189C56.2171 13.3085 55.701 13.1033 55.0667 13.1033C54.1463 13.1033 53.4809 13.5137 53.0705 14.3346H50.7199L51.5594 6.48048H58.9471V8.94305H53.7234L53.4809 11.4056C54.053 11.0201 54.7371 10.8273 55.5331 10.8273ZM63.9505 12.0586C63.4281 12.0586 62.9431 11.9342 62.4953 11.6855C62.06 11.4243 61.7056 11.0698 61.4319 10.6221C61.1708 10.1743 61.0402 9.68306 61.0402 9.14826C61.0402 8.61346 61.1708 8.12219 61.4319 7.67445C61.7056 7.22671 62.06 6.87847 62.4953 6.62973C62.9431 6.36854 63.4281 6.23795 63.9505 6.23795C64.4728 6.23795 64.9517 6.36854 65.387 6.62973C65.8347 6.87847 66.1892 7.22671 66.4504 7.67445C66.724 8.12219 66.8608 8.61346 66.8608 9.14826C66.8608 9.68306 66.724 10.1743 66.4504 10.6221C66.1892 11.0698 65.8347 11.4243 65.387 11.6855C64.9517 11.9342 64.4728 12.0586 63.9505 12.0586ZM64.137 19.5396H62.1968L70.2935 6.48048H72.2337L64.137 19.5396ZM63.9505 10.4728C64.2863 10.4728 64.5723 10.3547 64.8086 10.1184C65.0574 9.86962 65.1818 9.54625 65.1818 9.14826C65.1818 8.75027 65.0574 8.43312 64.8086 8.19681C64.5723 7.94807 64.2863 7.8237 63.9505 7.8237C63.6147 7.8237 63.3224 7.94807 63.0737 8.19681C62.8373 8.43312 62.7192 8.75027 62.7192 9.14826C62.7192 9.54625 62.8373 9.86962 63.0737 10.1184C63.3224 10.3547 63.6147 10.4728 63.9505 10.4728ZM70.48 19.7821C69.9576 19.7821 69.4726 19.6577 69.0249 19.409C68.5896 19.1478 68.2351 18.7933 67.9615 18.3456C67.7003 17.8978 67.5697 17.4066 67.5697 16.8718C67.5697 16.337 67.7003 15.8457 67.9615 15.398C68.2351 14.9502 68.5896 14.602 69.0249 14.3532C69.4726 14.0921 69.9576 13.9615 70.48 13.9615C71.0024 13.9615 71.4812 14.0921 71.9165 14.3532C72.3642 14.602 72.7187 14.9502 72.9799 15.398C73.2535 15.8457 73.3903 16.337 73.3903 16.8718C73.3903 17.4066 73.2535 17.8978 72.9799 18.3456C72.7187 18.7933 72.3642 19.1478 71.9165 19.409C71.4812 19.6577 71.0024 19.7821 70.48 19.7821ZM70.48 18.1963C70.8158 18.1963 71.1019 18.0782 71.3382 17.8419C71.5869 17.5931 71.7113 17.2698 71.7113 16.8718C71.7113 16.4738 71.5869 16.1566 71.3382 15.9203C71.1019 15.6716 70.8158 15.5472 70.48 15.5472C70.1442 15.5472 69.8519 15.6716 69.6032 15.9203C69.3669 16.1566 69.2487 16.4738 69.2487 16.8718C69.2487 17.2698 69.3669 17.5931 69.6032 17.8419C69.8519 18.0782 70.1442 18.1963 70.48 18.1963Z" fill="white"/>
<path fill-rule="evenodd" clip-rule="evenodd" d="M87.835 7.5986H79.5435V6.04395H87.835V7.5986ZM79.6531 9.95278H87.835V11.5074H81.2078V13.5063H85.3476C87.1506 13.5063 88.6123 14.968 88.6123 16.771C88.6123 18.5741 87.1506 20.0358 85.3476 20.0358H79.6531V9.95278ZM81.2078 15.0609V18.4812H85.3476C86.292 18.4812 87.0577 17.7155 87.0577 16.771C87.0577 15.8266 86.292 15.0609 85.3476 15.0609H81.2078Z" fill="white"/>
<defs>
<linearGradient id="paint0_linear_10906_112270" x1="79.8564" y1="57.46" x2="31.1894" y2="31.5217" gradientUnits="userSpaceOnUse">
<stop stop-color="#9EC1D5" stop-opacity="0.36"/>
<stop offset="1" stop-color="#9FB1CB"/>
</linearGradient>
<linearGradient id="paint1_linear_10906_112270" x1="84.9426" y1="59.5175" x2="64.8216" y2="0.099973" gradientUnits="userSpaceOnUse">
<stop stop-color="#FFA877"/>
<stop offset="1" stop-color="#FF0707"/>
</linearGradient>
<linearGradient id="paint2_linear_10906_112270" x1="30.0511" y1="27.1994" x2="-10.3853" y2="8.0699" gradientUnits="userSpaceOnUse">
<stop stop-color="#9EC1D5" stop-opacity="0.36"/>
<stop offset="1" stop-color="#9FB1CB"/>
</linearGradient>
<linearGradient id="paint3_linear_10906_112270" x1="46.4065" y1="-23.2032" x2="-11.7392" y2="34.4638" gradientUnits="userSpaceOnUse">
<stop stop-color="#FFA877"/>
<stop offset="1" stop-color="#FF0707"/>
</linearGradient>
<linearGradient id="paint4_linear_10906_112270" x1="72.5907" y1="61.6397" x2="23.9238" y2="35.7014" gradientUnits="userSpaceOnUse">
<stop stop-color="#9EC1D5" stop-opacity="0.36"/>
<stop offset="1" stop-color="#9FB1CB"/>
</linearGradient>
<linearGradient id="paint5_linear_10906_112270" x1="77.677" y1="63.6972" x2="57.5559" y2="4.27966" gradientUnits="userSpaceOnUse">
<stop stop-color="#FFA877"/>
<stop offset="1" stop-color="#FF0707"/>
</linearGradient>
<linearGradient id="paint6_linear_10906_112270" x1="30.0511" y1="27.1994" x2="-10.3853" y2="8.0699" gradientUnits="userSpaceOnUse">
<stop stop-color="#9EC1D5" stop-opacity="0.36"/>
<stop offset="1" stop-color="#9FB1CB"/>
</linearGradient>
<linearGradient id="paint7_linear_10906_112270" x1="46.4065" y1="-23.2032" x2="-11.7392" y2="34.4638" gradientUnits="userSpaceOnUse">
<stop stop-color="#FFA877"/>
<stop offset="1" stop-color="#FF0707"/>
</linearGradient>
<linearGradient id="paint8_linear_10906_112270" x1="60.2515" y1="54.6312" x2="44.7496" y2="46.3691" gradientUnits="userSpaceOnUse">
<stop stop-color="#EBEBEB"/>
<stop offset="1" stop-color="#D7D7D7"/>
</linearGradient>
<linearGradient id="paint9_linear_10906_112270" x1="43.8329" y1="78.9366" x2="-4.834" y2="52.9983" gradientUnits="userSpaceOnUse">
<stop stop-color="#9EC1D5" stop-opacity="0.36"/>
<stop offset="1" stop-color="#9FB1CB"/>
</linearGradient>
<linearGradient id="paint10_linear_10906_112270" x1="48.9192" y1="80.9941" x2="28.7981" y2="21.5765" gradientUnits="userSpaceOnUse">
<stop stop-color="#FFA877"/>
<stop offset="1" stop-color="#FF0707"/>
</linearGradient>
<linearGradient id="paint11_linear_10906_112270" x1="30.0511" y1="27.1994" x2="-10.3853" y2="8.0699" gradientUnits="userSpaceOnUse">
<stop stop-color="#9EC1D5" stop-opacity="0.36"/>
<stop offset="1" stop-color="#9FB1CB"/>
</linearGradient>
<linearGradient id="paint12_linear_10906_112270" x1="46.4065" y1="-23.2032" x2="-11.7392" y2="34.4638" gradientUnits="userSpaceOnUse">
<stop stop-color="#FFA877"/>
<stop offset="1" stop-color="#FF0707"/>
</linearGradient>
<linearGradient id="paint13_linear_10906_112270" x1="36.5751" y1="83.1162" x2="-12.0918" y2="57.178" gradientUnits="userSpaceOnUse">
<stop stop-color="#9EC1D5" stop-opacity="0.36"/>
<stop offset="1" stop-color="#9FB1CB"/>
</linearGradient>
<linearGradient id="paint14_linear_10906_112270" x1="41.6614" y1="85.1738" x2="21.5403" y2="25.7562" gradientUnits="userSpaceOnUse">
<stop stop-color="#FFA877"/>
<stop offset="1" stop-color="#FF0707"/>
</linearGradient>
<linearGradient id="paint15_linear_10906_112270" x1="30.0511" y1="27.1994" x2="-10.3853" y2="8.0699" gradientUnits="userSpaceOnUse">
<stop stop-color="#9EC1D5" stop-opacity="0.36"/>
<stop offset="1" stop-color="#9FB1CB"/>
</linearGradient>
<linearGradient id="paint16_linear_10906_112270" x1="46.4065" y1="-23.2032" x2="-11.7392" y2="34.4638" gradientUnits="userSpaceOnUse">
<stop stop-color="#FFA877"/>
<stop offset="1" stop-color="#FF0707"/>
</linearGradient>
<linearGradient id="paint17_linear_10906_112270" x1="24.3717" y1="76.0534" x2="8.86983" y2="67.7913" gradientUnits="userSpaceOnUse">
<stop stop-color="#EBEBEB"/>
<stop offset="1" stop-color="#D7D7D7"/>
</linearGradient>
<clipPath id="clip0_10906_112270">
<rect width="83.0577" height="74.5825" fill="white" transform="translate(5.55469 19.7119)"/>
</clipPath>
</defs>
</svg>
