<svg width="100" height="106" viewBox="0 0 100 106" fill="none" xmlns="http://www.w3.org/2000/svg">
<g clip-path="url(#clip0_10906_112498)">
<path d="M21.6821 92.6565L30.8348 91.2039L29.6587 34.7109C27.2729 40.0875 20.5241 51.6108 20.9318 60.882V92.0159C20.9318 92.4147 21.2882 92.719 21.6821 92.6565Z" fill="#E7C6C6"/>
<path d="M21.6821 92.6565L30.8348 91.2039L29.6587 34.7109C27.2729 40.0875 20.5241 51.6108 20.9318 60.882V92.0159C20.9318 92.4147 21.2882 92.719 21.6821 92.6565Z" fill="url(#paint0_linear_10906_112498)" fill-opacity="0.75"/>
<path d="M37.7159 100.836L21.3828 92.5948L30.8431 91.1875L37.7159 100.836Z" fill="#E7C6C6"/>
<path d="M37.7159 100.836L21.3828 92.5948L30.8431 91.1875L37.7159 100.836Z" fill="url(#paint1_linear_10906_112498)" fill-opacity="0.75"/>
<path d="M30.8302 91.1901L29.4688 35.5078C32.6305 44.7968 37.2478 61.5795 37.2478 67.1715V100.223L30.8302 91.1901Z" fill="#B54242"/>
<path d="M30.8302 91.1901L29.4688 35.5078C32.6305 44.7968 37.2478 61.5795 37.2478 67.1715V100.223L30.8302 91.1901Z" fill="url(#paint2_linear_10906_112498)" fill-opacity="0.75"/>
<path fill-rule="evenodd" clip-rule="evenodd" d="M71.5416 34.8438C71.5466 34.8409 71.549 34.835 71.5474 34.8294L65.88 14.9991C65.6471 14.1843 64.7082 13.8079 63.9769 14.2362L30.4162 33.8947C29.6513 34.3427 29.2859 35.2512 29.5275 36.1041L35.1055 55.7973C35.1068 55.8018 35.1049 55.8066 35.1008 55.8089C35.0967 55.8113 35.0946 55.8159 35.096 55.8204C35.7438 57.9001 37.0346 63.6303 37.0346 69.9806V99.7646C37.0346 100.766 38.1202 101.389 38.9851 100.885L72.4426 81.3897C73.0409 81.0411 73.4089 80.4008 73.4089 79.7083V48.5716C73.4664 45.6146 73.1712 38.7525 71.5363 34.8594C71.5338 34.8535 71.5361 34.8469 71.5416 34.8438ZM44.2758 33.649L55.904 26.8804C57.0872 26.2309 59.5653 26.2524 60.1955 29.5398C60.8258 32.8272 58.6629 34.863 57.5026 35.47L45.7569 42.1879C44.8258 42.6463 42.7546 42.8698 41.918 40.0966C40.8724 36.6302 43.4446 34.1329 44.2758 33.649Z" fill="#C4C4C4"/>
<path fill-rule="evenodd" clip-rule="evenodd" d="M71.5416 34.8438C71.5466 34.8409 71.549 34.835 71.5474 34.8294L65.88 14.9991C65.6471 14.1843 64.7082 13.8079 63.9769 14.2362L30.4162 33.8947C29.6513 34.3427 29.2859 35.2512 29.5275 36.1041L35.1055 55.7973C35.1068 55.8018 35.1049 55.8066 35.1008 55.8089C35.0967 55.8113 35.0946 55.8159 35.096 55.8204C35.7438 57.9001 37.0346 63.6303 37.0346 69.9806V99.7646C37.0346 100.766 38.1202 101.389 38.9851 100.885L72.4426 81.3897C73.0409 81.0411 73.4089 80.4008 73.4089 79.7083V48.5716C73.4664 45.6146 73.1712 38.7525 71.5363 34.8594C71.5338 34.8535 71.5361 34.8469 71.5416 34.8438ZM44.2758 33.649L55.904 26.8804C57.0872 26.2309 59.5653 26.2524 60.1955 29.5398C60.8258 32.8272 58.6629 34.863 57.5026 35.47L45.7569 42.1879C44.8258 42.6463 42.7546 42.8698 41.918 40.0966C40.8724 36.6302 43.4446 34.1329 44.2758 33.649Z" fill="#E7C6C6"/>
<path fill-rule="evenodd" clip-rule="evenodd" d="M71.5416 34.8438C71.5466 34.8409 71.549 34.835 71.5474 34.8294L65.88 14.9991C65.6471 14.1843 64.7082 13.8079 63.9769 14.2362L30.4162 33.8947C29.6513 34.3427 29.2859 35.2512 29.5275 36.1041L35.1055 55.7973C35.1068 55.8018 35.1049 55.8066 35.1008 55.8089C35.0967 55.8113 35.0946 55.8159 35.096 55.8204C35.7438 57.9001 37.0346 63.6303 37.0346 69.9806V99.7646C37.0346 100.766 38.1202 101.389 38.9851 100.885L72.4426 81.3897C73.0409 81.0411 73.4089 80.4008 73.4089 79.7083V48.5716C73.4664 45.6146 73.1712 38.7525 71.5363 34.8594C71.5338 34.8535 71.5361 34.8469 71.5416 34.8438ZM44.2758 33.649L55.904 26.8804C57.0872 26.2309 59.5653 26.2524 60.1955 29.5398C60.8258 32.8272 58.6629 34.863 57.5026 35.47L45.7569 42.1879C44.8258 42.6463 42.7546 42.8698 41.918 40.0966C40.8724 36.6302 43.4446 34.1329 44.2758 33.649Z" fill="url(#paint3_linear_10906_112498)" fill-opacity="0.75"/>
<path fill-rule="evenodd" clip-rule="evenodd" d="M43.0051 41.9009C43.2719 41.8505 43.5111 41.7663 43.7022 41.6722L55.448 34.9542C56.6082 34.3472 58.7711 32.3114 58.1409 29.024C57.9068 27.803 57.4178 27.0325 56.8349 26.5796C58.0862 26.3921 59.7169 26.9616 60.2112 29.5396C60.8415 32.827 58.6785 34.8628 57.5183 35.4698L45.7726 42.1878C45.132 42.5032 43.9517 42.7073 43.0051 41.9009Z" fill="#B54242"/>
<path fill-rule="evenodd" clip-rule="evenodd" d="M43.0051 41.9009C43.2719 41.8505 43.5111 41.7663 43.7022 41.6722L55.448 34.9542C56.6082 34.3472 58.7711 32.3114 58.1409 29.024C57.9068 27.803 57.4178 27.0325 56.8349 26.5796C58.0862 26.3921 59.7169 26.9616 60.2112 29.5396C60.8415 32.827 58.6785 34.8628 57.5183 35.4698L45.7726 42.1878C45.132 42.5032 43.9517 42.7073 43.0051 41.9009Z" fill="url(#paint4_linear_10906_112498)" fill-opacity="0.75"/>
<path fill-rule="evenodd" clip-rule="evenodd" d="M57.2797 61.0351C58.1335 57.1222 59.6157 54.9161 60.588 54.4716C61.6749 53.9751 62.4022 56.766 62.1354 60.0387C61.9219 62.6568 60.0307 63.7027 59.1117 63.8983C58.3884 64.3015 56.736 63.5269 57.2797 61.0351ZM50.1485 67.3591C49.3757 65.7478 50.4236 60.3116 51.5633 59.6696C52.2314 59.054 54.4321 59.5911 54.9298 63.3899C55.3281 66.429 53.323 67.7739 52.2707 68.0664C51.7205 68.276 50.6332 68.2105 50.1485 67.3591ZM68.2436 58.943C68.2436 58.1426 67.9092 57.5202 66.8562 57.8759C65.8033 58.2316 64.2179 60.8224 63.459 62.2335C62.9254 63.0872 62.5359 65.5237 63.7258 66.1465C65.6289 67.1425 67.0634 64.6596 67.4432 63.7453C67.9234 62.5892 68.2436 61.2551 68.2436 58.943ZM57.9633 67.479C51.4697 69.2256 48.9823 79.5687 49.1228 83.7504C49.1228 89.2181 53.5353 84.9347 54.3437 84.0599C54.4366 83.9595 54.544 83.8281 54.6668 83.6779C55.3074 82.8944 56.3673 81.598 57.9633 81.5049C59.374 81.4226 60.2509 81.2371 60.8111 80.9194C64.4522 78.8548 63.6411 73.5027 63.1 71.338C62.5854 69.617 60.8377 66.4356 57.9633 67.479ZM44.7498 70.7005C44.0775 71.4978 43.6307 73.0932 43.9828 74.8207C44.4098 76.916 44.821 77.6514 46.6556 76.916C48.4234 76.2073 49.1861 73.7845 49.1387 72.4323C49.099 71.3022 48.5535 70.2815 47.1063 70.0127C45.9486 69.7976 45.0899 70.2972 44.7498 70.7005Z" fill="white"/>
<path fill-rule="evenodd" clip-rule="evenodd" d="M57.2797 61.0351C58.1335 57.1222 59.6157 54.9161 60.588 54.4716C61.6749 53.9751 62.4022 56.766 62.1354 60.0387C61.9219 62.6568 60.0307 63.7027 59.1117 63.8983C58.3884 64.3015 56.736 63.5269 57.2797 61.0351ZM50.1485 67.3591C49.3757 65.7478 50.4236 60.3116 51.5633 59.6696C52.2314 59.054 54.4321 59.5911 54.9298 63.3899C55.3281 66.429 53.323 67.7739 52.2707 68.0664C51.7205 68.276 50.6332 68.2105 50.1485 67.3591ZM68.2436 58.943C68.2436 58.1426 67.9092 57.5202 66.8562 57.8759C65.8033 58.2316 64.2179 60.8224 63.459 62.2335C62.9254 63.0872 62.5359 65.5237 63.7258 66.1465C65.6289 67.1425 67.0634 64.6596 67.4432 63.7453C67.9234 62.5892 68.2436 61.2551 68.2436 58.943ZM57.9633 67.479C51.4697 69.2256 48.9823 79.5687 49.1228 83.7504C49.1228 89.2181 53.5353 84.9347 54.3437 84.0599C54.4366 83.9595 54.544 83.8281 54.6668 83.6779C55.3074 82.8944 56.3673 81.598 57.9633 81.5049C59.374 81.4226 60.2509 81.2371 60.8111 80.9194C64.4522 78.8548 63.6411 73.5027 63.1 71.338C62.5854 69.617 60.8377 66.4356 57.9633 67.479ZM44.7498 70.7005C44.0775 71.4978 43.6307 73.0932 43.9828 74.8207C44.4098 76.916 44.821 77.6514 46.6556 76.916C48.4234 76.2073 49.1861 73.7845 49.1387 72.4323C49.099 71.3022 48.5535 70.2815 47.1063 70.0127C45.9486 69.7976 45.0899 70.2972 44.7498 70.7005Z" fill="url(#paint5_linear_10906_112498)" fill-opacity="0.3"/>
</g>
<rect x="37.1953" y="0.984375" width="62.2" height="24.8" rx="12.4" fill="#9BD050"/>
<path d="M55.3613 11.1986C56.1797 11.1986 56.9175 11.3908 57.5747 11.7752C58.2319 12.1596 58.7465 12.6866 59.1185 13.3562C59.5029 14.0134 59.6951 14.7574 59.6951 15.5882C59.6951 16.419 59.4905 17.1816 59.0813 17.876C58.6845 18.5704 58.1203 19.1222 57.3887 19.5314C56.6571 19.9282 55.8325 20.1266 54.9149 20.1266C54.0593 20.1266 53.2905 19.9468 52.6085 19.5872C51.9265 19.2276 51.3871 18.7502 50.9903 18.155C50.5935 17.5598 50.3579 16.915 50.2835 16.2206H52.9433C52.9929 16.5678 53.1975 16.8964 53.5571 17.2064C53.9291 17.5164 54.3755 17.6714 54.8963 17.6714C55.5287 17.6714 56.0433 17.473 56.4401 17.0762C56.8369 16.667 57.0353 16.171 57.0353 15.5882C57.0353 14.993 56.8369 14.4908 56.4401 14.0816C56.0433 13.6724 55.5287 13.4678 54.8963 13.4678C53.9787 13.4678 53.3153 13.877 52.9061 14.6954H50.5625L51.3995 6.86476H58.7651V9.31996H53.5571L53.3153 11.7752C53.8857 11.3908 54.5677 11.1986 55.3613 11.1986ZM63.7536 12.4262C63.2328 12.4262 62.7492 12.3022 62.3028 12.0542C61.8688 11.7938 61.5154 11.4404 61.2426 10.994C60.9822 10.5476 60.852 10.0578 60.852 9.52456C60.852 8.99136 60.9822 8.50156 61.2426 8.05516C61.5154 7.60876 61.8688 7.26156 62.3028 7.01356C62.7492 6.75316 63.2328 6.62296 63.7536 6.62296C64.2744 6.62296 64.7518 6.75316 65.1858 7.01356C65.6322 7.26156 65.9856 7.60876 66.246 8.05516C66.5188 8.50156 66.6552 8.99136 66.6552 9.52456C66.6552 10.0578 66.5188 10.5476 66.246 10.994C65.9856 11.4404 65.6322 11.7938 65.1858 12.0542C64.7518 12.3022 64.2744 12.4262 63.7536 12.4262ZM63.9396 19.8848H62.0052L70.0776 6.86476H72.012L63.9396 19.8848ZM63.7536 10.8452C64.0884 10.8452 64.3736 10.7274 64.6092 10.4918C64.8572 10.2438 64.9812 9.92136 64.9812 9.52456C64.9812 9.12776 64.8572 8.81156 64.6092 8.57596C64.3736 8.32796 64.0884 8.20396 63.7536 8.20396C63.4188 8.20396 63.1274 8.32796 62.8794 8.57596C62.6438 8.81156 62.526 9.12776 62.526 9.52456C62.526 9.92136 62.6438 10.2438 62.8794 10.4918C63.1274 10.7274 63.4188 10.8452 63.7536 10.8452ZM70.2636 20.1266C69.7428 20.1266 69.2592 20.0026 68.8128 19.7546C68.3788 19.4942 68.0254 19.1408 67.7526 18.6944C67.4922 18.248 67.362 17.7582 67.362 17.225C67.362 16.6918 67.4922 16.202 67.7526 15.7556C68.0254 15.3092 68.3788 14.962 68.8128 14.714C69.2592 14.4536 69.7428 14.3234 70.2636 14.3234C70.7844 14.3234 71.2618 14.4536 71.6958 14.714C72.1422 14.962 72.4956 15.3092 72.756 15.7556C73.0288 16.202 73.1652 16.6918 73.1652 17.225C73.1652 17.7582 73.0288 18.248 72.756 18.6944C72.4956 19.1408 72.1422 19.4942 71.6958 19.7546C71.2618 20.0026 70.7844 20.1266 70.2636 20.1266ZM70.2636 18.5456C70.5984 18.5456 70.8836 18.4278 71.1192 18.1922C71.3672 17.9442 71.4912 17.6218 71.4912 17.225C71.4912 16.8282 71.3672 16.512 71.1192 16.2764C70.8836 16.0284 70.5984 15.9044 70.2636 15.9044C69.9288 15.9044 69.6374 16.0284 69.3894 16.2764C69.1538 16.512 69.036 16.8282 69.036 17.225C69.036 17.6218 69.1538 17.9442 69.3894 18.1922C69.6374 18.4278 69.9288 18.5456 70.2636 18.5456Z" fill="white"/>
<path fill-rule="evenodd" clip-rule="evenodd" d="M87.6412 7.95918H79.3745V6.40918H87.6412V7.95918ZM79.4838 10.3063H87.6412V11.8563H81.0338V13.8492H85.1612C86.9589 13.8492 88.4162 15.3065 88.4162 17.1042C88.4162 18.9019 86.9589 20.3592 85.1612 20.3592H79.4838V10.3063ZM81.0338 15.3992V18.8092H85.1612C86.1029 18.8092 86.8662 18.0458 86.8662 17.1042C86.8662 16.1625 86.1029 15.3992 85.1612 15.3992H81.0338Z" fill="white"/>
<defs>
<linearGradient id="paint0_linear_10906_112498" x1="50.6104" y1="-21.3822" x2="-34.9493" y2="-17.2336" gradientUnits="userSpaceOnUse">
<stop stop-color="#FFA877"/>
<stop offset="1" stop-color="#FF0707"/>
</linearGradient>
<linearGradient id="paint1_linear_10906_112498" x1="61.5386" y1="81.519" x2="14.2093" y2="118.345" gradientUnits="userSpaceOnUse">
<stop stop-color="#FFA877"/>
<stop offset="1" stop-color="#FF0707"/>
</linearGradient>
<linearGradient id="paint2_linear_10906_112498" x1="11.2336" y1="-10.212" x2="-53.1496" y2="72.4637" gradientUnits="userSpaceOnUse">
<stop stop-color="#FFA877"/>
<stop offset="1" stop-color="#FF0707"/>
</linearGradient>
<linearGradient id="paint3_linear_10906_112498" x1="73.4154" y1="-31.2286" x2="-40.4981" y2="5.06894" gradientUnits="userSpaceOnUse">
<stop stop-color="#FFA877"/>
<stop offset="1" stop-color="#FF0707"/>
</linearGradient>
<linearGradient id="paint4_linear_10906_112498" x1="27.5103" y1="21.5896" x2="16.0987" y2="47.9495" gradientUnits="userSpaceOnUse">
<stop stop-color="#FFA877"/>
<stop offset="1" stop-color="#FF0707"/>
</linearGradient>
<linearGradient id="paint5_linear_10906_112498" x1="60.9822" y1="50.4859" x2="23.2656" y2="86.2878" gradientUnits="userSpaceOnUse">
<stop stop-color="#9EC1D5" stop-opacity="0.36"/>
<stop offset="1" stop-color="#9FB1CB"/>
</linearGradient>
<clipPath id="clip0_10906_112498">
<rect width="53.8378" height="88.8649" fill="white" transform="translate(19.9219 13.3906)"/>
</clipPath>
</defs>
</svg>
