<svg width="112" height="112" viewBox="0 0 112 112" fill="none" xmlns="http://www.w3.org/2000/svg">
<g clip-path="url(#clip0_10906_112327)">
<path d="M25.2607 106.397L73.8471 81.3437C75.9154 80.1495 77.5921 77.2454 77.5921 74.857V32.7259L73.0265 22.8283C72.6136 21.9332 72.5244 20.9116 72.129 20.0085C72.0064 19.7285 71.8451 19.4936 71.6512 19.3074C70.9679 18.6514 69.88 18.5999 68.6547 19.3074L25.2607 44.3609C23.1924 45.5551 21.5156 48.4592 21.5156 50.8476L21.5156 104.235C21.5156 105.373 21.8961 106.188 22.5182 106.601C23.202 107.055 24.1777 107.023 25.2607 106.397Z" fill="#C4C4C4"/>
<path d="M25.2607 106.397L73.8471 81.3437C75.9154 80.1495 77.5921 77.2454 77.5921 74.857V32.7259L73.0265 22.8283C72.6136 21.9332 72.5244 20.9116 72.129 20.0085C72.0064 19.7285 71.8451 19.4936 71.6512 19.3074C70.9679 18.6514 69.88 18.5999 68.6547 19.3074L25.2607 44.3609C23.1924 45.5551 21.5156 48.4592 21.5156 50.8476L21.5156 104.235C21.5156 105.373 21.8961 106.188 22.5182 106.601C23.202 107.055 24.1777 107.023 25.2607 106.397Z" fill="#B54242"/>
<path d="M25.2607 106.397L73.8471 81.3437C75.9154 80.1495 77.5921 77.2454 77.5921 74.857V32.7259L73.0265 22.8283C72.6136 21.9332 72.5244 20.9116 72.129 20.0085C72.0064 19.7285 71.8451 19.4936 71.6512 19.3074C70.9679 18.6514 69.88 18.5999 68.6547 19.3074L25.2607 44.3609C23.1924 45.5551 21.5156 48.4592 21.5156 50.8476L21.5156 104.235C21.5156 105.373 21.8961 106.188 22.5182 106.601C23.202 107.055 24.1777 107.023 25.2607 106.397Z" fill="url(#paint0_linear_10906_112327)" fill-opacity="0.75"/>
<path d="M71.6512 19.3074C71.8451 19.4936 72.0064 19.7285 72.129 20.0085C72.5244 20.9116 72.6136 21.9332 73.0265 22.8283L77.5921 32.7259L79.6644 24.9761L71.6512 19.3074Z" fill="#C4C4C4"/>
<path d="M71.6512 19.3074C71.8451 19.4936 72.0064 19.7285 72.129 20.0085C72.5244 20.9116 72.6136 21.9332 73.0265 22.8283L77.5921 32.7259L79.6644 24.9761L71.6512 19.3074Z" fill="#B54242"/>
<path d="M71.6512 19.3074C71.8451 19.4936 72.0064 19.7285 72.129 20.0085C72.5244 20.9116 72.6136 21.9332 73.0265 22.8283L77.5921 32.7259L79.6644 24.9761L71.6512 19.3074Z" fill="url(#paint1_linear_10906_112327)" fill-opacity="0.75"/>
<path d="M73.8471 81.3437L25.2607 106.397C24.1777 107.023 23.202 107.055 22.5182 106.601L32.2649 110.578L77.5921 84.6976V74.857C77.5921 77.2454 75.9154 80.1495 73.8471 81.3437Z" fill="#C4C4C4"/>
<path d="M73.8471 81.3437L25.2607 106.397C24.1777 107.023 23.202 107.055 22.5182 106.601L32.2649 110.578L77.5921 84.6976V74.857C77.5921 77.2454 75.9154 80.1495 73.8471 81.3437Z" fill="#B54242"/>
<path d="M73.8471 81.3437L25.2607 106.397C24.1777 107.023 23.202 107.055 22.5182 106.601L32.2649 110.578L77.5921 84.6976V74.857C77.5921 77.2454 75.9154 80.1495 73.8471 81.3437Z" fill="url(#paint2_linear_10906_112327)" fill-opacity="0.75"/>
<path fill-rule="evenodd" clip-rule="evenodd" d="M74.5347 87.2121L35.4563 109.774C32.1963 111.656 29.5535 110.13 29.5535 106.366L29.5535 59.066C29.5535 55.3016 32.1963 50.7242 35.4563 48.842L74.5347 26.2801C77.7948 24.3979 80.4376 25.9237 80.4376 29.6881L80.4376 76.988C80.4376 80.7524 77.7948 85.3299 74.5347 87.2121ZM37.276 54.371C35.6437 55.3135 34.3204 57.6055 34.3204 59.4903C34.3204 61.3752 35.6437 62.1392 37.276 61.1968C38.9084 60.2543 40.2317 57.9624 40.2317 56.0775C40.2317 54.1926 38.9084 53.4286 37.276 54.371ZM69.788 39.0131C69.788 37.1283 71.1113 34.8363 72.7436 33.8938C74.376 32.9514 75.6992 33.7154 75.6992 35.6003C75.6992 37.4851 74.376 39.7771 72.7436 40.7196C71.1113 41.662 69.788 40.898 69.788 39.0131ZM72.7436 47.5453C71.1113 48.4877 69.788 50.7797 69.788 52.6646C69.788 54.5495 71.1113 55.3135 72.7436 54.371C74.376 53.4286 75.6992 51.1366 75.6992 49.2517C75.6992 47.3669 74.376 46.6029 72.7436 47.5453ZM72.7436 74.8483C71.1113 75.7907 69.788 78.0827 69.788 79.9676C69.788 81.8524 71.1113 82.6164 72.7436 81.674C74.376 80.7316 75.6992 78.4396 75.6992 76.5547C75.6992 74.6698 74.376 73.9058 72.7436 74.8483ZM34.3204 100.445C34.3204 98.5599 35.6437 96.2679 37.276 95.3255C38.9084 94.383 40.2317 95.147 40.2317 97.0319C40.2317 98.9168 38.9084 101.209 37.276 102.151C35.6437 103.094 34.3204 102.33 34.3204 100.445ZM72.7436 61.1968C71.1113 62.1392 69.788 64.4312 69.788 66.3161C69.788 68.201 71.1113 68.965 72.7436 68.0225C74.376 67.0801 75.6992 64.7881 75.6992 62.9032C75.6992 61.0183 74.376 60.2543 72.7436 61.1968ZM37.276 81.674C35.6437 82.6164 34.3204 84.9084 34.3204 86.7933C34.3204 88.6782 35.6437 89.4422 37.276 88.4997C38.9084 87.5573 40.2317 85.2653 40.2317 83.3804C40.2317 81.4956 38.9084 80.7316 37.276 81.674ZM34.3204 73.1418C34.3204 71.2569 35.6437 68.965 37.276 68.0225C38.9084 67.0801 40.2317 67.8441 40.2317 69.729C40.2317 71.6138 38.9084 73.9058 37.276 74.8483C35.6437 75.7907 34.3204 75.0267 34.3204 73.1418Z" fill="#C4C4C4"/>
<path fill-rule="evenodd" clip-rule="evenodd" d="M74.5347 87.2121L35.4563 109.774C32.1963 111.656 29.5535 110.13 29.5535 106.366L29.5535 59.066C29.5535 55.3016 32.1963 50.7242 35.4563 48.842L74.5347 26.2801C77.7948 24.3979 80.4376 25.9237 80.4376 29.6881L80.4376 76.988C80.4376 80.7524 77.7948 85.3299 74.5347 87.2121ZM37.276 54.371C35.6437 55.3135 34.3204 57.6055 34.3204 59.4903C34.3204 61.3752 35.6437 62.1392 37.276 61.1968C38.9084 60.2543 40.2317 57.9624 40.2317 56.0775C40.2317 54.1926 38.9084 53.4286 37.276 54.371ZM69.788 39.0131C69.788 37.1283 71.1113 34.8363 72.7436 33.8938C74.376 32.9514 75.6992 33.7154 75.6992 35.6003C75.6992 37.4851 74.376 39.7771 72.7436 40.7196C71.1113 41.662 69.788 40.898 69.788 39.0131ZM72.7436 47.5453C71.1113 48.4877 69.788 50.7797 69.788 52.6646C69.788 54.5495 71.1113 55.3135 72.7436 54.371C74.376 53.4286 75.6992 51.1366 75.6992 49.2517C75.6992 47.3669 74.376 46.6029 72.7436 47.5453ZM72.7436 74.8483C71.1113 75.7907 69.788 78.0827 69.788 79.9676C69.788 81.8524 71.1113 82.6164 72.7436 81.674C74.376 80.7316 75.6992 78.4396 75.6992 76.5547C75.6992 74.6698 74.376 73.9058 72.7436 74.8483ZM34.3204 100.445C34.3204 98.5599 35.6437 96.2679 37.276 95.3255C38.9084 94.383 40.2317 95.147 40.2317 97.0319C40.2317 98.9168 38.9084 101.209 37.276 102.151C35.6437 103.094 34.3204 102.33 34.3204 100.445ZM72.7436 61.1968C71.1113 62.1392 69.788 64.4312 69.788 66.3161C69.788 68.201 71.1113 68.965 72.7436 68.0225C74.376 67.0801 75.6992 64.7881 75.6992 62.9032C75.6992 61.0183 74.376 60.2543 72.7436 61.1968ZM37.276 81.674C35.6437 82.6164 34.3204 84.9084 34.3204 86.7933C34.3204 88.6782 35.6437 89.4422 37.276 88.4997C38.9084 87.5573 40.2317 85.2653 40.2317 83.3804C40.2317 81.4956 38.9084 80.7316 37.276 81.674ZM34.3204 73.1418C34.3204 71.2569 35.6437 68.965 37.276 68.0225C38.9084 67.0801 40.2317 67.8441 40.2317 69.729C40.2317 71.6138 38.9084 73.9058 37.276 74.8483C35.6437 75.7907 34.3204 75.0267 34.3204 73.1418Z" fill="#E7C6C6"/>
<path fill-rule="evenodd" clip-rule="evenodd" d="M74.5347 87.2121L35.4563 109.774C32.1963 111.656 29.5535 110.13 29.5535 106.366L29.5535 59.066C29.5535 55.3016 32.1963 50.7242 35.4563 48.842L74.5347 26.2801C77.7948 24.3979 80.4376 25.9237 80.4376 29.6881L80.4376 76.988C80.4376 80.7524 77.7948 85.3299 74.5347 87.2121ZM37.276 54.371C35.6437 55.3135 34.3204 57.6055 34.3204 59.4903C34.3204 61.3752 35.6437 62.1392 37.276 61.1968C38.9084 60.2543 40.2317 57.9624 40.2317 56.0775C40.2317 54.1926 38.9084 53.4286 37.276 54.371ZM69.788 39.0131C69.788 37.1283 71.1113 34.8363 72.7436 33.8938C74.376 32.9514 75.6992 33.7154 75.6992 35.6003C75.6992 37.4851 74.376 39.7771 72.7436 40.7196C71.1113 41.662 69.788 40.898 69.788 39.0131ZM72.7436 47.5453C71.1113 48.4877 69.788 50.7797 69.788 52.6646C69.788 54.5495 71.1113 55.3135 72.7436 54.371C74.376 53.4286 75.6992 51.1366 75.6992 49.2517C75.6992 47.3669 74.376 46.6029 72.7436 47.5453ZM72.7436 74.8483C71.1113 75.7907 69.788 78.0827 69.788 79.9676C69.788 81.8524 71.1113 82.6164 72.7436 81.674C74.376 80.7316 75.6992 78.4396 75.6992 76.5547C75.6992 74.6698 74.376 73.9058 72.7436 74.8483ZM34.3204 100.445C34.3204 98.5599 35.6437 96.2679 37.276 95.3255C38.9084 94.383 40.2317 95.147 40.2317 97.0319C40.2317 98.9168 38.9084 101.209 37.276 102.151C35.6437 103.094 34.3204 102.33 34.3204 100.445ZM72.7436 61.1968C71.1113 62.1392 69.788 64.4312 69.788 66.3161C69.788 68.201 71.1113 68.965 72.7436 68.0225C74.376 67.0801 75.6992 64.7881 75.6992 62.9032C75.6992 61.0183 74.376 60.2543 72.7436 61.1968ZM37.276 81.674C35.6437 82.6164 34.3204 84.9084 34.3204 86.7933C34.3204 88.6782 35.6437 89.4422 37.276 88.4997C38.9084 87.5573 40.2317 85.2653 40.2317 83.3804C40.2317 81.4956 38.9084 80.7316 37.276 81.674ZM34.3204 73.1418C34.3204 71.2569 35.6437 68.965 37.276 68.0225C38.9084 67.0801 40.2317 67.8441 40.2317 69.729C40.2317 71.6138 38.9084 73.9058 37.276 74.8483C35.6437 75.7907 34.3204 75.0267 34.3204 73.1418Z" fill="url(#paint3_linear_10906_112327)" fill-opacity="0.75"/>
<path d="M46.8672 86.1263L46.8672 59.7803L66.8315 61.4269L46.8672 86.1263Z" fill="#F3F4F6"/>
<path d="M73.5103 16.4142V33.246C72.7186 33.4296 71.8796 33.767 71.0109 34.2686C66.2026 37.0447 62.3047 43.7961 62.3047 49.3482C62.3047 51.6111 62.9522 53.3255 64.0449 54.3748C64.4553 54.7688 64.9285 55.069 65.4538 55.2692C66.9615 55.8438 68.8983 55.5944 71.0109 54.3748C75.7928 51.6139 79.6742 44.9215 79.7168 39.3869L79.7521 39.3665V22.7112L85.6537 21.5041L92.9634 16.8328L87.5714 13.5381L73.5103 16.4142Z" fill="#A3ACB6"/>
<path d="M73.5103 16.4142V33.246C72.7186 33.4296 71.8796 33.767 71.0109 34.2686C66.2026 37.0447 62.3047 43.7961 62.3047 49.3482C62.3047 51.6111 62.9522 53.3255 64.0449 54.3748C64.4553 54.7688 64.9285 55.069 65.4538 55.2692C66.9615 55.8438 68.8983 55.5944 71.0109 54.3748C75.7928 51.6139 79.6742 44.9215 79.7168 39.3869L79.7521 39.3665V22.7112L85.6537 21.5041L92.9634 16.8328L87.5714 13.5381L73.5103 16.4142Z" fill="#ED890C"/>
<path d="M73.5103 16.4142V33.246C72.7186 33.4296 71.8796 33.767 71.0109 34.2686C66.2026 37.0447 62.3047 43.7961 62.3047 49.3482C62.3047 51.6111 62.9522 53.3255 64.0449 54.3748C64.4553 54.7688 64.9285 55.069 65.4538 55.2692C66.9615 55.8438 68.8983 55.5944 71.0109 54.3748C75.7928 51.6139 79.6742 44.9215 79.7168 39.3869L79.7521 39.3665V22.7112L85.6537 21.5041L92.9634 16.8328L87.5714 13.5381L73.5103 16.4142Z" fill="url(#paint4_linear_10906_112327)" fill-opacity="0.75"/>
<path d="M71.0109 54.3748C68.8983 55.5944 66.9615 55.8438 65.4538 55.2692L70.0814 58.2072L71.0109 54.3748Z" fill="#A3ACB6"/>
<path d="M71.0109 54.3748C68.8983 55.5944 66.9615 55.8438 65.4538 55.2692L70.0814 58.2072L71.0109 54.3748Z" fill="#ED890C"/>
<path d="M71.0109 54.3748C68.8983 55.5944 66.9615 55.8438 65.4538 55.2692L70.0814 58.2072L71.0109 54.3748Z" fill="url(#paint5_linear_10906_112327)" fill-opacity="0.75"/>
<path d="M78.995 19.7528V36.5429C78.2217 36.7295 77.3412 37.0682 76.4953 37.5566C71.687 40.3326 67.7891 47.084 67.7891 52.6362C67.7891 58.1883 71.687 60.4388 76.4953 57.6627C81.2771 54.9019 85.1586 48.2094 85.2011 42.6748V26.1186L91.1189 24.8717L92.9641 16.8193L78.995 19.7528Z" fill="#A3ACB6"/>
<path d="M78.995 19.7528V36.5429C78.2217 36.7295 77.3412 37.0682 76.4953 37.5566C71.687 40.3326 67.7891 47.084 67.7891 52.6362C67.7891 58.1883 71.687 60.4388 76.4953 57.6627C81.2771 54.9019 85.1586 48.2094 85.2011 42.6748V26.1186L91.1189 24.8717L92.9641 16.8193L78.995 19.7528Z" fill="white"/>
<path d="M78.995 19.7528V36.5429C78.2217 36.7295 77.3412 37.0682 76.4953 37.5566C71.687 40.3326 67.7891 47.084 67.7891 52.6362C67.7891 58.1883 71.687 60.4388 76.4953 57.6627C81.2771 54.9019 85.1586 48.2094 85.2011 42.6748V26.1186L91.1189 24.8717L92.9641 16.8193L78.995 19.7528Z" fill="url(#paint6_linear_10906_112327)" fill-opacity="0.75"/>
<path d="M73.4922 16.4209L78.975 19.7689V36.5756L73.4922 33.2276V16.4209Z" fill="black" fill-opacity="0.05"/>
</g>
<rect x="39.1328" y="0.491211" width="72.1264" height="26.0843" rx="13.0421" fill="#9BD050"/>
<path d="M52.4294 9.38217L56.0681 6.83895H58.2201V20.5332H55.4225V10.3212L53.7401 11.5146L52.4294 9.38217ZM65.6523 11.3972C66.5131 11.3972 67.2891 11.5993 67.9803 12.0036C68.6715 12.4079 69.2128 12.9622 69.604 13.6665C70.0083 14.3577 70.2105 15.1403 70.2105 16.0141C70.2105 16.8879 69.9953 17.69 69.5649 18.4204C69.1476 19.1507 68.5541 19.7311 67.7847 20.1615C67.0152 20.5789 66.1479 20.7875 65.1828 20.7875C64.2828 20.7875 63.4742 20.5984 62.7569 20.2202C62.0396 19.842 61.4723 19.3398 61.0549 18.7138C60.6376 18.0878 60.3898 17.4096 60.3115 16.6792H63.1091C63.1612 17.0444 63.3764 17.39 63.7546 17.7161C64.1459 18.0422 64.6154 18.2052 65.1632 18.2052C65.8283 18.2052 66.3696 17.9965 66.7869 17.5792C67.2043 17.1488 67.413 16.6271 67.413 16.0141C67.413 15.3881 67.2043 14.8599 66.7869 14.4295C66.3696 13.9991 65.8283 13.7839 65.1632 13.7839C64.1981 13.7839 63.5003 14.2143 63.0699 15.0751H60.605L61.4853 6.83895H69.2323V9.4213H63.7546L63.5003 12.0036C64.1003 11.5993 64.8176 11.3972 65.6523 11.3972ZM74.4791 12.6884C73.9313 12.6884 73.4227 12.5579 72.9532 12.2971C72.4967 12.0232 72.125 11.6515 71.8381 11.182C71.5642 10.7125 71.4272 10.1973 71.4272 9.63649C71.4272 9.07568 71.5642 8.56052 71.8381 8.091C72.125 7.62148 72.4967 7.2563 72.9532 6.99546C73.4227 6.72157 73.9313 6.58463 74.4791 6.58463C75.0269 6.58463 75.529 6.72157 75.9855 6.99546C76.455 7.2563 76.8267 7.62148 77.1006 8.091C77.3875 8.56052 77.531 9.07568 77.531 9.63649C77.531 10.1973 77.3875 10.7125 77.1006 11.182C76.8267 11.6515 76.455 12.0232 75.9855 12.2971C75.529 12.5579 75.0269 12.6884 74.4791 12.6884ZM74.6747 20.5332H72.6402L81.1306 6.83895H83.1652L74.6747 20.5332ZM74.4791 11.0255C74.8312 11.0255 75.1312 10.9016 75.379 10.6538C75.6399 10.3929 75.7703 10.0538 75.7703 9.63649C75.7703 9.21914 75.6399 8.88657 75.379 8.63877C75.1312 8.37793 74.8312 8.2475 74.4791 8.2475C74.127 8.2475 73.8205 8.37793 73.5596 8.63877C73.3118 8.88657 73.1879 9.21914 73.1879 9.63649C73.1879 10.0538 73.3118 10.3929 73.5596 10.6538C73.8205 10.9016 74.127 11.0255 74.4791 11.0255ZM81.3262 20.7875C80.7785 20.7875 80.2698 20.6571 79.8003 20.3963C79.3438 20.1224 78.9721 19.7507 78.6852 19.2812C78.4113 18.8116 78.2744 18.2965 78.2744 17.7357C78.2744 17.1749 78.4113 16.6597 78.6852 16.1902C78.9721 15.7207 79.3438 15.3555 79.8003 15.0946C80.2698 14.8207 80.7785 14.6838 81.3262 14.6838C81.874 14.6838 82.3761 14.8207 82.8326 15.0946C83.3021 15.3555 83.6738 15.7207 83.9477 16.1902C84.2346 16.6597 84.3781 17.1749 84.3781 17.7357C84.3781 18.2965 84.2346 18.8116 83.9477 19.2812C83.6738 19.7507 83.3021 20.1224 82.8326 20.3963C82.3761 20.6571 81.874 20.7875 81.3262 20.7875ZM81.3262 19.1247C81.6784 19.1247 81.9783 19.0008 82.2261 18.753C82.487 18.4921 82.6174 18.153 82.6174 17.7357C82.6174 17.3183 82.487 16.9857 82.2261 16.7379C81.9783 16.4771 81.6784 16.3467 81.3262 16.3467C80.9741 16.3467 80.6676 16.4771 80.4068 16.7379C80.159 16.9857 80.0351 17.3183 80.0351 17.7357C80.0351 18.153 80.159 18.4921 80.4068 18.753C80.6676 19.0008 80.9741 19.1247 81.3262 19.1247Z" fill="white"/>
<path fill-rule="evenodd" clip-rule="evenodd" d="M98.897 7.82753H90.2021V6.19727H98.897V7.82753ZM90.3171 10.2962H98.897V11.9265H91.9474V14.0226H96.2885C98.1793 14.0226 99.7121 15.5553 99.7121 17.4461C99.7121 19.3369 98.1793 20.8697 96.2885 20.8697H90.3171V10.2962ZM91.9474 15.6528V19.2394H96.2885C97.279 19.2394 98.0818 18.4365 98.0818 17.4461C98.0818 16.4557 97.279 15.6528 96.2885 15.6528H91.9474Z" fill="white"/>
<defs>
<linearGradient id="paint0_linear_10906_112327" x1="68.25" y1="13.1514" x2="-41.9024" y2="60.3755" gradientUnits="userSpaceOnUse">
<stop stop-color="#FFA877"/>
<stop offset="1" stop-color="#FF0707"/>
</linearGradient>
<linearGradient id="paint1_linear_10906_112327" x1="68.25" y1="13.1514" x2="-41.9024" y2="60.3755" gradientUnits="userSpaceOnUse">
<stop stop-color="#FFA877"/>
<stop offset="1" stop-color="#FF0707"/>
</linearGradient>
<linearGradient id="paint2_linear_10906_112327" x1="68.25" y1="13.1514" x2="-41.9024" y2="60.3755" gradientUnits="userSpaceOnUse">
<stop stop-color="#FFA877"/>
<stop offset="1" stop-color="#FF0707"/>
</linearGradient>
<linearGradient id="paint3_linear_10906_112327" x1="66.3105" y1="10.899" x2="-22.7568" y2="92.6031" gradientUnits="userSpaceOnUse">
<stop stop-color="#FFA877"/>
<stop offset="1" stop-color="#FF0707"/>
</linearGradient>
<linearGradient id="paint4_linear_10906_112327" x1="76.9285" y1="15.9916" x2="51.7276" y2="35.8997" gradientUnits="userSpaceOnUse">
<stop stop-color="#FFD977"/>
<stop offset="1" stop-color="#FF8D07"/>
</linearGradient>
<linearGradient id="paint5_linear_10906_112327" x1="76.9285" y1="15.9916" x2="51.7276" y2="35.8997" gradientUnits="userSpaceOnUse">
<stop stop-color="#FFD977"/>
<stop offset="1" stop-color="#FF8D07"/>
</linearGradient>
<linearGradient id="paint6_linear_10906_112327" x1="82.4223" y1="19.1786" x2="57.1698" y2="39.071" gradientUnits="userSpaceOnUse">
<stop stop-color="#FFD977"/>
<stop offset="1" stop-color="#FF8D07"/>
</linearGradient>
<clipPath id="clip0_10906_112327">
<rect width="87.156" height="97.0337" fill="white" transform="translate(5.82812 13.5381)"/>
</clipPath>
</defs>
</svg>
