<svg width="105" height="112" viewBox="0 0 105 112" fill="none" xmlns="http://www.w3.org/2000/svg">
<g clip-path="url(#clip0_10906_112248)">
<path d="M53.7331 27.723C53.7331 26.7402 54.0143 25.9956 54.4889 25.5399C55.1788 24.8775 56.2772 24.8256 57.5144 25.5399L90.09 44.3475C92.1784 45.5532 93.8713 48.4854 93.8713 50.8968V76.8287C93.8713 77.9724 93.4905 78.7935 92.8673 79.2122C92.8041 79.2546 92.7385 79.2929 92.6705 79.327C91.9948 79.6656 91.0875 79.5877 90.09 79.0119L81.7978 74.2243L57.5144 60.2043C55.426 58.9986 53.7331 56.0663 53.7331 53.6549V41.1124L53.7331 27.723Z" fill="#9C9C9C"/>
<path d="M53.7331 27.723C53.7331 26.7402 54.0143 25.9956 54.4889 25.5399C55.1788 24.8775 56.2772 24.8256 57.5144 25.5399L90.09 44.3475C92.1784 45.5532 93.8713 48.4854 93.8713 50.8968V76.8287C93.8713 77.9724 93.4905 78.7935 92.8673 79.2122C92.8041 79.2546 92.7385 79.2929 92.6705 79.327C91.9948 79.6656 91.0875 79.5877 90.09 79.0119L81.7978 74.2243L57.5144 60.2043C55.426 58.9986 53.7331 56.0663 53.7331 53.6549V41.1124L53.7331 27.723Z" fill="#E7C6C6"/>
<path d="M53.7331 27.723C53.7331 26.7402 54.0143 25.9956 54.4889 25.5399C55.1788 24.8775 56.2772 24.8256 57.5144 25.5399L90.09 44.3475C92.1784 45.5532 93.8713 48.4854 93.8713 50.8968V76.8287C93.8713 77.9724 93.4905 78.7935 92.8673 79.2122C92.8041 79.2546 92.7385 79.2929 92.6705 79.327C91.9948 79.6656 91.0875 79.5877 90.09 79.0119L81.7978 74.2243L57.5144 60.2043C55.426 58.9986 53.7331 56.0663 53.7331 53.6549V41.1124L53.7331 27.723Z" fill="url(#paint0_linear_10906_112248)" fill-opacity="0.75"/>
<path d="M92.6705 79.327C91.9948 79.6656 91.0875 79.5877 90.09 79.0119L81.7978 74.2243L78.7083 77.3266L83.4833 84.6857L92.6705 79.327Z" fill="#9C9C9C"/>
<path d="M92.6705 79.327C91.9948 79.6656 91.0875 79.5877 90.09 79.0119L81.7978 74.2243L78.7083 77.3266L83.4833 84.6857L92.6705 79.327Z" fill="#E7C6C6"/>
<path d="M92.6705 79.327C91.9948 79.6656 91.0875 79.5877 90.09 79.0119L81.7978 74.2243L78.7083 77.3266L83.4833 84.6857L92.6705 79.327Z" fill="url(#paint1_linear_10906_112248)" fill-opacity="0.75"/>
<path d="M53.7331 27.723C53.7331 26.7402 54.0143 25.9956 54.4889 25.5399L45.3359 30.8344L48.6644 40.4336L53.7331 41.1124L53.7331 27.723Z" fill="#9C9C9C"/>
<path d="M53.7331 27.723C53.7331 26.7402 54.0143 25.9956 54.4889 25.5399L45.3359 30.8344L48.6644 40.4336L53.7331 41.1124L53.7331 27.723Z" fill="#E7C6C6"/>
<path d="M53.7331 27.723C53.7331 26.7402 54.0143 25.9956 54.4889 25.5399L45.3359 30.8344L48.6644 40.4336L53.7331 41.1124L53.7331 27.723Z" fill="url(#paint2_linear_10906_112248)" fill-opacity="0.75"/>
<rect width="46.3476" height="34.6644" rx="5.88222" transform="matrix(0.866025 0.5 -2.20305e-08 1 44.5 28.7031)" fill="#7B7B7B"/>
<rect width="46.3476" height="34.6644" rx="5.88222" transform="matrix(0.866025 0.5 -2.20305e-08 1 44.5 28.7031)" fill="#E7C6C6"/>
<rect width="46.3476" height="34.6644" rx="5.88222" transform="matrix(0.866025 0.5 -2.20305e-08 1 44.5 28.7031)" fill="url(#paint3_linear_10906_112248)" fill-opacity="0.75"/>
<path d="M52.7109 91.864L85.0942 73.3828V83.7369L52.7109 102.327V91.864Z" fill="url(#paint4_linear_10906_112248)"/>
<path d="M23.91 73.5651C21.8217 72.3594 21.8217 70.4046 23.91 69.1989L46.5581 56.123C48.6464 54.9173 52.0323 54.9173 54.1206 56.123L71.4903 66.1514L83.7839 73.2492C84.7702 73.8186 85.2906 74.555 85.3454 75.3008C85.4065 76.1341 84.886 76.9791 83.7839 77.6154L61.1359 90.6913C59.0475 91.897 55.6617 91.897 53.5734 90.6913L23.91 73.5651Z" fill="#C4C4C4"/>
<path d="M23.91 73.5651C21.8217 72.3594 21.8217 70.4046 23.91 69.1989L46.5581 56.123C48.6464 54.9173 52.0323 54.9173 54.1206 56.123L71.4903 66.1514L83.7839 73.2492C84.7702 73.8186 85.2906 74.555 85.3454 75.3008C85.4065 76.1341 84.886 76.9791 83.7839 77.6154L61.1359 90.6913C59.0475 91.897 55.6617 91.897 53.5734 90.6913L23.91 73.5651Z" fill="#A8A8A8"/>
<path d="M23.91 73.5651C21.8217 72.3594 21.8217 70.4046 23.91 69.1989L46.5581 56.123C48.6464 54.9173 52.0323 54.9173 54.1206 56.123L71.4903 66.1514L83.7839 73.2492C84.7702 73.8186 85.2906 74.555 85.3454 75.3008C85.4065 76.1341 84.886 76.9791 83.7839 77.6154L61.1359 90.6913C59.0475 91.897 55.6617 91.897 53.5734 90.6913L23.91 73.5651Z" fill="url(#paint5_linear_10906_112248)" fill-opacity="0.75"/>
<path d="M83.7839 73.2492C84.7702 73.8186 85.2906 74.555 85.3454 75.3008V66.1514H71.4903L83.7839 73.2492Z" fill="#C4C4C4"/>
<path d="M83.7839 73.2492C84.7702 73.8186 85.2906 74.555 85.3454 75.3008V66.1514H71.4903L83.7839 73.2492Z" fill="#A8A8A8"/>
<path d="M83.7839 73.2492C84.7702 73.8186 85.2906 74.555 85.3454 75.3008V66.1514H71.4903L83.7839 73.2492Z" fill="url(#paint6_linear_10906_112248)" fill-opacity="0.75"/>
<path d="M23.91 64.4714C21.8217 63.2657 21.8217 61.3108 23.91 60.1052L46.5581 47.0293C48.6464 45.8236 52.0323 45.8236 54.1206 47.0293L83.7839 64.1554C85.8723 65.3611 85.8723 67.3159 83.7839 68.5216L61.1359 81.5975C59.0475 82.8032 55.6617 82.8032 53.5734 81.5975L23.91 64.4714Z" fill="#B0B0B0"/>
<path d="M23.91 64.4714C21.8217 63.2657 21.8217 61.3108 23.91 60.1052L46.5581 47.0293C48.6464 45.8236 52.0323 45.8236 54.1206 47.0293L83.7839 64.1554C85.8723 65.3611 85.8723 67.3159 83.7839 68.5216L61.1359 81.5975C59.0475 82.8032 55.6617 82.8032 53.5734 81.5975L23.91 64.4714Z" fill="#F4F4F2"/>
<path d="M23.91 64.4714C21.8217 63.2657 21.8217 61.3108 23.91 60.1052L46.5581 47.0293C48.6464 45.8236 52.0323 45.8236 54.1206 47.0293L83.7839 64.1554C85.8723 65.3611 85.8723 67.3159 83.7839 68.5216L61.1359 81.5975C59.0475 82.8032 55.6617 82.8032 53.5734 81.5975L23.91 64.4714Z" fill="url(#paint7_linear_10906_112248)" fill-opacity="0.75"/>
<path d="M23.91 64.4714C21.8217 63.2657 21.8217 61.3108 23.91 60.1052L46.5581 47.0293C48.6464 45.8236 52.0323 45.8236 54.1206 47.0293L83.7839 64.1554C85.8723 65.3611 85.8723 67.3159 83.7839 68.5216L61.1359 81.5975C59.0475 82.8032 55.6617 82.8032 53.5734 81.5975L23.91 64.4714Z" fill="#F4F4F2"/>
<path d="M23.91 64.4714C21.8217 63.2657 21.8217 61.3108 23.91 60.1052L46.5581 47.0293C48.6464 45.8236 52.0323 45.8236 54.1206 47.0293L83.7839 64.1554C85.8723 65.3611 85.8723 67.3159 83.7839 68.5216L61.1359 81.5975C59.0475 82.8032 55.6617 82.8032 53.5734 81.5975L23.91 64.4714Z" fill="url(#paint8_linear_10906_112248)"/>
<path d="M47.8772 17.2027C47.7945 16.4669 47.5354 15.9026 47.1493 15.5315C46.9587 15.3484 46.7371 15.2124 46.4905 15.1261C46.3918 15.0916 46.2892 15.0651 46.1829 15.0467C45.5879 14.9436 44.8793 15.0953 44.1237 15.5315L20.9224 28.9268C18.6527 30.2372 16.8944 33.545 17.1689 35.9881L20.2886 63.7582C20.5197 65.8157 22.1306 66.5329 24.0421 65.4293L47.2434 52.034C49.513 50.7237 51.2713 47.4159 50.9969 44.9728L49.437 31.0877L47.8772 17.2027Z" fill="#A2A2A2"/>
<path d="M47.8772 17.2027C47.7945 16.4669 47.5354 15.9026 47.1493 15.5315C46.9587 15.3484 46.7371 15.2124 46.4905 15.1261C46.3918 15.0916 46.2892 15.0651 46.1829 15.0467C45.5879 14.9436 44.8793 15.0953 44.1237 15.5315L20.9224 28.9268C18.6527 30.2372 16.8944 33.545 17.1689 35.9881L20.2886 63.7582C20.5197 65.8157 22.1306 66.5329 24.0421 65.4293L47.2434 52.034C49.513 50.7237 51.2713 47.4159 50.9969 44.9728L49.437 31.0877L47.8772 17.2027Z" fill="#F4F4F2"/>
<path d="M47.8772 17.2027C47.7945 16.4669 47.5354 15.9026 47.1493 15.5315C46.9587 15.3484 46.7371 15.2124 46.4905 15.1261C46.3918 15.0916 46.2892 15.0651 46.1829 15.0467C45.5879 14.9436 44.8793 15.0953 44.1237 15.5315L20.9224 28.9268C18.6527 30.2372 16.8944 33.545 17.1689 35.9881L20.2886 63.7582C20.5197 65.8157 22.1306 66.5329 24.0421 65.4293L47.2434 52.034C49.513 50.7237 51.2713 47.4159 50.9969 44.9728L49.437 31.0877L47.8772 17.2027Z" fill="url(#paint9_linear_10906_112248)" fill-opacity="0.75"/>
<path d="M47.1493 15.5315C47.5354 15.9026 47.7945 16.4669 47.8772 17.2027L49.437 31.0877L56.1347 20.4994L54.7468 19.732L47.1493 15.5315Z" fill="#A2A2A2"/>
<path d="M47.1493 15.5315C47.5354 15.9026 47.7945 16.4669 47.8772 17.2027L49.437 31.0877L56.1347 20.4994L54.7468 19.732L47.1493 15.5315Z" fill="#F4F4F2"/>
<path d="M47.1493 15.5315C47.5354 15.9026 47.7945 16.4669 47.8772 17.2027L49.437 31.0877L56.1347 20.4994L54.7468 19.732L47.1493 15.5315Z" fill="url(#paint10_linear_10906_112248)" fill-opacity="0.75"/>
<path d="M46.4905 15.1261C46.7371 15.2124 46.9587 15.3484 47.1493 15.5315L54.7468 19.732L55.617 17.4843L46.4905 15.1261Z" fill="#A2A2A2"/>
<path d="M46.4905 15.1261C46.7371 15.2124 46.9587 15.3484 47.1493 15.5315L54.7468 19.732L55.617 17.4843L46.4905 15.1261Z" fill="#F4F4F2"/>
<path d="M46.4905 15.1261C46.7371 15.2124 46.9587 15.3484 47.1493 15.5315L54.7468 19.732L55.617 17.4843L46.4905 15.1261Z" fill="url(#paint11_linear_10906_112248)" fill-opacity="0.75"/>
<path d="M56.8694 19.5543C56.6382 17.4967 55.0273 16.7795 53.1159 17.8831L29.9146 31.2784C27.6449 32.5888 25.8866 35.8965 26.1611 38.3396L28.7912 64.058C29.0223 66.1155 30.6332 66.8327 32.5447 65.7291L55.7459 52.3339C58.0156 51.0235 59.7739 47.7157 59.4994 45.2726L56.8694 19.5543Z" fill="#7B7B7B"/>
<path d="M56.8694 19.5543C56.6382 17.4967 55.0273 16.7795 53.1159 17.8831L29.9146 31.2784C27.6449 32.5888 25.8866 35.8965 26.1611 38.3396L28.7912 64.058C29.0223 66.1155 30.6332 66.8327 32.5447 65.7291L55.7459 52.3339C58.0156 51.0235 59.7739 47.7157 59.4994 45.2726L56.8694 19.5543Z" fill="#F4F4F2"/>
<path d="M56.8694 19.5543C56.6382 17.4967 55.0273 16.7795 53.1159 17.8831L29.9146 31.2784C27.6449 32.5888 25.8866 35.8965 26.1611 38.3396L28.7912 64.058C29.0223 66.1155 30.6332 66.8327 32.5447 65.7291L55.7459 52.3339C58.0156 51.0235 59.7739 47.7157 59.4994 45.2726L56.8694 19.5543Z" fill="url(#paint12_linear_10906_112248)" fill-opacity="0.75"/>
<path d="M14.0653 50.5198C14.0653 49.537 14.3465 48.7924 14.8211 48.3367C15.5109 47.6744 16.6093 47.6225 17.8465 48.3367L50.4222 67.1443C52.5105 68.35 54.2035 71.2823 54.2035 73.6937V99.6256C54.2035 100.769 53.8226 101.59 53.1994 102.009C53.1363 102.051 53.0706 102.09 53.0026 102.124C52.3269 102.462 51.4197 102.385 50.4222 101.809L42.1299 97.0212L17.8465 83.0011C15.7582 81.7954 14.0653 78.8632 14.0653 76.4518V63.9092L14.0653 50.5198Z" fill="#9C9C9C"/>
<path d="M14.0653 50.5198C14.0653 49.537 14.3465 48.7924 14.8211 48.3367C15.5109 47.6744 16.6093 47.6225 17.8465 48.3367L50.4222 67.1443C52.5105 68.35 54.2035 71.2823 54.2035 73.6937V99.6256C54.2035 100.769 53.8226 101.59 53.1994 102.009C53.1363 102.051 53.0706 102.09 53.0026 102.124C52.3269 102.462 51.4197 102.385 50.4222 101.809L42.1299 97.0212L17.8465 83.0011C15.7582 81.7954 14.0653 78.8632 14.0653 76.4518V63.9092L14.0653 50.5198Z" fill="#E7C6C6"/>
<path d="M14.0653 50.5198C14.0653 49.537 14.3465 48.7924 14.8211 48.3367C15.5109 47.6744 16.6093 47.6225 17.8465 48.3367L50.4222 67.1443C52.5105 68.35 54.2035 71.2823 54.2035 73.6937V99.6256C54.2035 100.769 53.8226 101.59 53.1994 102.009C53.1363 102.051 53.0706 102.09 53.0026 102.124C52.3269 102.462 51.4197 102.385 50.4222 101.809L42.1299 97.0212L17.8465 83.0011C15.7582 81.7954 14.0653 78.8632 14.0653 76.4518V63.9092L14.0653 50.5198Z" fill="url(#paint13_linear_10906_112248)" fill-opacity="0.75"/>
<path d="M53.0026 102.124C52.3269 102.462 51.4197 102.385 50.4222 101.809L42.1299 97.0212L39.0405 100.123L42.8838 106.973L53.0026 102.124Z" fill="#9C9C9C"/>
<path d="M53.0026 102.124C52.3269 102.462 51.4197 102.385 50.4222 101.809L42.1299 97.0212L39.0405 100.123L42.8838 106.973L53.0026 102.124Z" fill="#E7C6C6"/>
<path d="M53.0026 102.124C52.3269 102.462 51.4197 102.385 50.4222 101.809L42.1299 97.0212L39.0405 100.123L42.8838 106.973L53.0026 102.124Z" fill="url(#paint14_linear_10906_112248)" fill-opacity="0.75"/>
<path d="M14.0653 50.5198C14.0653 49.537 14.3465 48.7924 14.8211 48.3367L5.85938 54.4218L8.99659 63.2305L14.0653 63.9092L14.0653 50.5198Z" fill="#9C9C9C"/>
<path d="M14.0653 50.5198C14.0653 49.537 14.3465 48.7924 14.8211 48.3367L5.85938 54.4218L8.99659 63.2305L14.0653 63.9092L14.0653 50.5198Z" fill="#E7C6C6"/>
<path d="M14.0653 50.5198C14.0653 49.537 14.3465 48.7924 14.8211 48.3367L5.85938 54.4218L8.99659 63.2305L14.0653 63.9092L14.0653 50.5198Z" fill="url(#paint15_linear_10906_112248)" fill-opacity="0.75"/>
<rect width="46.3476" height="34.6644" rx="5.88222" transform="matrix(0.866025 0.5 -2.20305e-08 1 4.85156 51.5312)" fill="#7B7B7B"/>
<rect width="46.3476" height="34.6644" rx="5.88222" transform="matrix(0.866025 0.5 -2.20305e-08 1 4.85156 51.5312)" fill="#E7C6C6"/>
<rect width="46.3476" height="34.6644" rx="5.88222" transform="matrix(0.866025 0.5 -2.20305e-08 1 4.85156 51.5312)" fill="url(#paint16_linear_10906_112248)" fill-opacity="0.75"/>
<path d="M59.633 36.9392C59.5946 36.5969 59.474 36.3344 59.2944 36.1619C59.2058 36.0767 59.1027 36.0134 58.988 35.9733C58.9421 35.9572 58.8944 35.9449 58.8449 35.9363C58.5681 35.8884 58.2385 35.9589 57.8871 36.1619L47.095 42.3926C46.0393 43.0022 45.2214 44.5408 45.3491 45.6772L46.5107 57.6024C46.5704 58.1338 46.828 58.473 47.1974 58.5817C47.2081 58.5848 47.2188 58.5878 47.2296 58.5905C47.5198 58.6642 47.8754 58.5998 48.2566 58.3797L51.9813 56.2293L59.0487 52.1489C60.1044 51.5394 60.9223 50.0008 60.7946 48.8644L60.3586 43.3978L59.633 36.9392Z" fill="#A2A2A2"/>
<path d="M59.633 36.9392C59.5946 36.5969 59.474 36.3344 59.2944 36.1619C59.2058 36.0767 59.1027 36.0134 58.988 35.9733C58.9421 35.9572 58.8944 35.9449 58.8449 35.9363C58.5681 35.8884 58.2385 35.9589 57.8871 36.1619L47.095 42.3926C46.0393 43.0022 45.2214 44.5408 45.3491 45.6772L46.5107 57.6024C46.5704 58.1338 46.828 58.473 47.1974 58.5817C47.2081 58.5848 47.2188 58.5878 47.2296 58.5905C47.5198 58.6642 47.8754 58.5998 48.2566 58.3797L51.9813 56.2293L59.0487 52.1489C60.1044 51.5394 60.9223 50.0008 60.7946 48.8644L60.3586 43.3978L59.633 36.9392Z" fill="#F4F4F2"/>
<path d="M59.633 36.9392C59.5946 36.5969 59.474 36.3344 59.2944 36.1619C59.2058 36.0767 59.1027 36.0134 58.988 35.9733C58.9421 35.9572 58.8944 35.9449 58.8449 35.9363C58.5681 35.8884 58.2385 35.9589 57.8871 36.1619L47.095 42.3926C46.0393 43.0022 45.2214 44.5408 45.3491 45.6772L46.5107 57.6024C46.5704 58.1338 46.828 58.473 47.1974 58.5817C47.2081 58.5848 47.2188 58.5878 47.2296 58.5905C47.5198 58.6642 47.8754 58.5998 48.2566 58.3797L51.9813 56.2293L59.0487 52.1489C60.1044 51.5394 60.9223 50.0008 60.7946 48.8644L60.3586 43.3978L59.633 36.9392Z" fill="url(#paint17_linear_10906_112248)" fill-opacity="0.75"/>
<path d="M59.633 36.9392C59.5946 36.5969 59.474 36.3344 59.2944 36.1619C59.2058 36.0767 59.1027 36.0134 58.988 35.9733C58.9421 35.9572 58.8944 35.9449 58.8449 35.9363C58.5681 35.8884 58.2385 35.9589 57.8871 36.1619L47.095 42.3926C46.0393 43.0022 45.2214 44.5408 45.3491 45.6772L46.5107 57.6024C46.5704 58.1338 46.828 58.473 47.1974 58.5817C47.2081 58.5848 47.2188 58.5878 47.2296 58.5905C47.5198 58.6642 47.8754 58.5998 48.2566 58.3797L51.9813 56.2293L59.0487 52.1489C60.1044 51.5394 60.9223 50.0008 60.7946 48.8644L60.3586 43.3978L59.633 36.9392Z" fill="#FFC782"/>
<path d="M59.633 36.9392C59.5946 36.5969 59.474 36.3344 59.2944 36.1619C59.2058 36.0767 59.1027 36.0134 58.988 35.9733C58.9421 35.9572 58.8944 35.9449 58.8449 35.9363C58.5681 35.8884 58.2385 35.9589 57.8871 36.1619L47.095 42.3926C46.0393 43.0022 45.2214 44.5408 45.3491 45.6772L46.5107 57.6024C46.5704 58.1338 46.828 58.473 47.1974 58.5817C47.2081 58.5848 47.2188 58.5878 47.2296 58.5905C47.5198 58.6642 47.8754 58.5998 48.2566 58.3797L51.9813 56.2293L59.0487 52.1489C60.1044 51.5394 60.9223 50.0008 60.7946 48.8644L60.3586 43.3978L59.633 36.9392Z" fill="url(#paint18_linear_10906_112248)" fill-opacity="0.75"/>
<path d="M59.2944 36.1619C59.474 36.3344 59.5946 36.5969 59.633 36.9392L60.3586 43.3978L63.474 38.4726L62.8284 38.1157L59.2944 36.1619Z" fill="#A2A2A2"/>
<path d="M59.2944 36.1619C59.474 36.3344 59.5946 36.5969 59.633 36.9392L60.3586 43.3978L63.474 38.4726L62.8284 38.1157L59.2944 36.1619Z" fill="#F4F4F2"/>
<path d="M59.2944 36.1619C59.474 36.3344 59.5946 36.5969 59.633 36.9392L60.3586 43.3978L63.474 38.4726L62.8284 38.1157L59.2944 36.1619Z" fill="url(#paint19_linear_10906_112248)" fill-opacity="0.75"/>
<path d="M59.2944 36.1619C59.474 36.3344 59.5946 36.5969 59.633 36.9392L60.3586 43.3978L63.474 38.4726L62.8284 38.1157L59.2944 36.1619Z" fill="#FFC782"/>
<path d="M59.2944 36.1619C59.474 36.3344 59.5946 36.5969 59.633 36.9392L60.3586 43.3978L63.474 38.4726L62.8284 38.1157L59.2944 36.1619Z" fill="url(#paint20_linear_10906_112248)" fill-opacity="0.75"/>
<path d="M58.988 35.9733C59.1027 36.0134 59.2058 36.0767 59.2944 36.1619L62.8284 38.1157L63.2332 37.0702L58.988 35.9733Z" fill="#A2A2A2"/>
<path d="M58.988 35.9733C59.1027 36.0134 59.2058 36.0767 59.2944 36.1619L62.8284 38.1157L63.2332 37.0702L58.988 35.9733Z" fill="#F4F4F2"/>
<path d="M58.988 35.9733C59.1027 36.0134 59.2058 36.0767 59.2944 36.1619L62.8284 38.1157L63.2332 37.0702L58.988 35.9733Z" fill="url(#paint21_linear_10906_112248)" fill-opacity="0.75"/>
<path d="M58.988 35.9733C59.1027 36.0134 59.2058 36.0767 59.2944 36.1619L62.8284 38.1157L63.2332 37.0702L58.988 35.9733Z" fill="#FFC782"/>
<path d="M58.988 35.9733C59.1027 36.0134 59.2058 36.0767 59.2944 36.1619L62.8284 38.1157L63.2332 37.0702L58.988 35.9733Z" fill="url(#paint22_linear_10906_112248)" fill-opacity="0.75"/>
<path d="M48.2566 58.3797C47.8754 58.5998 47.5198 58.6642 47.2296 58.5905L51.4782 59.7544L51.9813 56.2293L48.2566 58.3797Z" fill="#A2A2A2"/>
<path d="M48.2566 58.3797C47.8754 58.5998 47.5198 58.6642 47.2296 58.5905L51.4782 59.7544L51.9813 56.2293L48.2566 58.3797Z" fill="#F4F4F2"/>
<path d="M48.2566 58.3797C47.8754 58.5998 47.5198 58.6642 47.2296 58.5905L51.4782 59.7544L51.9813 56.2293L48.2566 58.3797Z" fill="url(#paint23_linear_10906_112248)" fill-opacity="0.75"/>
<path d="M48.2566 58.3797C47.8754 58.5998 47.5198 58.6642 47.2296 58.5905L51.4782 59.7544L51.9813 56.2293L48.2566 58.3797Z" fill="#FFC782"/>
<path d="M48.2566 58.3797C47.8754 58.5998 47.5198 58.6642 47.2296 58.5905L51.4782 59.7544L51.9813 56.2293L48.2566 58.3797Z" fill="url(#paint24_linear_10906_112248)" fill-opacity="0.75"/>
<path d="M63.8127 38.0329C63.7052 37.0759 62.9559 36.7423 62.0668 37.2556L51.2747 43.4864C50.219 44.0959 49.4011 45.6345 49.5288 46.7709L50.7521 58.7338C50.8597 59.6909 51.609 60.0245 52.4981 59.5111L63.2901 53.2803C64.3459 52.6708 65.1637 51.1322 65.0361 49.9958L63.8127 38.0329Z" fill="#7B7B7B"/>
<path d="M63.8127 38.0329C63.7052 37.0759 62.9559 36.7423 62.0668 37.2556L51.2747 43.4864C50.219 44.0959 49.4011 45.6345 49.5288 46.7709L50.7521 58.7338C50.8597 59.6909 51.609 60.0245 52.4981 59.5111L63.2901 53.2803C64.3459 52.6708 65.1637 51.1322 65.0361 49.9958L63.8127 38.0329Z" fill="#F4F4F2"/>
<path d="M63.8127 38.0329C63.7052 37.0759 62.9559 36.7423 62.0668 37.2556L51.2747 43.4864C50.219 44.0959 49.4011 45.6345 49.5288 46.7709L50.7521 58.7338C50.8597 59.6909 51.609 60.0245 52.4981 59.5111L63.2901 53.2803C64.3459 52.6708 65.1637 51.1322 65.0361 49.9958L63.8127 38.0329Z" fill="url(#paint25_linear_10906_112248)" fill-opacity="0.75"/>
<path d="M63.8127 38.0329C63.7052 37.0759 62.9559 36.7423 62.0668 37.2556L51.2747 43.4864C50.219 44.0959 49.4011 45.6345 49.5288 46.7709L50.7521 58.7338C50.8597 59.6909 51.609 60.0245 52.4981 59.5111L63.2901 53.2803C64.3459 52.6708 65.1637 51.1322 65.0361 49.9958L63.8127 38.0329Z" fill="white"/>
<path d="M63.8127 38.0329C63.7052 37.0759 62.9559 36.7423 62.0668 37.2556L51.2747 43.4864C50.219 44.0959 49.4011 45.6345 49.5288 46.7709L50.7521 58.7338C50.8597 59.6909 51.609 60.0245 52.4981 59.5111L63.2901 53.2803C64.3459 52.6708 65.1637 51.1322 65.0361 49.9958L63.8127 38.0329Z" fill="url(#paint26_linear_10906_112248)" fill-opacity="0.75"/>
</g>
<rect x="39.1328" y="0.960938" width="65.1264" height="26.0843" rx="13.0421" fill="#9BD050"/>
<path d="M58.2395 11.8669C59.1003 11.8669 59.8763 12.0691 60.5675 12.4734C61.2588 12.8777 61.8 13.432 62.1913 14.1362C62.5956 14.8275 62.7978 15.61 62.7978 16.4838C62.7978 17.3577 62.5826 18.1597 62.1522 18.8901C61.7348 19.6205 61.1414 20.2008 60.3719 20.6312C59.6024 21.0486 58.7351 21.2573 57.77 21.2573C56.8701 21.2573 56.0615 21.0681 55.3442 20.6899C54.6268 20.3117 54.0595 19.8096 53.6422 19.1836C53.2248 18.5575 52.977 17.8793 52.8988 17.149H55.6963C55.7485 17.5142 55.9637 17.8598 56.3419 18.1858C56.7332 18.5119 57.2027 18.6749 57.7504 18.6749C58.4156 18.6749 58.9568 18.4662 59.3742 18.0489C59.7915 17.6185 60.0002 17.0968 60.0002 16.4838C60.0002 15.8578 59.7915 15.3296 59.3742 14.8992C58.9568 14.4688 58.4156 14.2536 57.7504 14.2536C56.7853 14.2536 56.0876 14.684 55.6572 15.5448H53.1922L54.0726 7.30868H61.8196V9.89102H56.3419L56.0876 12.4734C56.6875 12.0691 57.4048 11.8669 58.2395 11.8669ZM67.0664 13.1581C66.5186 13.1581 66.0099 13.0277 65.5404 12.7668C65.0839 12.4929 64.7122 12.1212 64.4253 11.6517C64.1514 11.1822 64.0145 10.667 64.0145 10.1062C64.0145 9.54541 64.1514 9.03024 64.4253 8.56073C64.7122 8.09121 65.0839 7.72603 65.5404 7.46519C66.0099 7.1913 66.5186 7.05436 67.0664 7.05436C67.6141 7.05436 68.1162 7.1913 68.5727 7.46519C69.0422 7.72603 69.4139 8.09121 69.6878 8.56073C69.9748 9.03024 70.1182 9.54541 70.1182 10.1062C70.1182 10.667 69.9748 11.1822 69.6878 11.6517C69.4139 12.1212 69.0422 12.4929 68.5727 12.7668C68.1162 13.0277 67.6141 13.1581 67.0664 13.1581ZM67.262 21.0029H65.2274L73.7178 7.30868H75.7524L67.262 21.0029ZM67.0664 11.4952C67.4185 11.4952 67.7185 11.3713 67.9663 11.1235C68.2271 10.8627 68.3575 10.5236 68.3575 10.1062C68.3575 9.68887 68.2271 9.3563 67.9663 9.1085C67.7185 8.84765 67.4185 8.71723 67.0664 8.71723C66.7142 8.71723 66.4077 8.84765 66.1469 9.1085C65.8991 9.3563 65.7752 9.68887 65.7752 10.1062C65.7752 10.5236 65.8991 10.8627 66.1469 11.1235C66.4077 11.3713 66.7142 11.4952 67.0664 11.4952ZM73.9135 21.2573C73.3657 21.2573 72.8571 21.1268 72.3875 20.866C71.9311 20.5921 71.5594 20.2204 71.2724 19.7509C70.9986 19.2814 70.8616 18.7662 70.8616 18.2054C70.8616 17.6446 70.9986 17.1294 71.2724 16.6599C71.5594 16.1904 71.9311 15.8252 72.3875 15.5644C72.8571 15.2905 73.3657 15.1535 73.9135 15.1535C74.4612 15.1535 74.9634 15.2905 75.4198 15.5644C75.8894 15.8252 76.2611 16.1904 76.5349 16.6599C76.8219 17.1294 76.9653 17.6446 76.9653 18.2054C76.9653 18.7662 76.8219 19.2814 76.5349 19.7509C76.2611 20.2204 75.8894 20.5921 75.4198 20.866C74.9634 21.1268 74.4612 21.2573 73.9135 21.2573ZM73.9135 19.5944C74.2656 19.5944 74.5656 19.4705 74.8134 19.2227C75.0742 18.9618 75.2047 18.6227 75.2047 18.2054C75.2047 17.788 75.0742 17.4555 74.8134 17.2077C74.5656 16.9468 74.2656 16.8164 73.9135 16.8164C73.5613 16.8164 73.2548 16.9468 72.994 17.2077C72.7462 17.4555 72.6223 17.788 72.6223 18.2054C72.6223 18.6227 72.7462 18.9618 72.994 19.2227C73.2548 19.4705 73.5613 19.5944 73.9135 19.5944Z" fill="white"/>
<path fill-rule="evenodd" clip-rule="evenodd" d="M91.8967 8.29726H83.2019V6.66699H91.8967V8.29726ZM83.3169 10.766H91.8967V12.3962H84.9472V14.4923H89.2883C91.1791 14.4923 92.7119 16.0251 92.7119 17.9158C92.7119 19.8066 91.1791 21.3394 89.2883 21.3394H83.3169V10.766ZM84.9472 16.1225V19.7091H89.2883C90.2787 19.7091 91.0816 18.9062 91.0816 17.9158C91.0816 16.9254 90.2787 16.1225 89.2883 16.1225H84.9472Z" fill="white"/>
<defs>
<linearGradient id="paint0_linear_10906_112248" x1="89.1997" y1="48.1629" x2="52.8917" y2="17.8546" gradientUnits="userSpaceOnUse">
<stop stop-color="#FFA877"/>
<stop offset="1" stop-color="#FF0707"/>
</linearGradient>
<linearGradient id="paint1_linear_10906_112248" x1="89.1997" y1="48.1629" x2="52.8917" y2="17.8546" gradientUnits="userSpaceOnUse">
<stop stop-color="#FFA877"/>
<stop offset="1" stop-color="#FF0707"/>
</linearGradient>
<linearGradient id="paint2_linear_10906_112248" x1="89.1997" y1="48.1629" x2="52.8917" y2="17.8546" gradientUnits="userSpaceOnUse">
<stop stop-color="#FFA877"/>
<stop offset="1" stop-color="#FF0707"/>
</linearGradient>
<linearGradient id="paint3_linear_10906_112248" x1="67.7109" y1="-21.9987" x2="15.3707" y2="-33.3918" gradientUnits="userSpaceOnUse">
<stop stop-color="#FFA877"/>
<stop offset="1" stop-color="#FF0707"/>
</linearGradient>
<linearGradient id="paint4_linear_10906_112248" x1="54.0213" y1="96.4094" x2="85.0947" y2="79.567" gradientUnits="userSpaceOnUse">
<stop stop-color="#F9987B"/>
<stop offset="1" stop-color="#F9B08B"/>
</linearGradient>
<linearGradient id="paint5_linear_10906_112248" x1="66.587" y1="75.9685" x2="48.7273" y2="75.1702" gradientUnits="userSpaceOnUse">
<stop stop-color="#EBEBEB"/>
<stop offset="1" stop-color="#D7D7D7"/>
</linearGradient>
<linearGradient id="paint6_linear_10906_112248" x1="66.587" y1="75.9685" x2="48.7273" y2="75.1702" gradientUnits="userSpaceOnUse">
<stop stop-color="#EBEBEB"/>
<stop offset="1" stop-color="#D7D7D7"/>
</linearGradient>
<linearGradient id="paint7_linear_10906_112248" x1="69.5773" y1="73.4016" x2="18.1495" y2="31.2536" gradientUnits="userSpaceOnUse">
<stop stop-color="#9EC1D5" stop-opacity="0.36"/>
<stop offset="1" stop-color="#9FB1CB"/>
</linearGradient>
<linearGradient id="paint8_linear_10906_112248" x1="78.0393" y1="58.5548" x2="54.5263" y2="38.9477" gradientUnits="userSpaceOnUse">
<stop stop-color="#EBEBEB"/>
<stop offset="1" stop-color="#D7D7D7"/>
</linearGradient>
<linearGradient id="paint9_linear_10906_112248" x1="25.7897" y1="27.6247" x2="19.521" y2="43.0873" gradientUnits="userSpaceOnUse">
<stop stop-color="#EBEBEB"/>
<stop offset="1" stop-color="#D7D7D7"/>
</linearGradient>
<linearGradient id="paint10_linear_10906_112248" x1="25.7897" y1="27.6247" x2="19.521" y2="43.0873" gradientUnits="userSpaceOnUse">
<stop stop-color="#EBEBEB"/>
<stop offset="1" stop-color="#D7D7D7"/>
</linearGradient>
<linearGradient id="paint11_linear_10906_112248" x1="25.7897" y1="27.6247" x2="19.521" y2="43.0873" gradientUnits="userSpaceOnUse">
<stop stop-color="#EBEBEB"/>
<stop offset="1" stop-color="#D7D7D7"/>
</linearGradient>
<linearGradient id="paint12_linear_10906_112248" x1="50.2878" y1="52.9872" x2="39.84" y2="27.7733" gradientUnits="userSpaceOnUse">
<stop stop-color="#EBEBEB"/>
<stop offset="1" stop-color="#D7D7D7"/>
</linearGradient>
<linearGradient id="paint13_linear_10906_112248" x1="84.104" y1="79.2975" x2="28.0958" y2="27.2033" gradientUnits="userSpaceOnUse">
<stop stop-color="#FFA877"/>
<stop offset="1" stop-color="#FF0707"/>
</linearGradient>
<linearGradient id="paint14_linear_10906_112248" x1="84.104" y1="79.2975" x2="28.0958" y2="27.2033" gradientUnits="userSpaceOnUse">
<stop stop-color="#FFA877"/>
<stop offset="1" stop-color="#FF0707"/>
</linearGradient>
<linearGradient id="paint15_linear_10906_112248" x1="84.104" y1="79.2975" x2="28.0958" y2="27.2033" gradientUnits="userSpaceOnUse">
<stop stop-color="#FFA877"/>
<stop offset="1" stop-color="#FF0707"/>
</linearGradient>
<linearGradient id="paint16_linear_10906_112248" x1="59.3774" y1="-27.9687" x2="-13.4176" y2="-28.6853" gradientUnits="userSpaceOnUse">
<stop stop-color="#FFA877"/>
<stop offset="1" stop-color="#FF0707"/>
</linearGradient>
<linearGradient id="paint17_linear_10906_112248" x1="49.359" y1="41.787" x2="46.4432" y2="48.9794" gradientUnits="userSpaceOnUse">
<stop stop-color="#EBEBEB"/>
<stop offset="1" stop-color="#D7D7D7"/>
</linearGradient>
<linearGradient id="paint18_linear_10906_112248" x1="53.9876" y1="37.2309" x2="40.2869" y2="49.2322" gradientUnits="userSpaceOnUse">
<stop stop-color="#FFD977"/>
<stop offset="1" stop-color="#FF8D07"/>
</linearGradient>
<linearGradient id="paint19_linear_10906_112248" x1="49.359" y1="41.787" x2="46.4432" y2="48.9794" gradientUnits="userSpaceOnUse">
<stop stop-color="#EBEBEB"/>
<stop offset="1" stop-color="#D7D7D7"/>
</linearGradient>
<linearGradient id="paint20_linear_10906_112248" x1="53.9876" y1="37.2309" x2="40.2869" y2="49.2322" gradientUnits="userSpaceOnUse">
<stop stop-color="#FFD977"/>
<stop offset="1" stop-color="#FF8D07"/>
</linearGradient>
<linearGradient id="paint21_linear_10906_112248" x1="49.359" y1="41.787" x2="46.4432" y2="48.9794" gradientUnits="userSpaceOnUse">
<stop stop-color="#EBEBEB"/>
<stop offset="1" stop-color="#D7D7D7"/>
</linearGradient>
<linearGradient id="paint22_linear_10906_112248" x1="53.9876" y1="37.2309" x2="40.2869" y2="49.2322" gradientUnits="userSpaceOnUse">
<stop stop-color="#FFD977"/>
<stop offset="1" stop-color="#FF8D07"/>
</linearGradient>
<linearGradient id="paint23_linear_10906_112248" x1="49.359" y1="41.787" x2="46.4432" y2="48.9794" gradientUnits="userSpaceOnUse">
<stop stop-color="#EBEBEB"/>
<stop offset="1" stop-color="#D7D7D7"/>
</linearGradient>
<linearGradient id="paint24_linear_10906_112248" x1="53.9876" y1="37.2309" x2="40.2869" y2="49.2322" gradientUnits="userSpaceOnUse">
<stop stop-color="#FFD977"/>
<stop offset="1" stop-color="#FF8D07"/>
</linearGradient>
<linearGradient id="paint25_linear_10906_112248" x1="60.7513" y1="53.5842" x2="55.8915" y2="41.856" gradientUnits="userSpaceOnUse">
<stop stop-color="#EBEBEB"/>
<stop offset="1" stop-color="#D7D7D7"/>
</linearGradient>
<linearGradient id="paint26_linear_10906_112248" x1="58.5061" y1="37.9812" x2="33.3743" y2="52.4577" gradientUnits="userSpaceOnUse">
<stop stop-color="#FFD977"/>
<stop offset="1" stop-color="#FF8D07"/>
</linearGradient>
<clipPath id="clip0_10906_112248">
<rect width="88.978" height="93.1582" fill="white" transform="translate(4.66406 14.4141)"/>
</clipPath>
</defs>
</svg>
